%TF.GenerationSoftware,KiCad,Pcbnew,7.0.7*%
%TF.CreationDate,2023-12-24T21:52:19-06:00*%
%TF.ProjectId,LED Tester,4c454420-5465-4737-9465-722e6b696361,rev?*%
%TF.SameCoordinates,Original*%
%TF.FileFunction,Legend,Bot*%
%TF.FilePolarity,Positive*%
%FSLAX46Y46*%
G04 Gerber Fmt 4.6, Leading zero omitted, Abs format (unit mm)*
G04 Created by KiCad (PCBNEW 7.0.7) date 2023-12-24 21:52:19*
%MOMM*%
%LPD*%
G01*
G04 APERTURE LIST*
%ADD10C,0.200000*%
%ADD11C,0.010000*%
G04 APERTURE END LIST*
D10*
X179511279Y-63806028D02*
X179511279Y-62306028D01*
X178868422Y-63806028D02*
X178868422Y-63020314D01*
X178868422Y-63020314D02*
X178939850Y-62877457D01*
X178939850Y-62877457D02*
X179082707Y-62806028D01*
X179082707Y-62806028D02*
X179296993Y-62806028D01*
X179296993Y-62806028D02*
X179439850Y-62877457D01*
X179439850Y-62877457D02*
X179511279Y-62948885D01*
X178368421Y-62806028D02*
X177796993Y-62806028D01*
X178154136Y-62306028D02*
X178154136Y-63591742D01*
X178154136Y-63591742D02*
X178082707Y-63734600D01*
X178082707Y-63734600D02*
X177939850Y-63806028D01*
X177939850Y-63806028D02*
X177796993Y-63806028D01*
X177511278Y-62806028D02*
X176939850Y-62806028D01*
X177296993Y-62306028D02*
X177296993Y-63591742D01*
X177296993Y-63591742D02*
X177225564Y-63734600D01*
X177225564Y-63734600D02*
X177082707Y-63806028D01*
X177082707Y-63806028D02*
X176939850Y-63806028D01*
X176439850Y-62806028D02*
X176439850Y-64306028D01*
X176439850Y-62877457D02*
X176296993Y-62806028D01*
X176296993Y-62806028D02*
X176011278Y-62806028D01*
X176011278Y-62806028D02*
X175868421Y-62877457D01*
X175868421Y-62877457D02*
X175796993Y-62948885D01*
X175796993Y-62948885D02*
X175725564Y-63091742D01*
X175725564Y-63091742D02*
X175725564Y-63520314D01*
X175725564Y-63520314D02*
X175796993Y-63663171D01*
X175796993Y-63663171D02*
X175868421Y-63734600D01*
X175868421Y-63734600D02*
X176011278Y-63806028D01*
X176011278Y-63806028D02*
X176296993Y-63806028D01*
X176296993Y-63806028D02*
X176439850Y-63734600D01*
X175154135Y-63734600D02*
X175011278Y-63806028D01*
X175011278Y-63806028D02*
X174725564Y-63806028D01*
X174725564Y-63806028D02*
X174582707Y-63734600D01*
X174582707Y-63734600D02*
X174511278Y-63591742D01*
X174511278Y-63591742D02*
X174511278Y-63520314D01*
X174511278Y-63520314D02*
X174582707Y-63377457D01*
X174582707Y-63377457D02*
X174725564Y-63306028D01*
X174725564Y-63306028D02*
X174939850Y-63306028D01*
X174939850Y-63306028D02*
X175082707Y-63234600D01*
X175082707Y-63234600D02*
X175154135Y-63091742D01*
X175154135Y-63091742D02*
X175154135Y-63020314D01*
X175154135Y-63020314D02*
X175082707Y-62877457D01*
X175082707Y-62877457D02*
X174939850Y-62806028D01*
X174939850Y-62806028D02*
X174725564Y-62806028D01*
X174725564Y-62806028D02*
X174582707Y-62877457D01*
X173868421Y-63663171D02*
X173796992Y-63734600D01*
X173796992Y-63734600D02*
X173868421Y-63806028D01*
X173868421Y-63806028D02*
X173939849Y-63734600D01*
X173939849Y-63734600D02*
X173868421Y-63663171D01*
X173868421Y-63663171D02*
X173868421Y-63806028D01*
X173868421Y-62877457D02*
X173796992Y-62948885D01*
X173796992Y-62948885D02*
X173868421Y-63020314D01*
X173868421Y-63020314D02*
X173939849Y-62948885D01*
X173939849Y-62948885D02*
X173868421Y-62877457D01*
X173868421Y-62877457D02*
X173868421Y-63020314D01*
X172082706Y-62234600D02*
X173368420Y-64163171D01*
X170511277Y-62234600D02*
X171796991Y-64163171D01*
X169368420Y-62806028D02*
X169368420Y-64020314D01*
X169368420Y-64020314D02*
X169439848Y-64163171D01*
X169439848Y-64163171D02*
X169511277Y-64234600D01*
X169511277Y-64234600D02*
X169654134Y-64306028D01*
X169654134Y-64306028D02*
X169868420Y-64306028D01*
X169868420Y-64306028D02*
X170011277Y-64234600D01*
X169368420Y-63734600D02*
X169511277Y-63806028D01*
X169511277Y-63806028D02*
X169796991Y-63806028D01*
X169796991Y-63806028D02*
X169939848Y-63734600D01*
X169939848Y-63734600D02*
X170011277Y-63663171D01*
X170011277Y-63663171D02*
X170082705Y-63520314D01*
X170082705Y-63520314D02*
X170082705Y-63091742D01*
X170082705Y-63091742D02*
X170011277Y-62948885D01*
X170011277Y-62948885D02*
X169939848Y-62877457D01*
X169939848Y-62877457D02*
X169796991Y-62806028D01*
X169796991Y-62806028D02*
X169511277Y-62806028D01*
X169511277Y-62806028D02*
X169368420Y-62877457D01*
X168654134Y-63806028D02*
X168654134Y-62806028D01*
X168654134Y-62306028D02*
X168725562Y-62377457D01*
X168725562Y-62377457D02*
X168654134Y-62448885D01*
X168654134Y-62448885D02*
X168582705Y-62377457D01*
X168582705Y-62377457D02*
X168654134Y-62306028D01*
X168654134Y-62306028D02*
X168654134Y-62448885D01*
X168154133Y-62806028D02*
X167582705Y-62806028D01*
X167939848Y-62306028D02*
X167939848Y-63591742D01*
X167939848Y-63591742D02*
X167868419Y-63734600D01*
X167868419Y-63734600D02*
X167725562Y-63806028D01*
X167725562Y-63806028D02*
X167582705Y-63806028D01*
X167082705Y-63806028D02*
X167082705Y-62306028D01*
X166439848Y-63806028D02*
X166439848Y-63020314D01*
X166439848Y-63020314D02*
X166511276Y-62877457D01*
X166511276Y-62877457D02*
X166654133Y-62806028D01*
X166654133Y-62806028D02*
X166868419Y-62806028D01*
X166868419Y-62806028D02*
X167011276Y-62877457D01*
X167011276Y-62877457D02*
X167082705Y-62948885D01*
X165082705Y-62806028D02*
X165082705Y-63806028D01*
X165725562Y-62806028D02*
X165725562Y-63591742D01*
X165725562Y-63591742D02*
X165654133Y-63734600D01*
X165654133Y-63734600D02*
X165511276Y-63806028D01*
X165511276Y-63806028D02*
X165296990Y-63806028D01*
X165296990Y-63806028D02*
X165154133Y-63734600D01*
X165154133Y-63734600D02*
X165082705Y-63663171D01*
X164368419Y-63806028D02*
X164368419Y-62306028D01*
X164368419Y-62877457D02*
X164225562Y-62806028D01*
X164225562Y-62806028D02*
X163939847Y-62806028D01*
X163939847Y-62806028D02*
X163796990Y-62877457D01*
X163796990Y-62877457D02*
X163725562Y-62948885D01*
X163725562Y-62948885D02*
X163654133Y-63091742D01*
X163654133Y-63091742D02*
X163654133Y-63520314D01*
X163654133Y-63520314D02*
X163725562Y-63663171D01*
X163725562Y-63663171D02*
X163796990Y-63734600D01*
X163796990Y-63734600D02*
X163939847Y-63806028D01*
X163939847Y-63806028D02*
X164225562Y-63806028D01*
X164225562Y-63806028D02*
X164368419Y-63734600D01*
X163011276Y-63663171D02*
X162939847Y-63734600D01*
X162939847Y-63734600D02*
X163011276Y-63806028D01*
X163011276Y-63806028D02*
X163082704Y-63734600D01*
X163082704Y-63734600D02*
X163011276Y-63663171D01*
X163011276Y-63663171D02*
X163011276Y-63806028D01*
X161654133Y-63734600D02*
X161796990Y-63806028D01*
X161796990Y-63806028D02*
X162082704Y-63806028D01*
X162082704Y-63806028D02*
X162225561Y-63734600D01*
X162225561Y-63734600D02*
X162296990Y-63663171D01*
X162296990Y-63663171D02*
X162368418Y-63520314D01*
X162368418Y-63520314D02*
X162368418Y-63091742D01*
X162368418Y-63091742D02*
X162296990Y-62948885D01*
X162296990Y-62948885D02*
X162225561Y-62877457D01*
X162225561Y-62877457D02*
X162082704Y-62806028D01*
X162082704Y-62806028D02*
X161796990Y-62806028D01*
X161796990Y-62806028D02*
X161654133Y-62877457D01*
X160796990Y-63806028D02*
X160939847Y-63734600D01*
X160939847Y-63734600D02*
X161011276Y-63663171D01*
X161011276Y-63663171D02*
X161082704Y-63520314D01*
X161082704Y-63520314D02*
X161082704Y-63091742D01*
X161082704Y-63091742D02*
X161011276Y-62948885D01*
X161011276Y-62948885D02*
X160939847Y-62877457D01*
X160939847Y-62877457D02*
X160796990Y-62806028D01*
X160796990Y-62806028D02*
X160582704Y-62806028D01*
X160582704Y-62806028D02*
X160439847Y-62877457D01*
X160439847Y-62877457D02*
X160368419Y-62948885D01*
X160368419Y-62948885D02*
X160296990Y-63091742D01*
X160296990Y-63091742D02*
X160296990Y-63520314D01*
X160296990Y-63520314D02*
X160368419Y-63663171D01*
X160368419Y-63663171D02*
X160439847Y-63734600D01*
X160439847Y-63734600D02*
X160582704Y-63806028D01*
X160582704Y-63806028D02*
X160796990Y-63806028D01*
X159654133Y-63806028D02*
X159654133Y-62806028D01*
X159654133Y-62948885D02*
X159582704Y-62877457D01*
X159582704Y-62877457D02*
X159439847Y-62806028D01*
X159439847Y-62806028D02*
X159225561Y-62806028D01*
X159225561Y-62806028D02*
X159082704Y-62877457D01*
X159082704Y-62877457D02*
X159011276Y-63020314D01*
X159011276Y-63020314D02*
X159011276Y-63806028D01*
X159011276Y-63020314D02*
X158939847Y-62877457D01*
X158939847Y-62877457D02*
X158796990Y-62806028D01*
X158796990Y-62806028D02*
X158582704Y-62806028D01*
X158582704Y-62806028D02*
X158439847Y-62877457D01*
X158439847Y-62877457D02*
X158368418Y-63020314D01*
X158368418Y-63020314D02*
X158368418Y-63806028D01*
X156582704Y-62234600D02*
X157868418Y-64163171D01*
X155439847Y-63734600D02*
X155582704Y-63806028D01*
X155582704Y-63806028D02*
X155868418Y-63806028D01*
X155868418Y-63806028D02*
X156011275Y-63734600D01*
X156011275Y-63734600D02*
X156082704Y-63663171D01*
X156082704Y-63663171D02*
X156154132Y-63520314D01*
X156154132Y-63520314D02*
X156154132Y-63091742D01*
X156154132Y-63091742D02*
X156082704Y-62948885D01*
X156082704Y-62948885D02*
X156011275Y-62877457D01*
X156011275Y-62877457D02*
X155868418Y-62806028D01*
X155868418Y-62806028D02*
X155582704Y-62806028D01*
X155582704Y-62806028D02*
X155439847Y-62877457D01*
X154796990Y-63806028D02*
X154796990Y-62306028D01*
X154154133Y-63806028D02*
X154154133Y-63020314D01*
X154154133Y-63020314D02*
X154225561Y-62877457D01*
X154225561Y-62877457D02*
X154368418Y-62806028D01*
X154368418Y-62806028D02*
X154582704Y-62806028D01*
X154582704Y-62806028D02*
X154725561Y-62877457D01*
X154725561Y-62877457D02*
X154796990Y-62948885D01*
X152796990Y-63806028D02*
X152796990Y-63020314D01*
X152796990Y-63020314D02*
X152868418Y-62877457D01*
X152868418Y-62877457D02*
X153011275Y-62806028D01*
X153011275Y-62806028D02*
X153296990Y-62806028D01*
X153296990Y-62806028D02*
X153439847Y-62877457D01*
X152796990Y-63734600D02*
X152939847Y-63806028D01*
X152939847Y-63806028D02*
X153296990Y-63806028D01*
X153296990Y-63806028D02*
X153439847Y-63734600D01*
X153439847Y-63734600D02*
X153511275Y-63591742D01*
X153511275Y-63591742D02*
X153511275Y-63448885D01*
X153511275Y-63448885D02*
X153439847Y-63306028D01*
X153439847Y-63306028D02*
X153296990Y-63234600D01*
X153296990Y-63234600D02*
X152939847Y-63234600D01*
X152939847Y-63234600D02*
X152796990Y-63163171D01*
X151439847Y-63806028D02*
X151439847Y-62306028D01*
X151439847Y-63734600D02*
X151582704Y-63806028D01*
X151582704Y-63806028D02*
X151868418Y-63806028D01*
X151868418Y-63806028D02*
X152011275Y-63734600D01*
X152011275Y-63734600D02*
X152082704Y-63663171D01*
X152082704Y-63663171D02*
X152154132Y-63520314D01*
X152154132Y-63520314D02*
X152154132Y-63091742D01*
X152154132Y-63091742D02*
X152082704Y-62948885D01*
X152082704Y-62948885D02*
X152011275Y-62877457D01*
X152011275Y-62877457D02*
X151868418Y-62806028D01*
X151868418Y-62806028D02*
X151582704Y-62806028D01*
X151582704Y-62806028D02*
X151439847Y-62877457D01*
X150725561Y-63806028D02*
X150725561Y-62806028D01*
X150725561Y-63091742D02*
X150654132Y-62948885D01*
X150654132Y-62948885D02*
X150582704Y-62877457D01*
X150582704Y-62877457D02*
X150439846Y-62806028D01*
X150439846Y-62806028D02*
X150296989Y-62806028D01*
X148725561Y-62234600D02*
X150011275Y-64163171D01*
X147511275Y-63806028D02*
X148225561Y-63806028D01*
X148225561Y-63806028D02*
X148225561Y-62306028D01*
X147011275Y-63020314D02*
X146511275Y-63020314D01*
X146296989Y-63806028D02*
X147011275Y-63806028D01*
X147011275Y-63806028D02*
X147011275Y-62306028D01*
X147011275Y-62306028D02*
X146296989Y-62306028D01*
X145654132Y-63806028D02*
X145654132Y-62306028D01*
X145654132Y-62306028D02*
X145296989Y-62306028D01*
X145296989Y-62306028D02*
X145082703Y-62377457D01*
X145082703Y-62377457D02*
X144939846Y-62520314D01*
X144939846Y-62520314D02*
X144868417Y-62663171D01*
X144868417Y-62663171D02*
X144796989Y-62948885D01*
X144796989Y-62948885D02*
X144796989Y-63163171D01*
X144796989Y-63163171D02*
X144868417Y-63448885D01*
X144868417Y-63448885D02*
X144939846Y-63591742D01*
X144939846Y-63591742D02*
X145082703Y-63734600D01*
X145082703Y-63734600D02*
X145296989Y-63806028D01*
X145296989Y-63806028D02*
X145654132Y-63806028D01*
X144154132Y-63234600D02*
X143011275Y-63234600D01*
X142511274Y-62306028D02*
X141654132Y-62306028D01*
X142082703Y-63806028D02*
X142082703Y-62306028D01*
X140582703Y-63734600D02*
X140725560Y-63806028D01*
X140725560Y-63806028D02*
X141011275Y-63806028D01*
X141011275Y-63806028D02*
X141154132Y-63734600D01*
X141154132Y-63734600D02*
X141225560Y-63591742D01*
X141225560Y-63591742D02*
X141225560Y-63020314D01*
X141225560Y-63020314D02*
X141154132Y-62877457D01*
X141154132Y-62877457D02*
X141011275Y-62806028D01*
X141011275Y-62806028D02*
X140725560Y-62806028D01*
X140725560Y-62806028D02*
X140582703Y-62877457D01*
X140582703Y-62877457D02*
X140511275Y-63020314D01*
X140511275Y-63020314D02*
X140511275Y-63163171D01*
X140511275Y-63163171D02*
X141225560Y-63306028D01*
X139939846Y-63734600D02*
X139796989Y-63806028D01*
X139796989Y-63806028D02*
X139511275Y-63806028D01*
X139511275Y-63806028D02*
X139368418Y-63734600D01*
X139368418Y-63734600D02*
X139296989Y-63591742D01*
X139296989Y-63591742D02*
X139296989Y-63520314D01*
X139296989Y-63520314D02*
X139368418Y-63377457D01*
X139368418Y-63377457D02*
X139511275Y-63306028D01*
X139511275Y-63306028D02*
X139725561Y-63306028D01*
X139725561Y-63306028D02*
X139868418Y-63234600D01*
X139868418Y-63234600D02*
X139939846Y-63091742D01*
X139939846Y-63091742D02*
X139939846Y-63020314D01*
X139939846Y-63020314D02*
X139868418Y-62877457D01*
X139868418Y-62877457D02*
X139725561Y-62806028D01*
X139725561Y-62806028D02*
X139511275Y-62806028D01*
X139511275Y-62806028D02*
X139368418Y-62877457D01*
X138868417Y-62806028D02*
X138296989Y-62806028D01*
X138654132Y-62306028D02*
X138654132Y-63591742D01*
X138654132Y-63591742D02*
X138582703Y-63734600D01*
X138582703Y-63734600D02*
X138439846Y-63806028D01*
X138439846Y-63806028D02*
X138296989Y-63806028D01*
X137225560Y-63734600D02*
X137368417Y-63806028D01*
X137368417Y-63806028D02*
X137654132Y-63806028D01*
X137654132Y-63806028D02*
X137796989Y-63734600D01*
X137796989Y-63734600D02*
X137868417Y-63591742D01*
X137868417Y-63591742D02*
X137868417Y-63020314D01*
X137868417Y-63020314D02*
X137796989Y-62877457D01*
X137796989Y-62877457D02*
X137654132Y-62806028D01*
X137654132Y-62806028D02*
X137368417Y-62806028D01*
X137368417Y-62806028D02*
X137225560Y-62877457D01*
X137225560Y-62877457D02*
X137154132Y-63020314D01*
X137154132Y-63020314D02*
X137154132Y-63163171D01*
X137154132Y-63163171D02*
X137868417Y-63306028D01*
X136511275Y-63806028D02*
X136511275Y-62806028D01*
X136511275Y-63091742D02*
X136439846Y-62948885D01*
X136439846Y-62948885D02*
X136368418Y-62877457D01*
X136368418Y-62877457D02*
X136225560Y-62806028D01*
X136225560Y-62806028D02*
X136082703Y-62806028D01*
%TO.C,Logo1*%
D11*
X95468785Y-83928933D02*
X95520458Y-83960469D01*
X95573998Y-84003823D01*
X95573998Y-85304516D01*
X95520458Y-85347870D01*
X95457457Y-85382975D01*
X95385537Y-85384654D01*
X95322379Y-85343485D01*
X95314592Y-85334113D01*
X95303611Y-85315093D01*
X95295159Y-85287608D01*
X95288908Y-85246386D01*
X95284529Y-85186159D01*
X95281695Y-85101655D01*
X95280077Y-84987604D01*
X95279347Y-84838738D01*
X95279176Y-84649785D01*
X95279176Y-84003823D01*
X95332715Y-83960469D01*
X95380353Y-83930797D01*
X95426587Y-83917116D01*
X95468785Y-83928933D01*
G36*
X95468785Y-83928933D02*
G01*
X95520458Y-83960469D01*
X95573998Y-84003823D01*
X95573998Y-85304516D01*
X95520458Y-85347870D01*
X95457457Y-85382975D01*
X95385537Y-85384654D01*
X95322379Y-85343485D01*
X95314592Y-85334113D01*
X95303611Y-85315093D01*
X95295159Y-85287608D01*
X95288908Y-85246386D01*
X95284529Y-85186159D01*
X95281695Y-85101655D01*
X95280077Y-84987604D01*
X95279347Y-84838738D01*
X95279176Y-84649785D01*
X95279176Y-84003823D01*
X95332715Y-83960469D01*
X95380353Y-83930797D01*
X95426587Y-83917116D01*
X95468785Y-83928933D01*
G37*
X109793914Y-83925948D02*
X109862528Y-83972781D01*
X109918194Y-84028447D01*
X109918194Y-84657346D01*
X109918112Y-84826157D01*
X109917592Y-84975263D01*
X109916245Y-85089274D01*
X109913678Y-85173591D01*
X109909502Y-85233612D01*
X109903325Y-85274738D01*
X109894757Y-85302367D01*
X109883407Y-85321900D01*
X109868884Y-85338734D01*
X109805676Y-85381854D01*
X109735031Y-85385403D01*
X109668730Y-85345866D01*
X109658069Y-85334076D01*
X109647121Y-85315827D01*
X109638752Y-85289025D01*
X109632616Y-85248413D01*
X109628369Y-85188732D01*
X109625666Y-85104724D01*
X109624162Y-84991133D01*
X109623513Y-84842701D01*
X109623373Y-84654169D01*
X109623452Y-84502171D01*
X109623964Y-84345657D01*
X109625258Y-84225101D01*
X109627677Y-84135247D01*
X109631567Y-84070836D01*
X109637273Y-84026611D01*
X109645139Y-83997314D01*
X109655509Y-83977687D01*
X109668730Y-83962473D01*
X109727357Y-83924261D01*
X109793914Y-83925948D01*
G36*
X109793914Y-83925948D02*
G01*
X109862528Y-83972781D01*
X109918194Y-84028447D01*
X109918194Y-84657346D01*
X109918112Y-84826157D01*
X109917592Y-84975263D01*
X109916245Y-85089274D01*
X109913678Y-85173591D01*
X109909502Y-85233612D01*
X109903325Y-85274738D01*
X109894757Y-85302367D01*
X109883407Y-85321900D01*
X109868884Y-85338734D01*
X109805676Y-85381854D01*
X109735031Y-85385403D01*
X109668730Y-85345866D01*
X109658069Y-85334076D01*
X109647121Y-85315827D01*
X109638752Y-85289025D01*
X109632616Y-85248413D01*
X109628369Y-85188732D01*
X109625666Y-85104724D01*
X109624162Y-84991133D01*
X109623513Y-84842701D01*
X109623373Y-84654169D01*
X109623452Y-84502171D01*
X109623964Y-84345657D01*
X109625258Y-84225101D01*
X109627677Y-84135247D01*
X109631567Y-84070836D01*
X109637273Y-84026611D01*
X109645139Y-83997314D01*
X109655509Y-83977687D01*
X109668730Y-83962473D01*
X109727357Y-83924261D01*
X109793914Y-83925948D01*
G37*
X109850400Y-71085134D02*
X110060313Y-71136566D01*
X110259287Y-71228876D01*
X110441052Y-71362080D01*
X110599338Y-71536190D01*
X110727873Y-71751223D01*
X110762333Y-71826974D01*
X110790250Y-71903753D01*
X110805914Y-71980509D01*
X110812780Y-72075448D01*
X110814302Y-72206774D01*
X110813382Y-72316080D01*
X110807839Y-72416535D01*
X110794249Y-72494910D01*
X110769217Y-72569205D01*
X110729352Y-72657419D01*
X110717820Y-72680927D01*
X110581515Y-72896183D01*
X110410081Y-73073290D01*
X110208385Y-73208091D01*
X109981291Y-73296430D01*
X109864767Y-73321082D01*
X109628375Y-73332617D01*
X109399414Y-73295292D01*
X109184598Y-73212933D01*
X108990642Y-73089367D01*
X108824258Y-72928422D01*
X108692162Y-72733924D01*
X108601067Y-72509699D01*
X108567738Y-72326205D01*
X108564735Y-72123711D01*
X108591842Y-71926743D01*
X108647768Y-71756129D01*
X108712387Y-71634151D01*
X108856243Y-71440625D01*
X109026785Y-71287889D01*
X109217742Y-71175957D01*
X109422844Y-71104844D01*
X109635821Y-71074565D01*
X109850400Y-71085134D01*
G36*
X109850400Y-71085134D02*
G01*
X110060313Y-71136566D01*
X110259287Y-71228876D01*
X110441052Y-71362080D01*
X110599338Y-71536190D01*
X110727873Y-71751223D01*
X110762333Y-71826974D01*
X110790250Y-71903753D01*
X110805914Y-71980509D01*
X110812780Y-72075448D01*
X110814302Y-72206774D01*
X110813382Y-72316080D01*
X110807839Y-72416535D01*
X110794249Y-72494910D01*
X110769217Y-72569205D01*
X110729352Y-72657419D01*
X110717820Y-72680927D01*
X110581515Y-72896183D01*
X110410081Y-73073290D01*
X110208385Y-73208091D01*
X109981291Y-73296430D01*
X109864767Y-73321082D01*
X109628375Y-73332617D01*
X109399414Y-73295292D01*
X109184598Y-73212933D01*
X108990642Y-73089367D01*
X108824258Y-72928422D01*
X108692162Y-72733924D01*
X108601067Y-72509699D01*
X108567738Y-72326205D01*
X108564735Y-72123711D01*
X108591842Y-71926743D01*
X108647768Y-71756129D01*
X108712387Y-71634151D01*
X108856243Y-71440625D01*
X109026785Y-71287889D01*
X109217742Y-71175957D01*
X109422844Y-71104844D01*
X109635821Y-71074565D01*
X109850400Y-71085134D01*
G37*
X94063262Y-83917119D02*
X94252348Y-83917299D01*
X94402042Y-83917982D01*
X94517368Y-83919472D01*
X94603350Y-83922074D01*
X94665010Y-83926095D01*
X94707372Y-83931840D01*
X94735460Y-83939615D01*
X94754298Y-83949724D01*
X94768908Y-83962473D01*
X94806688Y-84028200D01*
X94809594Y-84103690D01*
X94776733Y-84170464D01*
X94774000Y-84173384D01*
X94751494Y-84190179D01*
X94717137Y-84201339D01*
X94662555Y-84207956D01*
X94579378Y-84211124D01*
X94459233Y-84211937D01*
X94179265Y-84211937D01*
X94179265Y-84741825D01*
X94179114Y-84894158D01*
X94178294Y-85028086D01*
X94176321Y-85128098D01*
X94172713Y-85200253D01*
X94166986Y-85250609D01*
X94158657Y-85285225D01*
X94147243Y-85310158D01*
X94132262Y-85331468D01*
X94127660Y-85337105D01*
X94065026Y-85382592D01*
X93995961Y-85385734D01*
X93929801Y-85345866D01*
X93915782Y-85329642D01*
X93904789Y-85308351D01*
X93896713Y-85276523D01*
X93891106Y-85228356D01*
X93887522Y-85158045D01*
X93885514Y-85059789D01*
X93884637Y-84927782D01*
X93884444Y-84756223D01*
X93884444Y-84211937D01*
X93591269Y-84211937D01*
X93568970Y-84211935D01*
X93455430Y-84211483D01*
X93377394Y-84209195D01*
X93326383Y-84203570D01*
X93293915Y-84193110D01*
X93271512Y-84176312D01*
X93250693Y-84151677D01*
X93218857Y-84090028D01*
X93225089Y-84022165D01*
X93276606Y-83956803D01*
X93286532Y-83949335D01*
X93307043Y-83939620D01*
X93338032Y-83932060D01*
X93384481Y-83926390D01*
X93451374Y-83922345D01*
X93543692Y-83919660D01*
X93666419Y-83918070D01*
X93824537Y-83917310D01*
X94023028Y-83917116D01*
X94063262Y-83917119D01*
G36*
X94063262Y-83917119D02*
G01*
X94252348Y-83917299D01*
X94402042Y-83917982D01*
X94517368Y-83919472D01*
X94603350Y-83922074D01*
X94665010Y-83926095D01*
X94707372Y-83931840D01*
X94735460Y-83939615D01*
X94754298Y-83949724D01*
X94768908Y-83962473D01*
X94806688Y-84028200D01*
X94809594Y-84103690D01*
X94776733Y-84170464D01*
X94774000Y-84173384D01*
X94751494Y-84190179D01*
X94717137Y-84201339D01*
X94662555Y-84207956D01*
X94579378Y-84211124D01*
X94459233Y-84211937D01*
X94179265Y-84211937D01*
X94179265Y-84741825D01*
X94179114Y-84894158D01*
X94178294Y-85028086D01*
X94176321Y-85128098D01*
X94172713Y-85200253D01*
X94166986Y-85250609D01*
X94158657Y-85285225D01*
X94147243Y-85310158D01*
X94132262Y-85331468D01*
X94127660Y-85337105D01*
X94065026Y-85382592D01*
X93995961Y-85385734D01*
X93929801Y-85345866D01*
X93915782Y-85329642D01*
X93904789Y-85308351D01*
X93896713Y-85276523D01*
X93891106Y-85228356D01*
X93887522Y-85158045D01*
X93885514Y-85059789D01*
X93884637Y-84927782D01*
X93884444Y-84756223D01*
X93884444Y-84211937D01*
X93591269Y-84211937D01*
X93568970Y-84211935D01*
X93455430Y-84211483D01*
X93377394Y-84209195D01*
X93326383Y-84203570D01*
X93293915Y-84193110D01*
X93271512Y-84176312D01*
X93250693Y-84151677D01*
X93218857Y-84090028D01*
X93225089Y-84022165D01*
X93276606Y-83956803D01*
X93286532Y-83949335D01*
X93307043Y-83939620D01*
X93338032Y-83932060D01*
X93384481Y-83926390D01*
X93451374Y-83922345D01*
X93543692Y-83919660D01*
X93666419Y-83918070D01*
X93824537Y-83917310D01*
X94023028Y-83917116D01*
X94063262Y-83917119D01*
G37*
X92705158Y-83962473D02*
X92716473Y-83974909D01*
X92726700Y-83991393D01*
X92734909Y-84015052D01*
X92741293Y-84050126D01*
X92746047Y-84100859D01*
X92749363Y-84171493D01*
X92751435Y-84266271D01*
X92752456Y-84389435D01*
X92752619Y-84545228D01*
X92752118Y-84737892D01*
X92751146Y-84971669D01*
X92751009Y-85000146D01*
X92749831Y-85124222D01*
X92747175Y-85211978D01*
X92742061Y-85271001D01*
X92733512Y-85308877D01*
X92720552Y-85333193D01*
X92702201Y-85351535D01*
X92634988Y-85386525D01*
X92564779Y-85380696D01*
X92502697Y-85331468D01*
X92484598Y-85304944D01*
X92469629Y-85267708D01*
X92460854Y-85215418D01*
X92456726Y-85137982D01*
X92455694Y-85025307D01*
X92455694Y-84778902D01*
X91457837Y-84778902D01*
X91457837Y-85049758D01*
X91457690Y-85121660D01*
X91456158Y-85214733D01*
X91451786Y-85276075D01*
X91443154Y-85314305D01*
X91428843Y-85338046D01*
X91407434Y-85355919D01*
X91342643Y-85386193D01*
X91271755Y-85380835D01*
X91210019Y-85331468D01*
X91200666Y-85318903D01*
X91188742Y-85297760D01*
X91179639Y-85269777D01*
X91172978Y-85229449D01*
X91168380Y-85171276D01*
X91165463Y-85089755D01*
X91163850Y-84979383D01*
X91163161Y-84834659D01*
X91163015Y-84650080D01*
X91163015Y-84028447D01*
X91218681Y-83972781D01*
X91281718Y-83928097D01*
X91348473Y-83922694D01*
X91412480Y-83962473D01*
X91429125Y-83982101D01*
X91444015Y-84014027D01*
X91452729Y-84062176D01*
X91456819Y-84136251D01*
X91457837Y-84245955D01*
X91457837Y-84484080D01*
X92455694Y-84484080D01*
X92455694Y-84256264D01*
X92455695Y-84252022D01*
X92456574Y-84148166D01*
X92460519Y-84078808D01*
X92469591Y-84033455D01*
X92485851Y-84001610D01*
X92511360Y-83972781D01*
X92574397Y-83928097D01*
X92641151Y-83922694D01*
X92705158Y-83962473D01*
G36*
X92705158Y-83962473D02*
G01*
X92716473Y-83974909D01*
X92726700Y-83991393D01*
X92734909Y-84015052D01*
X92741293Y-84050126D01*
X92746047Y-84100859D01*
X92749363Y-84171493D01*
X92751435Y-84266271D01*
X92752456Y-84389435D01*
X92752619Y-84545228D01*
X92752118Y-84737892D01*
X92751146Y-84971669D01*
X92751009Y-85000146D01*
X92749831Y-85124222D01*
X92747175Y-85211978D01*
X92742061Y-85271001D01*
X92733512Y-85308877D01*
X92720552Y-85333193D01*
X92702201Y-85351535D01*
X92634988Y-85386525D01*
X92564779Y-85380696D01*
X92502697Y-85331468D01*
X92484598Y-85304944D01*
X92469629Y-85267708D01*
X92460854Y-85215418D01*
X92456726Y-85137982D01*
X92455694Y-85025307D01*
X92455694Y-84778902D01*
X91457837Y-84778902D01*
X91457837Y-85049758D01*
X91457690Y-85121660D01*
X91456158Y-85214733D01*
X91451786Y-85276075D01*
X91443154Y-85314305D01*
X91428843Y-85338046D01*
X91407434Y-85355919D01*
X91342643Y-85386193D01*
X91271755Y-85380835D01*
X91210019Y-85331468D01*
X91200666Y-85318903D01*
X91188742Y-85297760D01*
X91179639Y-85269777D01*
X91172978Y-85229449D01*
X91168380Y-85171276D01*
X91165463Y-85089755D01*
X91163850Y-84979383D01*
X91163161Y-84834659D01*
X91163015Y-84650080D01*
X91163015Y-84028447D01*
X91218681Y-83972781D01*
X91281718Y-83928097D01*
X91348473Y-83922694D01*
X91412480Y-83962473D01*
X91429125Y-83982101D01*
X91444015Y-84014027D01*
X91452729Y-84062176D01*
X91456819Y-84136251D01*
X91457837Y-84245955D01*
X91457837Y-84484080D01*
X92455694Y-84484080D01*
X92455694Y-84256264D01*
X92455695Y-84252022D01*
X92456574Y-84148166D01*
X92460519Y-84078808D01*
X92469591Y-84033455D01*
X92485851Y-84001610D01*
X92511360Y-83972781D01*
X92574397Y-83928097D01*
X92641151Y-83922694D01*
X92705158Y-83962473D01*
G37*
X102157969Y-85145233D02*
X102154013Y-85211082D01*
X102148129Y-85257129D01*
X102139939Y-85288873D01*
X102129062Y-85311819D01*
X102115119Y-85331468D01*
X102068116Y-85391223D01*
X101735253Y-85390030D01*
X101665351Y-85389431D01*
X101467505Y-85382539D01*
X101304859Y-85367106D01*
X101170071Y-85341879D01*
X101055796Y-85305608D01*
X100954693Y-85257042D01*
X100947946Y-85253191D01*
X100831806Y-85179427D01*
X100746720Y-85105165D01*
X100680794Y-85017806D01*
X100622134Y-84904749D01*
X100613532Y-84885433D01*
X100568175Y-84758497D01*
X100556655Y-84666980D01*
X100856478Y-84666980D01*
X100867753Y-84716658D01*
X100879257Y-84748555D01*
X100945410Y-84868907D01*
X101040510Y-84960822D01*
X101168610Y-85027388D01*
X101333762Y-85071694D01*
X101339375Y-85072703D01*
X101432359Y-85084681D01*
X101545655Y-85093174D01*
X101656020Y-85096402D01*
X101844623Y-85096402D01*
X101844623Y-84211937D01*
X101668864Y-84212837D01*
X101534427Y-84217812D01*
X101348806Y-84240415D01*
X101189468Y-84279668D01*
X101064965Y-84333857D01*
X101002809Y-84375499D01*
X100946318Y-84435297D01*
X100899431Y-84520532D01*
X100885113Y-84552607D01*
X100861360Y-84617900D01*
X100856478Y-84666980D01*
X100556655Y-84666980D01*
X100554171Y-84647246D01*
X100571451Y-84536702D01*
X100619950Y-84411883D01*
X100621549Y-84408482D01*
X100702813Y-84269019D01*
X100804634Y-84155316D01*
X100930645Y-84065783D01*
X101084481Y-83998828D01*
X101269774Y-83952863D01*
X101490159Y-83926295D01*
X101749270Y-83917534D01*
X101756445Y-83917524D01*
X101877022Y-83917805D01*
X101961257Y-83919887D01*
X102017736Y-83925098D01*
X102055039Y-83934766D01*
X102081752Y-83950218D01*
X102106457Y-83972781D01*
X102162123Y-84028447D01*
X102162123Y-84650080D01*
X102162072Y-84773841D01*
X102161619Y-84932115D01*
X102160378Y-85054078D01*
X102159259Y-85096402D01*
X102157969Y-85145233D01*
G36*
X102157969Y-85145233D02*
G01*
X102154013Y-85211082D01*
X102148129Y-85257129D01*
X102139939Y-85288873D01*
X102129062Y-85311819D01*
X102115119Y-85331468D01*
X102068116Y-85391223D01*
X101735253Y-85390030D01*
X101665351Y-85389431D01*
X101467505Y-85382539D01*
X101304859Y-85367106D01*
X101170071Y-85341879D01*
X101055796Y-85305608D01*
X100954693Y-85257042D01*
X100947946Y-85253191D01*
X100831806Y-85179427D01*
X100746720Y-85105165D01*
X100680794Y-85017806D01*
X100622134Y-84904749D01*
X100613532Y-84885433D01*
X100568175Y-84758497D01*
X100556655Y-84666980D01*
X100856478Y-84666980D01*
X100867753Y-84716658D01*
X100879257Y-84748555D01*
X100945410Y-84868907D01*
X101040510Y-84960822D01*
X101168610Y-85027388D01*
X101333762Y-85071694D01*
X101339375Y-85072703D01*
X101432359Y-85084681D01*
X101545655Y-85093174D01*
X101656020Y-85096402D01*
X101844623Y-85096402D01*
X101844623Y-84211937D01*
X101668864Y-84212837D01*
X101534427Y-84217812D01*
X101348806Y-84240415D01*
X101189468Y-84279668D01*
X101064965Y-84333857D01*
X101002809Y-84375499D01*
X100946318Y-84435297D01*
X100899431Y-84520532D01*
X100885113Y-84552607D01*
X100861360Y-84617900D01*
X100856478Y-84666980D01*
X100556655Y-84666980D01*
X100554171Y-84647246D01*
X100571451Y-84536702D01*
X100619950Y-84411883D01*
X100621549Y-84408482D01*
X100702813Y-84269019D01*
X100804634Y-84155316D01*
X100930645Y-84065783D01*
X101084481Y-83998828D01*
X101269774Y-83952863D01*
X101490159Y-83926295D01*
X101749270Y-83917534D01*
X101756445Y-83917524D01*
X101877022Y-83917805D01*
X101961257Y-83919887D01*
X102017736Y-83925098D01*
X102055039Y-83934766D01*
X102081752Y-83950218D01*
X102106457Y-83972781D01*
X102162123Y-84028447D01*
X102162123Y-84650080D01*
X102162072Y-84773841D01*
X102161619Y-84932115D01*
X102160378Y-85054078D01*
X102159259Y-85096402D01*
X102157969Y-85145233D01*
G37*
X116404657Y-84289491D02*
X116404765Y-84451440D01*
X116404265Y-84654169D01*
X116404186Y-84806167D01*
X116403674Y-84962682D01*
X116402380Y-85083237D01*
X116399961Y-85173092D01*
X116396071Y-85237503D01*
X116390365Y-85281728D01*
X116382500Y-85311025D01*
X116372129Y-85330652D01*
X116358908Y-85345866D01*
X116344912Y-85358389D01*
X116318800Y-85373055D01*
X116280333Y-85382604D01*
X116221262Y-85388104D01*
X116133340Y-85390621D01*
X116008317Y-85391223D01*
X115909987Y-85390469D01*
X115695314Y-85381572D01*
X115516062Y-85361307D01*
X115365798Y-85327983D01*
X115238088Y-85279909D01*
X115126499Y-85215394D01*
X115024597Y-85132750D01*
X115012567Y-85120992D01*
X114938504Y-85023542D01*
X114876027Y-84901382D01*
X114832870Y-84772322D01*
X114822261Y-84694489D01*
X115118010Y-84694489D01*
X115154737Y-84796814D01*
X115214343Y-84889058D01*
X115308154Y-84974256D01*
X115431480Y-85034127D01*
X115590480Y-85072569D01*
X115593473Y-85073048D01*
X115691852Y-85084683D01*
X115809764Y-85093001D01*
X115922346Y-85096230D01*
X116109444Y-85096402D01*
X116109444Y-84211937D01*
X115956364Y-84211908D01*
X115950281Y-84211927D01*
X115847585Y-84215873D01*
X115726843Y-84225366D01*
X115612919Y-84238481D01*
X115512557Y-84257156D01*
X115362386Y-84309927D01*
X115246854Y-84388876D01*
X115163482Y-84495419D01*
X115120858Y-84598409D01*
X115118010Y-84694489D01*
X114822261Y-84694489D01*
X114816765Y-84654169D01*
X114819335Y-84611547D01*
X114844069Y-84496203D01*
X114889328Y-84375846D01*
X114948049Y-84267265D01*
X115013171Y-84187248D01*
X115052429Y-84153050D01*
X115162341Y-84074325D01*
X115283486Y-84013797D01*
X115422496Y-83969680D01*
X115586006Y-83940185D01*
X115780649Y-83923528D01*
X116013060Y-83917920D01*
X116092377Y-83917114D01*
X116184207Y-83916284D01*
X116256128Y-83919909D01*
X116310551Y-83932529D01*
X116349890Y-83958686D01*
X116376558Y-84002920D01*
X116392966Y-84069771D01*
X116401529Y-84163782D01*
X116402728Y-84211937D01*
X116404657Y-84289491D01*
G36*
X116404657Y-84289491D02*
G01*
X116404765Y-84451440D01*
X116404265Y-84654169D01*
X116404186Y-84806167D01*
X116403674Y-84962682D01*
X116402380Y-85083237D01*
X116399961Y-85173092D01*
X116396071Y-85237503D01*
X116390365Y-85281728D01*
X116382500Y-85311025D01*
X116372129Y-85330652D01*
X116358908Y-85345866D01*
X116344912Y-85358389D01*
X116318800Y-85373055D01*
X116280333Y-85382604D01*
X116221262Y-85388104D01*
X116133340Y-85390621D01*
X116008317Y-85391223D01*
X115909987Y-85390469D01*
X115695314Y-85381572D01*
X115516062Y-85361307D01*
X115365798Y-85327983D01*
X115238088Y-85279909D01*
X115126499Y-85215394D01*
X115024597Y-85132750D01*
X115012567Y-85120992D01*
X114938504Y-85023542D01*
X114876027Y-84901382D01*
X114832870Y-84772322D01*
X114822261Y-84694489D01*
X115118010Y-84694489D01*
X115154737Y-84796814D01*
X115214343Y-84889058D01*
X115308154Y-84974256D01*
X115431480Y-85034127D01*
X115590480Y-85072569D01*
X115593473Y-85073048D01*
X115691852Y-85084683D01*
X115809764Y-85093001D01*
X115922346Y-85096230D01*
X116109444Y-85096402D01*
X116109444Y-84211937D01*
X115956364Y-84211908D01*
X115950281Y-84211927D01*
X115847585Y-84215873D01*
X115726843Y-84225366D01*
X115612919Y-84238481D01*
X115512557Y-84257156D01*
X115362386Y-84309927D01*
X115246854Y-84388876D01*
X115163482Y-84495419D01*
X115120858Y-84598409D01*
X115118010Y-84694489D01*
X114822261Y-84694489D01*
X114816765Y-84654169D01*
X114819335Y-84611547D01*
X114844069Y-84496203D01*
X114889328Y-84375846D01*
X114948049Y-84267265D01*
X115013171Y-84187248D01*
X115052429Y-84153050D01*
X115162341Y-84074325D01*
X115283486Y-84013797D01*
X115422496Y-83969680D01*
X115586006Y-83940185D01*
X115780649Y-83923528D01*
X116013060Y-83917920D01*
X116092377Y-83917114D01*
X116184207Y-83916284D01*
X116256128Y-83919909D01*
X116310551Y-83932529D01*
X116349890Y-83958686D01*
X116376558Y-84002920D01*
X116392966Y-84069771D01*
X116401529Y-84163782D01*
X116402728Y-84211937D01*
X116404657Y-84289491D01*
G37*
X106470658Y-83914755D02*
X106493575Y-83927085D01*
X106514766Y-83948503D01*
X106537441Y-83976871D01*
X106546386Y-83988846D01*
X106558437Y-84009930D01*
X106567637Y-84037704D01*
X106574369Y-84077691D01*
X106579019Y-84135416D01*
X106581967Y-84216403D01*
X106583599Y-84326175D01*
X106584297Y-84470256D01*
X106584444Y-84654169D01*
X106584398Y-84771752D01*
X106583959Y-84930634D01*
X106582736Y-85053062D01*
X106580344Y-85144563D01*
X106576400Y-85210658D01*
X106570521Y-85256872D01*
X106562324Y-85288729D01*
X106551425Y-85311753D01*
X106537441Y-85331468D01*
X106476312Y-85380472D01*
X106406114Y-85386257D01*
X106331823Y-85347906D01*
X106323417Y-85340924D01*
X106306992Y-85323793D01*
X106294817Y-85300588D01*
X106286013Y-85264764D01*
X106279701Y-85209775D01*
X106275005Y-85129077D01*
X106271045Y-85016124D01*
X106266944Y-84864370D01*
X106255605Y-84424152D01*
X105722658Y-84907582D01*
X105574331Y-85041731D01*
X105443390Y-85158482D01*
X105338535Y-85248799D01*
X105256020Y-85314937D01*
X105192098Y-85359149D01*
X105143023Y-85383688D01*
X105105050Y-85390811D01*
X105074433Y-85382769D01*
X105047424Y-85361818D01*
X105020280Y-85330211D01*
X105007733Y-85313168D01*
X104996420Y-85291919D01*
X104987960Y-85263476D01*
X104982030Y-85222389D01*
X104978303Y-85163205D01*
X104976457Y-85080474D01*
X104976165Y-84968744D01*
X104977103Y-84822564D01*
X104978946Y-84636482D01*
X104985605Y-84003765D01*
X105039144Y-83960440D01*
X105091507Y-83927913D01*
X105157517Y-83922346D01*
X105226887Y-83960421D01*
X105235549Y-83967622D01*
X105251886Y-83984758D01*
X105263998Y-84008045D01*
X105272759Y-84044016D01*
X105279042Y-84099203D01*
X105283722Y-84180140D01*
X105287671Y-84293357D01*
X105291765Y-84445388D01*
X105303105Y-84887050D01*
X105665962Y-84557999D01*
X105840212Y-84400030D01*
X105992432Y-84262633D01*
X106117260Y-84151440D01*
X106217903Y-84064312D01*
X106297572Y-83999108D01*
X106359473Y-83953690D01*
X106406815Y-83925918D01*
X106442808Y-83913653D01*
X106470658Y-83914755D01*
G36*
X106470658Y-83914755D02*
G01*
X106493575Y-83927085D01*
X106514766Y-83948503D01*
X106537441Y-83976871D01*
X106546386Y-83988846D01*
X106558437Y-84009930D01*
X106567637Y-84037704D01*
X106574369Y-84077691D01*
X106579019Y-84135416D01*
X106581967Y-84216403D01*
X106583599Y-84326175D01*
X106584297Y-84470256D01*
X106584444Y-84654169D01*
X106584398Y-84771752D01*
X106583959Y-84930634D01*
X106582736Y-85053062D01*
X106580344Y-85144563D01*
X106576400Y-85210658D01*
X106570521Y-85256872D01*
X106562324Y-85288729D01*
X106551425Y-85311753D01*
X106537441Y-85331468D01*
X106476312Y-85380472D01*
X106406114Y-85386257D01*
X106331823Y-85347906D01*
X106323417Y-85340924D01*
X106306992Y-85323793D01*
X106294817Y-85300588D01*
X106286013Y-85264764D01*
X106279701Y-85209775D01*
X106275005Y-85129077D01*
X106271045Y-85016124D01*
X106266944Y-84864370D01*
X106255605Y-84424152D01*
X105722658Y-84907582D01*
X105574331Y-85041731D01*
X105443390Y-85158482D01*
X105338535Y-85248799D01*
X105256020Y-85314937D01*
X105192098Y-85359149D01*
X105143023Y-85383688D01*
X105105050Y-85390811D01*
X105074433Y-85382769D01*
X105047424Y-85361818D01*
X105020280Y-85330211D01*
X105007733Y-85313168D01*
X104996420Y-85291919D01*
X104987960Y-85263476D01*
X104982030Y-85222389D01*
X104978303Y-85163205D01*
X104976457Y-85080474D01*
X104976165Y-84968744D01*
X104977103Y-84822564D01*
X104978946Y-84636482D01*
X104985605Y-84003765D01*
X105039144Y-83960440D01*
X105091507Y-83927913D01*
X105157517Y-83922346D01*
X105226887Y-83960421D01*
X105235549Y-83967622D01*
X105251886Y-83984758D01*
X105263998Y-84008045D01*
X105272759Y-84044016D01*
X105279042Y-84099203D01*
X105283722Y-84180140D01*
X105287671Y-84293357D01*
X105291765Y-84445388D01*
X105303105Y-84887050D01*
X105665962Y-84557999D01*
X105840212Y-84400030D01*
X105992432Y-84262633D01*
X106117260Y-84151440D01*
X106217903Y-84064312D01*
X106297572Y-83999108D01*
X106359473Y-83953690D01*
X106406815Y-83925918D01*
X106442808Y-83913653D01*
X106470658Y-83914755D01*
G37*
X108072290Y-83927386D02*
X108285249Y-83960162D01*
X108473712Y-84016515D01*
X108632006Y-84094675D01*
X108754459Y-84192875D01*
X108806832Y-84258892D01*
X108866111Y-84357729D01*
X108916880Y-84465926D01*
X108952336Y-84568717D01*
X108965676Y-84651334D01*
X108962543Y-84690940D01*
X108936544Y-84794063D01*
X108890011Y-84907621D01*
X108829961Y-85015936D01*
X108763408Y-85103332D01*
X108742924Y-85124121D01*
X108608154Y-85228133D01*
X108447188Y-85308274D01*
X108273998Y-85357295D01*
X108163578Y-85373592D01*
X107975838Y-85386860D01*
X107795476Y-85382667D01*
X107629760Y-85362085D01*
X107485955Y-85326185D01*
X107371330Y-85276039D01*
X107293149Y-85212716D01*
X107290386Y-85208747D01*
X107276147Y-85158070D01*
X107267632Y-85063146D01*
X107264801Y-84923598D01*
X107266529Y-84798577D01*
X107276010Y-84703389D01*
X107299494Y-84638896D01*
X107343227Y-84599616D01*
X107413457Y-84580069D01*
X107516431Y-84574771D01*
X107658395Y-84578243D01*
X107756070Y-84584294D01*
X107856910Y-84600752D01*
X107922188Y-84628984D01*
X107957261Y-84671645D01*
X107967490Y-84731390D01*
X107967276Y-84740513D01*
X107949794Y-84810412D01*
X107901561Y-84857455D01*
X107818662Y-84883973D01*
X107697185Y-84892294D01*
X107559623Y-84892294D01*
X107559623Y-84969341D01*
X107559724Y-84987693D01*
X107564185Y-85022349D01*
X107582802Y-85043029D01*
X107625754Y-85056966D01*
X107703221Y-85071395D01*
X107714218Y-85073271D01*
X107908985Y-85093166D01*
X108089771Y-85087302D01*
X108252309Y-85057710D01*
X108392329Y-85006421D01*
X108505562Y-84935465D01*
X108587739Y-84846873D01*
X108634591Y-84742676D01*
X108641848Y-84624905D01*
X108630761Y-84566857D01*
X108577156Y-84454579D01*
X108484366Y-84362852D01*
X108353823Y-84292869D01*
X108186958Y-84245823D01*
X108137389Y-84236886D01*
X107957934Y-84215793D01*
X107797606Y-84218263D01*
X107640724Y-84244249D01*
X107570123Y-84257888D01*
X107478842Y-84259933D01*
X107415933Y-84234758D01*
X107375446Y-84180945D01*
X107362621Y-84124198D01*
X107381679Y-84061471D01*
X107400420Y-84034501D01*
X107469194Y-83987228D01*
X107574908Y-83951325D01*
X107712553Y-83928229D01*
X107877123Y-83919377D01*
X108072290Y-83927386D01*
G36*
X108072290Y-83927386D02*
G01*
X108285249Y-83960162D01*
X108473712Y-84016515D01*
X108632006Y-84094675D01*
X108754459Y-84192875D01*
X108806832Y-84258892D01*
X108866111Y-84357729D01*
X108916880Y-84465926D01*
X108952336Y-84568717D01*
X108965676Y-84651334D01*
X108962543Y-84690940D01*
X108936544Y-84794063D01*
X108890011Y-84907621D01*
X108829961Y-85015936D01*
X108763408Y-85103332D01*
X108742924Y-85124121D01*
X108608154Y-85228133D01*
X108447188Y-85308274D01*
X108273998Y-85357295D01*
X108163578Y-85373592D01*
X107975838Y-85386860D01*
X107795476Y-85382667D01*
X107629760Y-85362085D01*
X107485955Y-85326185D01*
X107371330Y-85276039D01*
X107293149Y-85212716D01*
X107290386Y-85208747D01*
X107276147Y-85158070D01*
X107267632Y-85063146D01*
X107264801Y-84923598D01*
X107266529Y-84798577D01*
X107276010Y-84703389D01*
X107299494Y-84638896D01*
X107343227Y-84599616D01*
X107413457Y-84580069D01*
X107516431Y-84574771D01*
X107658395Y-84578243D01*
X107756070Y-84584294D01*
X107856910Y-84600752D01*
X107922188Y-84628984D01*
X107957261Y-84671645D01*
X107967490Y-84731390D01*
X107967276Y-84740513D01*
X107949794Y-84810412D01*
X107901561Y-84857455D01*
X107818662Y-84883973D01*
X107697185Y-84892294D01*
X107559623Y-84892294D01*
X107559623Y-84969341D01*
X107559724Y-84987693D01*
X107564185Y-85022349D01*
X107582802Y-85043029D01*
X107625754Y-85056966D01*
X107703221Y-85071395D01*
X107714218Y-85073271D01*
X107908985Y-85093166D01*
X108089771Y-85087302D01*
X108252309Y-85057710D01*
X108392329Y-85006421D01*
X108505562Y-84935465D01*
X108587739Y-84846873D01*
X108634591Y-84742676D01*
X108641848Y-84624905D01*
X108630761Y-84566857D01*
X108577156Y-84454579D01*
X108484366Y-84362852D01*
X108353823Y-84292869D01*
X108186958Y-84245823D01*
X108137389Y-84236886D01*
X107957934Y-84215793D01*
X107797606Y-84218263D01*
X107640724Y-84244249D01*
X107570123Y-84257888D01*
X107478842Y-84259933D01*
X107415933Y-84234758D01*
X107375446Y-84180945D01*
X107362621Y-84124198D01*
X107381679Y-84061471D01*
X107400420Y-84034501D01*
X107469194Y-83987228D01*
X107574908Y-83951325D01*
X107712553Y-83928229D01*
X107877123Y-83919377D01*
X108072290Y-83927386D01*
G37*
X104156191Y-83976871D02*
X104166133Y-83990298D01*
X104177874Y-84011535D01*
X104186836Y-84039834D01*
X104193393Y-84080666D01*
X104197919Y-84139501D01*
X104200788Y-84221811D01*
X104202374Y-84333065D01*
X104203051Y-84478735D01*
X104203194Y-84664291D01*
X104203136Y-84796713D01*
X104202670Y-84954047D01*
X104201423Y-85075120D01*
X104199027Y-85165317D01*
X104195116Y-85230021D01*
X104189320Y-85274616D01*
X104181272Y-85304487D01*
X104170606Y-85325017D01*
X104156953Y-85341589D01*
X104147883Y-85350946D01*
X104131350Y-85363977D01*
X104108529Y-85373844D01*
X104073839Y-85380986D01*
X104021697Y-85385844D01*
X103946524Y-85388857D01*
X103842738Y-85390465D01*
X103704756Y-85391107D01*
X103527000Y-85391223D01*
X103487475Y-85391210D01*
X103312647Y-85390675D01*
X103176739Y-85389136D01*
X103074375Y-85386295D01*
X103000182Y-85381852D01*
X102948785Y-85375508D01*
X102914810Y-85366963D01*
X102892883Y-85355919D01*
X102871805Y-85335858D01*
X102845164Y-85273347D01*
X102847540Y-85201249D01*
X102880013Y-85137875D01*
X102884411Y-85133302D01*
X102901864Y-85120710D01*
X102928667Y-85111337D01*
X102970820Y-85104715D01*
X103034325Y-85100377D01*
X103125183Y-85097857D01*
X103249394Y-85096688D01*
X103412959Y-85096402D01*
X103908373Y-85096402D01*
X103908373Y-84778902D01*
X103582046Y-84778902D01*
X103510390Y-84778740D01*
X103398352Y-84777138D01*
X103319727Y-84773111D01*
X103266583Y-84765796D01*
X103230990Y-84754328D01*
X103205015Y-84737844D01*
X103197696Y-84731448D01*
X103160717Y-84669221D01*
X103159443Y-84596224D01*
X103194678Y-84528686D01*
X103194802Y-84528548D01*
X103214230Y-84511218D01*
X103240936Y-84499053D01*
X103282535Y-84491155D01*
X103346643Y-84486626D01*
X103440873Y-84484567D01*
X103572841Y-84484080D01*
X103910636Y-84484080D01*
X103903835Y-84353678D01*
X103897033Y-84223277D01*
X103410717Y-84217143D01*
X103360461Y-84216484D01*
X103196493Y-84213512D01*
X103071298Y-84208722D01*
X102979664Y-84200696D01*
X102916378Y-84188012D01*
X102876229Y-84169251D01*
X102854005Y-84142992D01*
X102844492Y-84107814D01*
X102842480Y-84062298D01*
X102842492Y-84057546D01*
X102844810Y-84017305D01*
X102854448Y-83985579D01*
X102876160Y-83961358D01*
X102914700Y-83943633D01*
X102974824Y-83931395D01*
X103061285Y-83923634D01*
X103178838Y-83919340D01*
X103332237Y-83917503D01*
X103526237Y-83917116D01*
X104109188Y-83917116D01*
X104156191Y-83976871D01*
G36*
X104156191Y-83976871D02*
G01*
X104166133Y-83990298D01*
X104177874Y-84011535D01*
X104186836Y-84039834D01*
X104193393Y-84080666D01*
X104197919Y-84139501D01*
X104200788Y-84221811D01*
X104202374Y-84333065D01*
X104203051Y-84478735D01*
X104203194Y-84664291D01*
X104203136Y-84796713D01*
X104202670Y-84954047D01*
X104201423Y-85075120D01*
X104199027Y-85165317D01*
X104195116Y-85230021D01*
X104189320Y-85274616D01*
X104181272Y-85304487D01*
X104170606Y-85325017D01*
X104156953Y-85341589D01*
X104147883Y-85350946D01*
X104131350Y-85363977D01*
X104108529Y-85373844D01*
X104073839Y-85380986D01*
X104021697Y-85385844D01*
X103946524Y-85388857D01*
X103842738Y-85390465D01*
X103704756Y-85391107D01*
X103527000Y-85391223D01*
X103487475Y-85391210D01*
X103312647Y-85390675D01*
X103176739Y-85389136D01*
X103074375Y-85386295D01*
X103000182Y-85381852D01*
X102948785Y-85375508D01*
X102914810Y-85366963D01*
X102892883Y-85355919D01*
X102871805Y-85335858D01*
X102845164Y-85273347D01*
X102847540Y-85201249D01*
X102880013Y-85137875D01*
X102884411Y-85133302D01*
X102901864Y-85120710D01*
X102928667Y-85111337D01*
X102970820Y-85104715D01*
X103034325Y-85100377D01*
X103125183Y-85097857D01*
X103249394Y-85096688D01*
X103412959Y-85096402D01*
X103908373Y-85096402D01*
X103908373Y-84778902D01*
X103582046Y-84778902D01*
X103510390Y-84778740D01*
X103398352Y-84777138D01*
X103319727Y-84773111D01*
X103266583Y-84765796D01*
X103230990Y-84754328D01*
X103205015Y-84737844D01*
X103197696Y-84731448D01*
X103160717Y-84669221D01*
X103159443Y-84596224D01*
X103194678Y-84528686D01*
X103194802Y-84528548D01*
X103214230Y-84511218D01*
X103240936Y-84499053D01*
X103282535Y-84491155D01*
X103346643Y-84486626D01*
X103440873Y-84484567D01*
X103572841Y-84484080D01*
X103910636Y-84484080D01*
X103903835Y-84353678D01*
X103897033Y-84223277D01*
X103410717Y-84217143D01*
X103360461Y-84216484D01*
X103196493Y-84213512D01*
X103071298Y-84208722D01*
X102979664Y-84200696D01*
X102916378Y-84188012D01*
X102876229Y-84169251D01*
X102854005Y-84142992D01*
X102844492Y-84107814D01*
X102842480Y-84062298D01*
X102842492Y-84057546D01*
X102844810Y-84017305D01*
X102854448Y-83985579D01*
X102876160Y-83961358D01*
X102914700Y-83943633D01*
X102974824Y-83931395D01*
X103061285Y-83923634D01*
X103178838Y-83919340D01*
X103332237Y-83917503D01*
X103526237Y-83917116D01*
X104109188Y-83917116D01*
X104156191Y-83976871D01*
G37*
X113551811Y-83917148D02*
X113706693Y-83917534D01*
X113825112Y-83918709D01*
X113912675Y-83921102D01*
X113974989Y-83925145D01*
X114017664Y-83931268D01*
X114046305Y-83939903D01*
X114066521Y-83951478D01*
X114083920Y-83966426D01*
X114087505Y-83969803D01*
X114102058Y-83984948D01*
X114113392Y-84003064D01*
X114121911Y-84029450D01*
X114128016Y-84069403D01*
X114132109Y-84128222D01*
X114134593Y-84211205D01*
X114135870Y-84323651D01*
X114136341Y-84470857D01*
X114136408Y-84658123D01*
X114136335Y-84804351D01*
X114135836Y-84961401D01*
X114134557Y-85082367D01*
X114132152Y-85172526D01*
X114128273Y-85237153D01*
X114122571Y-85281524D01*
X114114699Y-85310916D01*
X114104308Y-85330605D01*
X114091051Y-85345866D01*
X114084353Y-85352248D01*
X114067233Y-85364524D01*
X114043122Y-85373915D01*
X114006539Y-85380806D01*
X113952002Y-85385582D01*
X113874032Y-85388627D01*
X113767148Y-85390325D01*
X113625868Y-85391063D01*
X113444712Y-85391223D01*
X113360118Y-85391199D01*
X113197100Y-85390834D01*
X113071558Y-85389723D01*
X112978010Y-85387482D01*
X112910977Y-85383726D01*
X112864978Y-85378071D01*
X112834531Y-85370133D01*
X112814156Y-85359526D01*
X112798373Y-85345866D01*
X112768789Y-85302474D01*
X112753015Y-85243812D01*
X112764062Y-85195786D01*
X112798373Y-85141759D01*
X112808375Y-85132502D01*
X112828013Y-85119871D01*
X112856370Y-85110580D01*
X112899552Y-85104118D01*
X112963666Y-85099979D01*
X113054817Y-85097652D01*
X113179113Y-85096629D01*
X113342658Y-85096402D01*
X113841587Y-85096402D01*
X113841587Y-84778902D01*
X113517794Y-84778902D01*
X113445838Y-84778610D01*
X113314004Y-84775149D01*
X113219100Y-84766239D01*
X113155347Y-84749958D01*
X113116964Y-84724383D01*
X113098173Y-84687591D01*
X113093194Y-84637660D01*
X113094796Y-84596967D01*
X113105347Y-84553121D01*
X113131049Y-84522281D01*
X113177937Y-84502201D01*
X113252044Y-84490637D01*
X113359406Y-84485345D01*
X113506055Y-84484080D01*
X113843850Y-84484080D01*
X113837049Y-84353678D01*
X113830248Y-84223277D01*
X113332603Y-84217152D01*
X113206862Y-84215387D01*
X113069329Y-84212485D01*
X112967066Y-84208606D01*
X112894236Y-84203282D01*
X112845003Y-84196043D01*
X112813532Y-84186421D01*
X112793987Y-84173950D01*
X112781903Y-84161087D01*
X112755769Y-84097441D01*
X112762922Y-84025750D01*
X112802649Y-83963356D01*
X112809181Y-83957484D01*
X112827221Y-83944724D01*
X112851537Y-83934976D01*
X112887710Y-83927836D01*
X112941324Y-83922900D01*
X113017963Y-83919763D01*
X113123210Y-83918023D01*
X113262646Y-83917275D01*
X113441857Y-83917116D01*
X113551811Y-83917148D01*
G36*
X113551811Y-83917148D02*
G01*
X113706693Y-83917534D01*
X113825112Y-83918709D01*
X113912675Y-83921102D01*
X113974989Y-83925145D01*
X114017664Y-83931268D01*
X114046305Y-83939903D01*
X114066521Y-83951478D01*
X114083920Y-83966426D01*
X114087505Y-83969803D01*
X114102058Y-83984948D01*
X114113392Y-84003064D01*
X114121911Y-84029450D01*
X114128016Y-84069403D01*
X114132109Y-84128222D01*
X114134593Y-84211205D01*
X114135870Y-84323651D01*
X114136341Y-84470857D01*
X114136408Y-84658123D01*
X114136335Y-84804351D01*
X114135836Y-84961401D01*
X114134557Y-85082367D01*
X114132152Y-85172526D01*
X114128273Y-85237153D01*
X114122571Y-85281524D01*
X114114699Y-85310916D01*
X114104308Y-85330605D01*
X114091051Y-85345866D01*
X114084353Y-85352248D01*
X114067233Y-85364524D01*
X114043122Y-85373915D01*
X114006539Y-85380806D01*
X113952002Y-85385582D01*
X113874032Y-85388627D01*
X113767148Y-85390325D01*
X113625868Y-85391063D01*
X113444712Y-85391223D01*
X113360118Y-85391199D01*
X113197100Y-85390834D01*
X113071558Y-85389723D01*
X112978010Y-85387482D01*
X112910977Y-85383726D01*
X112864978Y-85378071D01*
X112834531Y-85370133D01*
X112814156Y-85359526D01*
X112798373Y-85345866D01*
X112768789Y-85302474D01*
X112753015Y-85243812D01*
X112764062Y-85195786D01*
X112798373Y-85141759D01*
X112808375Y-85132502D01*
X112828013Y-85119871D01*
X112856370Y-85110580D01*
X112899552Y-85104118D01*
X112963666Y-85099979D01*
X113054817Y-85097652D01*
X113179113Y-85096629D01*
X113342658Y-85096402D01*
X113841587Y-85096402D01*
X113841587Y-84778902D01*
X113517794Y-84778902D01*
X113445838Y-84778610D01*
X113314004Y-84775149D01*
X113219100Y-84766239D01*
X113155347Y-84749958D01*
X113116964Y-84724383D01*
X113098173Y-84687591D01*
X113093194Y-84637660D01*
X113094796Y-84596967D01*
X113105347Y-84553121D01*
X113131049Y-84522281D01*
X113177937Y-84502201D01*
X113252044Y-84490637D01*
X113359406Y-84485345D01*
X113506055Y-84484080D01*
X113843850Y-84484080D01*
X113837049Y-84353678D01*
X113830248Y-84223277D01*
X113332603Y-84217152D01*
X113206862Y-84215387D01*
X113069329Y-84212485D01*
X112967066Y-84208606D01*
X112894236Y-84203282D01*
X112845003Y-84196043D01*
X112813532Y-84186421D01*
X112793987Y-84173950D01*
X112781903Y-84161087D01*
X112755769Y-84097441D01*
X112762922Y-84025750D01*
X112802649Y-83963356D01*
X112809181Y-83957484D01*
X112827221Y-83944724D01*
X112851537Y-83934976D01*
X112887710Y-83927836D01*
X112941324Y-83922900D01*
X113017963Y-83919763D01*
X113123210Y-83918023D01*
X113262646Y-83917275D01*
X113441857Y-83917116D01*
X113551811Y-83917148D01*
G37*
X96341256Y-83936023D02*
X96377337Y-83973210D01*
X96418722Y-84035651D01*
X96468608Y-84127429D01*
X96530192Y-84252630D01*
X96606671Y-84415339D01*
X96636069Y-84478386D01*
X96695832Y-84605316D01*
X96748255Y-84715016D01*
X96790431Y-84801493D01*
X96819454Y-84858754D01*
X96832417Y-84880806D01*
X96835147Y-84879639D01*
X96855220Y-84851620D01*
X96889956Y-84792280D01*
X96935352Y-84708675D01*
X96987400Y-84607858D01*
X97019488Y-84544600D01*
X97077646Y-84433398D01*
X97122824Y-84355016D01*
X97159418Y-84303834D01*
X97191824Y-84274232D01*
X97224438Y-84260592D01*
X97261656Y-84257294D01*
X97282755Y-84258249D01*
X97315131Y-84266701D01*
X97345896Y-84288525D01*
X97379240Y-84329252D01*
X97419356Y-84394411D01*
X97470435Y-84489535D01*
X97536669Y-84620152D01*
X97556221Y-84658834D01*
X97605355Y-84752588D01*
X97646007Y-84825236D01*
X97674398Y-84870213D01*
X97686751Y-84880955D01*
X97689498Y-84874384D01*
X97708330Y-84832378D01*
X97742203Y-84758171D01*
X97788240Y-84658023D01*
X97843568Y-84538195D01*
X97905313Y-84404946D01*
X97958981Y-84289994D01*
X98018492Y-84165463D01*
X98064840Y-84073575D01*
X98100958Y-84009207D01*
X98129780Y-83967234D01*
X98154241Y-83942530D01*
X98177276Y-83929972D01*
X98196179Y-83924161D01*
X98246614Y-83923863D01*
X98301141Y-83954685D01*
X98303754Y-83956663D01*
X98348119Y-84002137D01*
X98370315Y-84046785D01*
X98370408Y-84048070D01*
X98361285Y-84083552D01*
X98335442Y-84152992D01*
X98295748Y-84250114D01*
X98245074Y-84368640D01*
X98186290Y-84502293D01*
X98122266Y-84644797D01*
X98055873Y-84789875D01*
X97989981Y-84931249D01*
X97927460Y-85062643D01*
X97871181Y-85177779D01*
X97824014Y-85270381D01*
X97788829Y-85334172D01*
X97768496Y-85362875D01*
X97699374Y-85389732D01*
X97615607Y-85376952D01*
X97604830Y-85367516D01*
X97573031Y-85323016D01*
X97528429Y-85249167D01*
X97475359Y-85153306D01*
X97418157Y-85042772D01*
X97257898Y-84722863D01*
X97110870Y-85017356D01*
X97091392Y-85056109D01*
X97037194Y-85161272D01*
X96988922Y-85251251D01*
X96951226Y-85317515D01*
X96928754Y-85351535D01*
X96926452Y-85354033D01*
X96869960Y-85384743D01*
X96799522Y-85388125D01*
X96737163Y-85362875D01*
X96732289Y-85357151D01*
X96707659Y-85315716D01*
X96668009Y-85240279D01*
X96615968Y-85136160D01*
X96554169Y-85008680D01*
X96485241Y-84863158D01*
X96411816Y-84704916D01*
X96371154Y-84616275D01*
X96297280Y-84454099D01*
X96240113Y-84326174D01*
X96197876Y-84227868D01*
X96168792Y-84154551D01*
X96151085Y-84101591D01*
X96142978Y-84064360D01*
X96142693Y-84038224D01*
X96148455Y-84018555D01*
X96177900Y-83976604D01*
X96231342Y-83935820D01*
X96232861Y-83935132D01*
X96272215Y-83921068D01*
X96307281Y-83920004D01*
X96341256Y-83936023D01*
G36*
X96341256Y-83936023D02*
G01*
X96377337Y-83973210D01*
X96418722Y-84035651D01*
X96468608Y-84127429D01*
X96530192Y-84252630D01*
X96606671Y-84415339D01*
X96636069Y-84478386D01*
X96695832Y-84605316D01*
X96748255Y-84715016D01*
X96790431Y-84801493D01*
X96819454Y-84858754D01*
X96832417Y-84880806D01*
X96835147Y-84879639D01*
X96855220Y-84851620D01*
X96889956Y-84792280D01*
X96935352Y-84708675D01*
X96987400Y-84607858D01*
X97019488Y-84544600D01*
X97077646Y-84433398D01*
X97122824Y-84355016D01*
X97159418Y-84303834D01*
X97191824Y-84274232D01*
X97224438Y-84260592D01*
X97261656Y-84257294D01*
X97282755Y-84258249D01*
X97315131Y-84266701D01*
X97345896Y-84288525D01*
X97379240Y-84329252D01*
X97419356Y-84394411D01*
X97470435Y-84489535D01*
X97536669Y-84620152D01*
X97556221Y-84658834D01*
X97605355Y-84752588D01*
X97646007Y-84825236D01*
X97674398Y-84870213D01*
X97686751Y-84880955D01*
X97689498Y-84874384D01*
X97708330Y-84832378D01*
X97742203Y-84758171D01*
X97788240Y-84658023D01*
X97843568Y-84538195D01*
X97905313Y-84404946D01*
X97958981Y-84289994D01*
X98018492Y-84165463D01*
X98064840Y-84073575D01*
X98100958Y-84009207D01*
X98129780Y-83967234D01*
X98154241Y-83942530D01*
X98177276Y-83929972D01*
X98196179Y-83924161D01*
X98246614Y-83923863D01*
X98301141Y-83954685D01*
X98303754Y-83956663D01*
X98348119Y-84002137D01*
X98370315Y-84046785D01*
X98370408Y-84048070D01*
X98361285Y-84083552D01*
X98335442Y-84152992D01*
X98295748Y-84250114D01*
X98245074Y-84368640D01*
X98186290Y-84502293D01*
X98122266Y-84644797D01*
X98055873Y-84789875D01*
X97989981Y-84931249D01*
X97927460Y-85062643D01*
X97871181Y-85177779D01*
X97824014Y-85270381D01*
X97788829Y-85334172D01*
X97768496Y-85362875D01*
X97699374Y-85389732D01*
X97615607Y-85376952D01*
X97604830Y-85367516D01*
X97573031Y-85323016D01*
X97528429Y-85249167D01*
X97475359Y-85153306D01*
X97418157Y-85042772D01*
X97257898Y-84722863D01*
X97110870Y-85017356D01*
X97091392Y-85056109D01*
X97037194Y-85161272D01*
X96988922Y-85251251D01*
X96951226Y-85317515D01*
X96928754Y-85351535D01*
X96926452Y-85354033D01*
X96869960Y-85384743D01*
X96799522Y-85388125D01*
X96737163Y-85362875D01*
X96732289Y-85357151D01*
X96707659Y-85315716D01*
X96668009Y-85240279D01*
X96615968Y-85136160D01*
X96554169Y-85008680D01*
X96485241Y-84863158D01*
X96411816Y-84704916D01*
X96371154Y-84616275D01*
X96297280Y-84454099D01*
X96240113Y-84326174D01*
X96197876Y-84227868D01*
X96168792Y-84154551D01*
X96151085Y-84101591D01*
X96142978Y-84064360D01*
X96142693Y-84038224D01*
X96148455Y-84018555D01*
X96177900Y-83976604D01*
X96231342Y-83935820D01*
X96232861Y-83935132D01*
X96272215Y-83921068D01*
X96307281Y-83920004D01*
X96341256Y-83936023D01*
G37*
X111510979Y-83918862D02*
X111644063Y-83929770D01*
X111755158Y-83949052D01*
X111857378Y-83978907D01*
X112000639Y-84045468D01*
X112103409Y-84131214D01*
X112165331Y-84235808D01*
X112186051Y-84358912D01*
X112184169Y-84421688D01*
X112172532Y-84471504D01*
X112142786Y-84515037D01*
X112086591Y-84569982D01*
X112070563Y-84584705D01*
X112022933Y-84626698D01*
X111977945Y-84660791D01*
X111929663Y-84688822D01*
X111872151Y-84712630D01*
X111799475Y-84734053D01*
X111705697Y-84754929D01*
X111584884Y-84777096D01*
X111431098Y-84802393D01*
X111238404Y-84832659D01*
X111201512Y-84838754D01*
X111076296Y-84866117D01*
X110985457Y-84897724D01*
X110932655Y-84932019D01*
X110921548Y-84967445D01*
X110926813Y-84976024D01*
X110962837Y-85006288D01*
X111019340Y-85039705D01*
X111045053Y-85051740D01*
X111087840Y-85066189D01*
X111140848Y-85075786D01*
X111212856Y-85081449D01*
X111312646Y-85084096D01*
X111448998Y-85084646D01*
X111484726Y-85084499D01*
X111620572Y-85082267D01*
X111751029Y-85077797D01*
X111862777Y-85071637D01*
X111942492Y-85064336D01*
X112013832Y-85056163D01*
X112072598Y-85054590D01*
X112110568Y-85063830D01*
X112140930Y-85085276D01*
X112148275Y-85092494D01*
X112181105Y-85156325D01*
X112178454Y-85227952D01*
X112140370Y-85289462D01*
X112099447Y-85312778D01*
X112027159Y-85338281D01*
X111941933Y-85358470D01*
X111935000Y-85359673D01*
X111849281Y-85370153D01*
X111733995Y-85378939D01*
X111603381Y-85385142D01*
X111471676Y-85387872D01*
X111439066Y-85387956D01*
X111241564Y-85382979D01*
X111080745Y-85366895D01*
X110949804Y-85337702D01*
X110841932Y-85293397D01*
X110750324Y-85231977D01*
X110668173Y-85151439D01*
X110627751Y-85098753D01*
X110604395Y-85039394D01*
X110598551Y-84959606D01*
X110598834Y-84935562D01*
X110606615Y-84869907D01*
X110631494Y-84816618D01*
X110682049Y-84754646D01*
X110724662Y-84710168D01*
X110777690Y-84664875D01*
X110837390Y-84627976D01*
X110910171Y-84597328D01*
X111002446Y-84570786D01*
X111120625Y-84546207D01*
X111271118Y-84521446D01*
X111460337Y-84494359D01*
X111551365Y-84480277D01*
X111687881Y-84451029D01*
X111786591Y-84417883D01*
X111845990Y-84381927D01*
X111864573Y-84344250D01*
X111840835Y-84305940D01*
X111773271Y-84268085D01*
X111767152Y-84265646D01*
X111674020Y-84241382D01*
X111548160Y-84224908D01*
X111400636Y-84216550D01*
X111242514Y-84216636D01*
X111084857Y-84225492D01*
X110938730Y-84243444D01*
X110930841Y-84244747D01*
X110832772Y-84260230D01*
X110767981Y-84267486D01*
X110725799Y-84266285D01*
X110695557Y-84256399D01*
X110666587Y-84237598D01*
X110664237Y-84235850D01*
X110614984Y-84174831D01*
X110605355Y-84103511D01*
X110637109Y-84034040D01*
X110646241Y-84025087D01*
X110705734Y-83994673D01*
X110800117Y-83968310D01*
X110921263Y-83946614D01*
X111061048Y-83930203D01*
X111211346Y-83919696D01*
X111364032Y-83915710D01*
X111510979Y-83918862D01*
G36*
X111510979Y-83918862D02*
G01*
X111644063Y-83929770D01*
X111755158Y-83949052D01*
X111857378Y-83978907D01*
X112000639Y-84045468D01*
X112103409Y-84131214D01*
X112165331Y-84235808D01*
X112186051Y-84358912D01*
X112184169Y-84421688D01*
X112172532Y-84471504D01*
X112142786Y-84515037D01*
X112086591Y-84569982D01*
X112070563Y-84584705D01*
X112022933Y-84626698D01*
X111977945Y-84660791D01*
X111929663Y-84688822D01*
X111872151Y-84712630D01*
X111799475Y-84734053D01*
X111705697Y-84754929D01*
X111584884Y-84777096D01*
X111431098Y-84802393D01*
X111238404Y-84832659D01*
X111201512Y-84838754D01*
X111076296Y-84866117D01*
X110985457Y-84897724D01*
X110932655Y-84932019D01*
X110921548Y-84967445D01*
X110926813Y-84976024D01*
X110962837Y-85006288D01*
X111019340Y-85039705D01*
X111045053Y-85051740D01*
X111087840Y-85066189D01*
X111140848Y-85075786D01*
X111212856Y-85081449D01*
X111312646Y-85084096D01*
X111448998Y-85084646D01*
X111484726Y-85084499D01*
X111620572Y-85082267D01*
X111751029Y-85077797D01*
X111862777Y-85071637D01*
X111942492Y-85064336D01*
X112013832Y-85056163D01*
X112072598Y-85054590D01*
X112110568Y-85063830D01*
X112140930Y-85085276D01*
X112148275Y-85092494D01*
X112181105Y-85156325D01*
X112178454Y-85227952D01*
X112140370Y-85289462D01*
X112099447Y-85312778D01*
X112027159Y-85338281D01*
X111941933Y-85358470D01*
X111935000Y-85359673D01*
X111849281Y-85370153D01*
X111733995Y-85378939D01*
X111603381Y-85385142D01*
X111471676Y-85387872D01*
X111439066Y-85387956D01*
X111241564Y-85382979D01*
X111080745Y-85366895D01*
X110949804Y-85337702D01*
X110841932Y-85293397D01*
X110750324Y-85231977D01*
X110668173Y-85151439D01*
X110627751Y-85098753D01*
X110604395Y-85039394D01*
X110598551Y-84959606D01*
X110598834Y-84935562D01*
X110606615Y-84869907D01*
X110631494Y-84816618D01*
X110682049Y-84754646D01*
X110724662Y-84710168D01*
X110777690Y-84664875D01*
X110837390Y-84627976D01*
X110910171Y-84597328D01*
X111002446Y-84570786D01*
X111120625Y-84546207D01*
X111271118Y-84521446D01*
X111460337Y-84494359D01*
X111551365Y-84480277D01*
X111687881Y-84451029D01*
X111786591Y-84417883D01*
X111845990Y-84381927D01*
X111864573Y-84344250D01*
X111840835Y-84305940D01*
X111773271Y-84268085D01*
X111767152Y-84265646D01*
X111674020Y-84241382D01*
X111548160Y-84224908D01*
X111400636Y-84216550D01*
X111242514Y-84216636D01*
X111084857Y-84225492D01*
X110938730Y-84243444D01*
X110930841Y-84244747D01*
X110832772Y-84260230D01*
X110767981Y-84267486D01*
X110725799Y-84266285D01*
X110695557Y-84256399D01*
X110666587Y-84237598D01*
X110664237Y-84235850D01*
X110614984Y-84174831D01*
X110605355Y-84103511D01*
X110637109Y-84034040D01*
X110646241Y-84025087D01*
X110705734Y-83994673D01*
X110800117Y-83968310D01*
X110921263Y-83946614D01*
X111061048Y-83930203D01*
X111211346Y-83919696D01*
X111364032Y-83915710D01*
X111510979Y-83918862D01*
G37*
X103659535Y-73335960D02*
X104026552Y-73369653D01*
X104367511Y-73437603D01*
X104695096Y-73542670D01*
X105021987Y-73687714D01*
X105345574Y-73872904D01*
X105692846Y-74125366D01*
X106014885Y-74417260D01*
X106304598Y-74741360D01*
X106554894Y-75090440D01*
X106758683Y-75457275D01*
X106777181Y-75496518D01*
X106932097Y-75875304D01*
X107049811Y-76268905D01*
X107131844Y-76684842D01*
X107179717Y-77130634D01*
X107194951Y-77613799D01*
X107176428Y-78113267D01*
X107117636Y-78605146D01*
X107017662Y-79065600D01*
X106875611Y-79497895D01*
X106690589Y-79905298D01*
X106461701Y-80291075D01*
X106246700Y-80585805D01*
X105949828Y-80917424D01*
X105626252Y-81201466D01*
X105276112Y-81437839D01*
X104899551Y-81626449D01*
X104496709Y-81767205D01*
X104067730Y-81860012D01*
X104062834Y-81860735D01*
X103980223Y-81867984D01*
X103855557Y-81873360D01*
X103700367Y-81876614D01*
X103526177Y-81877494D01*
X103344517Y-81875749D01*
X103217199Y-81873192D01*
X103028297Y-81867270D01*
X102876927Y-81858791D01*
X102752168Y-81846851D01*
X102643105Y-81830546D01*
X102538818Y-81808969D01*
X102421487Y-81781086D01*
X102299074Y-81749333D01*
X102188364Y-81716023D01*
X102079309Y-81677253D01*
X101961861Y-81629122D01*
X101825973Y-81567729D01*
X101661596Y-81489172D01*
X101458683Y-81389549D01*
X100897474Y-81112201D01*
X101346967Y-80373896D01*
X101405814Y-80277265D01*
X101511538Y-80103800D01*
X101606167Y-79948721D01*
X101686243Y-79817685D01*
X101748308Y-79716348D01*
X101788903Y-79650367D01*
X101804570Y-79625398D01*
X101808928Y-79626144D01*
X101844030Y-79650579D01*
X101905699Y-79701291D01*
X101984191Y-79770412D01*
X102123980Y-79889837D01*
X102373534Y-80066436D01*
X102615660Y-80189547D01*
X102790627Y-80251026D01*
X103086571Y-80313857D01*
X103377344Y-80324994D01*
X103658730Y-80285195D01*
X103926512Y-80195220D01*
X104176475Y-80055828D01*
X104404400Y-79867775D01*
X104531226Y-79729268D01*
X104709897Y-79473078D01*
X104856505Y-79175783D01*
X104971749Y-78835860D01*
X105056333Y-78451786D01*
X105060170Y-78427943D01*
X105077899Y-78273402D01*
X105091097Y-78081389D01*
X105099657Y-77865022D01*
X105103473Y-77637422D01*
X105102437Y-77411709D01*
X105096444Y-77201004D01*
X105085386Y-77018426D01*
X105069155Y-76877097D01*
X105006946Y-76556955D01*
X104902271Y-76182987D01*
X104770625Y-75855584D01*
X104612184Y-75574999D01*
X104427124Y-75341485D01*
X104215622Y-75155296D01*
X103977853Y-75016685D01*
X103713993Y-74925905D01*
X103655452Y-74914638D01*
X103508744Y-74899926D01*
X103337293Y-74895124D01*
X103160307Y-74899967D01*
X102996993Y-74914193D01*
X102866560Y-74937537D01*
X102649274Y-75011868D01*
X102397118Y-75147568D01*
X102172594Y-75326147D01*
X102132966Y-75363765D01*
X102061161Y-75430320D01*
X102010412Y-75475117D01*
X101989795Y-75490018D01*
X101984719Y-75482891D01*
X101953475Y-75437890D01*
X101897031Y-75356178D01*
X101819117Y-75243168D01*
X101723461Y-75104270D01*
X101613794Y-74944895D01*
X101493845Y-74770453D01*
X101003226Y-74056714D01*
X101112827Y-74023876D01*
X101124264Y-74020155D01*
X101198713Y-73990599D01*
X101306049Y-73942939D01*
X101433676Y-73882910D01*
X101568999Y-73816243D01*
X101627966Y-73786767D01*
X101955404Y-73634593D01*
X102257200Y-73516917D01*
X102544961Y-73430729D01*
X102830294Y-73373019D01*
X103124807Y-73340777D01*
X103440108Y-73330992D01*
X103659535Y-73335960D01*
G36*
X103659535Y-73335960D02*
G01*
X104026552Y-73369653D01*
X104367511Y-73437603D01*
X104695096Y-73542670D01*
X105021987Y-73687714D01*
X105345574Y-73872904D01*
X105692846Y-74125366D01*
X106014885Y-74417260D01*
X106304598Y-74741360D01*
X106554894Y-75090440D01*
X106758683Y-75457275D01*
X106777181Y-75496518D01*
X106932097Y-75875304D01*
X107049811Y-76268905D01*
X107131844Y-76684842D01*
X107179717Y-77130634D01*
X107194951Y-77613799D01*
X107176428Y-78113267D01*
X107117636Y-78605146D01*
X107017662Y-79065600D01*
X106875611Y-79497895D01*
X106690589Y-79905298D01*
X106461701Y-80291075D01*
X106246700Y-80585805D01*
X105949828Y-80917424D01*
X105626252Y-81201466D01*
X105276112Y-81437839D01*
X104899551Y-81626449D01*
X104496709Y-81767205D01*
X104067730Y-81860012D01*
X104062834Y-81860735D01*
X103980223Y-81867984D01*
X103855557Y-81873360D01*
X103700367Y-81876614D01*
X103526177Y-81877494D01*
X103344517Y-81875749D01*
X103217199Y-81873192D01*
X103028297Y-81867270D01*
X102876927Y-81858791D01*
X102752168Y-81846851D01*
X102643105Y-81830546D01*
X102538818Y-81808969D01*
X102421487Y-81781086D01*
X102299074Y-81749333D01*
X102188364Y-81716023D01*
X102079309Y-81677253D01*
X101961861Y-81629122D01*
X101825973Y-81567729D01*
X101661596Y-81489172D01*
X101458683Y-81389549D01*
X100897474Y-81112201D01*
X101346967Y-80373896D01*
X101405814Y-80277265D01*
X101511538Y-80103800D01*
X101606167Y-79948721D01*
X101686243Y-79817685D01*
X101748308Y-79716348D01*
X101788903Y-79650367D01*
X101804570Y-79625398D01*
X101808928Y-79626144D01*
X101844030Y-79650579D01*
X101905699Y-79701291D01*
X101984191Y-79770412D01*
X102123980Y-79889837D01*
X102373534Y-80066436D01*
X102615660Y-80189547D01*
X102790627Y-80251026D01*
X103086571Y-80313857D01*
X103377344Y-80324994D01*
X103658730Y-80285195D01*
X103926512Y-80195220D01*
X104176475Y-80055828D01*
X104404400Y-79867775D01*
X104531226Y-79729268D01*
X104709897Y-79473078D01*
X104856505Y-79175783D01*
X104971749Y-78835860D01*
X105056333Y-78451786D01*
X105060170Y-78427943D01*
X105077899Y-78273402D01*
X105091097Y-78081389D01*
X105099657Y-77865022D01*
X105103473Y-77637422D01*
X105102437Y-77411709D01*
X105096444Y-77201004D01*
X105085386Y-77018426D01*
X105069155Y-76877097D01*
X105006946Y-76556955D01*
X104902271Y-76182987D01*
X104770625Y-75855584D01*
X104612184Y-75574999D01*
X104427124Y-75341485D01*
X104215622Y-75155296D01*
X103977853Y-75016685D01*
X103713993Y-74925905D01*
X103655452Y-74914638D01*
X103508744Y-74899926D01*
X103337293Y-74895124D01*
X103160307Y-74899967D01*
X102996993Y-74914193D01*
X102866560Y-74937537D01*
X102649274Y-75011868D01*
X102397118Y-75147568D01*
X102172594Y-75326147D01*
X102132966Y-75363765D01*
X102061161Y-75430320D01*
X102010412Y-75475117D01*
X101989795Y-75490018D01*
X101984719Y-75482891D01*
X101953475Y-75437890D01*
X101897031Y-75356178D01*
X101819117Y-75243168D01*
X101723461Y-75104270D01*
X101613794Y-74944895D01*
X101493845Y-74770453D01*
X101003226Y-74056714D01*
X101112827Y-74023876D01*
X101124264Y-74020155D01*
X101198713Y-73990599D01*
X101306049Y-73942939D01*
X101433676Y-73882910D01*
X101568999Y-73816243D01*
X101627966Y-73786767D01*
X101955404Y-73634593D01*
X102257200Y-73516917D01*
X102544961Y-73430729D01*
X102830294Y-73373019D01*
X103124807Y-73340777D01*
X103440108Y-73330992D01*
X103659535Y-73335960D01*
G37*
X94737577Y-79027045D02*
X94731782Y-79279791D01*
X94715211Y-79502690D01*
X94686582Y-79707867D01*
X94644611Y-79907445D01*
X94588016Y-80113548D01*
X94502194Y-80359904D01*
X94344570Y-80692472D01*
X94151222Y-80990351D01*
X93925108Y-81250726D01*
X93669186Y-81470780D01*
X93386413Y-81647700D01*
X93079747Y-81778669D01*
X92752147Y-81860873D01*
X92748205Y-81861532D01*
X92508789Y-81884569D01*
X92245734Y-81881494D01*
X91977793Y-81854204D01*
X91723726Y-81804595D01*
X91502287Y-81734561D01*
X91407769Y-81691943D01*
X91284669Y-81627167D01*
X91158175Y-81553080D01*
X91041487Y-81477837D01*
X90947803Y-81409591D01*
X90890323Y-81356498D01*
X90877128Y-81341922D01*
X90861397Y-81336827D01*
X90850883Y-81362122D01*
X90843135Y-81425873D01*
X90835699Y-81536142D01*
X90822044Y-81765914D01*
X89776024Y-81773068D01*
X88730004Y-81780221D01*
X88802381Y-81656720D01*
X88806695Y-81649418D01*
X88827742Y-81615141D01*
X88846835Y-81584604D01*
X88864077Y-81555156D01*
X88879572Y-81524143D01*
X88893421Y-81488912D01*
X88905728Y-81446811D01*
X88916595Y-81395187D01*
X88926125Y-81331386D01*
X88934420Y-81252756D01*
X88941584Y-81156644D01*
X88947720Y-81040398D01*
X88952929Y-80901363D01*
X88957315Y-80736887D01*
X88960980Y-80544318D01*
X88964028Y-80321002D01*
X88966486Y-80071805D01*
X90958603Y-80071805D01*
X91095162Y-80161376D01*
X91147677Y-80193643D01*
X91267925Y-80258102D01*
X91381936Y-80309433D01*
X91431866Y-80326813D01*
X91590739Y-80361510D01*
X91791613Y-80379228D01*
X91893758Y-80382915D01*
X91988573Y-80382077D01*
X92059153Y-80372607D01*
X92122460Y-80351909D01*
X92195454Y-80317385D01*
X92335734Y-80224906D01*
X92457262Y-80094086D01*
X92554542Y-79925502D01*
X92628497Y-79716510D01*
X92680054Y-79464467D01*
X92710138Y-79166732D01*
X92719675Y-78820662D01*
X92719211Y-78741984D01*
X92705500Y-78377441D01*
X92672207Y-78060239D01*
X92618523Y-77787031D01*
X92543636Y-77554471D01*
X92446738Y-77359211D01*
X92327019Y-77197906D01*
X92277351Y-77148676D01*
X92123423Y-77046113D01*
X91942727Y-76983701D01*
X91743091Y-76961796D01*
X91532342Y-76980751D01*
X91318308Y-77040923D01*
X91108818Y-77142665D01*
X90958603Y-77232706D01*
X90958603Y-80071805D01*
X88966486Y-80071805D01*
X88966560Y-80064286D01*
X88968680Y-79771519D01*
X88970491Y-79440045D01*
X88972094Y-79067214D01*
X88973594Y-78650371D01*
X88975092Y-78186864D01*
X88976692Y-77674041D01*
X88978495Y-77109247D01*
X88992151Y-72944193D01*
X90077796Y-72937052D01*
X90156746Y-72936571D01*
X90389033Y-72935618D01*
X90601494Y-72935424D01*
X90788331Y-72935951D01*
X90943743Y-72937158D01*
X91061931Y-72939006D01*
X91137097Y-72941455D01*
X91163441Y-72944466D01*
X91160071Y-72954008D01*
X91134929Y-72999245D01*
X91093287Y-73065031D01*
X91089133Y-73071321D01*
X91056846Y-73122115D01*
X91029775Y-73171536D01*
X91007461Y-73224674D01*
X90989445Y-73286620D01*
X90975267Y-73362465D01*
X90964469Y-73457299D01*
X90956591Y-73576212D01*
X90951175Y-73724296D01*
X90947762Y-73906641D01*
X90945892Y-74128337D01*
X90945106Y-74394476D01*
X90944947Y-74710147D01*
X90945233Y-74956607D01*
X90946109Y-75198574D01*
X90947512Y-75417973D01*
X90949379Y-75609462D01*
X90951645Y-75767698D01*
X90954247Y-75887339D01*
X90957121Y-75963041D01*
X90960204Y-75989462D01*
X90970147Y-75985361D01*
X91013856Y-75956484D01*
X91076279Y-75909058D01*
X91166776Y-75845280D01*
X91336805Y-75751307D01*
X91531143Y-75667482D01*
X91731648Y-75602295D01*
X91900108Y-75569055D01*
X92109916Y-75547866D01*
X92336986Y-75540525D01*
X92563795Y-75547041D01*
X92772822Y-75567422D01*
X92946541Y-75601678D01*
X93123426Y-75659382D01*
X93418513Y-75799268D01*
X93691741Y-75985237D01*
X93938070Y-76213007D01*
X94152460Y-76478296D01*
X94329869Y-76776822D01*
X94373913Y-76868363D01*
X94497339Y-77177137D01*
X94593836Y-77512257D01*
X94664622Y-77879628D01*
X94710918Y-78285158D01*
X94733942Y-78734756D01*
X94735011Y-78820662D01*
X94737577Y-79027045D01*
G36*
X94737577Y-79027045D02*
G01*
X94731782Y-79279791D01*
X94715211Y-79502690D01*
X94686582Y-79707867D01*
X94644611Y-79907445D01*
X94588016Y-80113548D01*
X94502194Y-80359904D01*
X94344570Y-80692472D01*
X94151222Y-80990351D01*
X93925108Y-81250726D01*
X93669186Y-81470780D01*
X93386413Y-81647700D01*
X93079747Y-81778669D01*
X92752147Y-81860873D01*
X92748205Y-81861532D01*
X92508789Y-81884569D01*
X92245734Y-81881494D01*
X91977793Y-81854204D01*
X91723726Y-81804595D01*
X91502287Y-81734561D01*
X91407769Y-81691943D01*
X91284669Y-81627167D01*
X91158175Y-81553080D01*
X91041487Y-81477837D01*
X90947803Y-81409591D01*
X90890323Y-81356498D01*
X90877128Y-81341922D01*
X90861397Y-81336827D01*
X90850883Y-81362122D01*
X90843135Y-81425873D01*
X90835699Y-81536142D01*
X90822044Y-81765914D01*
X89776024Y-81773068D01*
X88730004Y-81780221D01*
X88802381Y-81656720D01*
X88806695Y-81649418D01*
X88827742Y-81615141D01*
X88846835Y-81584604D01*
X88864077Y-81555156D01*
X88879572Y-81524143D01*
X88893421Y-81488912D01*
X88905728Y-81446811D01*
X88916595Y-81395187D01*
X88926125Y-81331386D01*
X88934420Y-81252756D01*
X88941584Y-81156644D01*
X88947720Y-81040398D01*
X88952929Y-80901363D01*
X88957315Y-80736887D01*
X88960980Y-80544318D01*
X88964028Y-80321002D01*
X88966486Y-80071805D01*
X90958603Y-80071805D01*
X91095162Y-80161376D01*
X91147677Y-80193643D01*
X91267925Y-80258102D01*
X91381936Y-80309433D01*
X91431866Y-80326813D01*
X91590739Y-80361510D01*
X91791613Y-80379228D01*
X91893758Y-80382915D01*
X91988573Y-80382077D01*
X92059153Y-80372607D01*
X92122460Y-80351909D01*
X92195454Y-80317385D01*
X92335734Y-80224906D01*
X92457262Y-80094086D01*
X92554542Y-79925502D01*
X92628497Y-79716510D01*
X92680054Y-79464467D01*
X92710138Y-79166732D01*
X92719675Y-78820662D01*
X92719211Y-78741984D01*
X92705500Y-78377441D01*
X92672207Y-78060239D01*
X92618523Y-77787031D01*
X92543636Y-77554471D01*
X92446738Y-77359211D01*
X92327019Y-77197906D01*
X92277351Y-77148676D01*
X92123423Y-77046113D01*
X91942727Y-76983701D01*
X91743091Y-76961796D01*
X91532342Y-76980751D01*
X91318308Y-77040923D01*
X91108818Y-77142665D01*
X90958603Y-77232706D01*
X90958603Y-80071805D01*
X88966486Y-80071805D01*
X88966560Y-80064286D01*
X88968680Y-79771519D01*
X88970491Y-79440045D01*
X88972094Y-79067214D01*
X88973594Y-78650371D01*
X88975092Y-78186864D01*
X88976692Y-77674041D01*
X88978495Y-77109247D01*
X88992151Y-72944193D01*
X90077796Y-72937052D01*
X90156746Y-72936571D01*
X90389033Y-72935618D01*
X90601494Y-72935424D01*
X90788331Y-72935951D01*
X90943743Y-72937158D01*
X91061931Y-72939006D01*
X91137097Y-72941455D01*
X91163441Y-72944466D01*
X91160071Y-72954008D01*
X91134929Y-72999245D01*
X91093287Y-73065031D01*
X91089133Y-73071321D01*
X91056846Y-73122115D01*
X91029775Y-73171536D01*
X91007461Y-73224674D01*
X90989445Y-73286620D01*
X90975267Y-73362465D01*
X90964469Y-73457299D01*
X90956591Y-73576212D01*
X90951175Y-73724296D01*
X90947762Y-73906641D01*
X90945892Y-74128337D01*
X90945106Y-74394476D01*
X90944947Y-74710147D01*
X90945233Y-74956607D01*
X90946109Y-75198574D01*
X90947512Y-75417973D01*
X90949379Y-75609462D01*
X90951645Y-75767698D01*
X90954247Y-75887339D01*
X90957121Y-75963041D01*
X90960204Y-75989462D01*
X90970147Y-75985361D01*
X91013856Y-75956484D01*
X91076279Y-75909058D01*
X91166776Y-75845280D01*
X91336805Y-75751307D01*
X91531143Y-75667482D01*
X91731648Y-75602295D01*
X91900108Y-75569055D01*
X92109916Y-75547866D01*
X92336986Y-75540525D01*
X92563795Y-75547041D01*
X92772822Y-75567422D01*
X92946541Y-75601678D01*
X93123426Y-75659382D01*
X93418513Y-75799268D01*
X93691741Y-75985237D01*
X93938070Y-76213007D01*
X94152460Y-76478296D01*
X94329869Y-76776822D01*
X94373913Y-76868363D01*
X94497339Y-77177137D01*
X94593836Y-77512257D01*
X94664622Y-77879628D01*
X94710918Y-78285158D01*
X94733942Y-78734756D01*
X94735011Y-78820662D01*
X94737577Y-79027045D01*
G37*
X100910953Y-79886464D02*
X100898687Y-80106678D01*
X100872177Y-80311576D01*
X100832175Y-80482258D01*
X100768347Y-80657864D01*
X100620394Y-80947261D01*
X100431279Y-81201876D01*
X100202961Y-81419974D01*
X99937397Y-81599819D01*
X99636546Y-81739676D01*
X99302366Y-81837811D01*
X99166096Y-81859945D01*
X98971368Y-81875327D01*
X98759296Y-81878787D01*
X98547603Y-81870602D01*
X98354009Y-81851051D01*
X98196237Y-81820414D01*
X98116957Y-81796293D01*
X97936900Y-81725706D01*
X97753867Y-81636089D01*
X97586743Y-81537160D01*
X97454411Y-81438638D01*
X97452785Y-81437216D01*
X97380269Y-81375731D01*
X97324477Y-81331950D01*
X97297368Y-81315269D01*
X97294404Y-81319251D01*
X97287698Y-81362271D01*
X97283037Y-81442507D01*
X97281291Y-81547419D01*
X97281291Y-81779570D01*
X96257097Y-81779570D01*
X96229833Y-81779565D01*
X96001168Y-81779165D01*
X95791300Y-81778170D01*
X95606200Y-81776653D01*
X95451839Y-81774689D01*
X95334189Y-81772351D01*
X95259220Y-81769715D01*
X95232904Y-81766854D01*
X95233517Y-81764354D01*
X95250734Y-81727448D01*
X95286825Y-81658111D01*
X95335323Y-81568843D01*
X95437742Y-81383548D01*
X95452760Y-79554155D01*
X97390538Y-79554155D01*
X97391300Y-79698692D01*
X97394991Y-79850560D01*
X97402222Y-79960333D01*
X97413519Y-80035157D01*
X97429409Y-80082181D01*
X97449849Y-80115760D01*
X97526825Y-80207295D01*
X97629963Y-80302589D01*
X97743005Y-80387496D01*
X97849694Y-80447869D01*
X97908888Y-80470021D01*
X98045186Y-80499514D01*
X98223202Y-80514593D01*
X98410887Y-80512309D01*
X98589115Y-80481294D01*
X98737880Y-80417221D01*
X98866589Y-80317203D01*
X98902796Y-80280208D01*
X98997065Y-80154042D01*
X99048070Y-80018053D01*
X99063388Y-79854420D01*
X99059238Y-79767972D01*
X99018199Y-79590010D01*
X98931986Y-79437262D01*
X98799027Y-79308010D01*
X98617754Y-79200535D01*
X98386598Y-79113118D01*
X98293409Y-79090177D01*
X98180593Y-79074469D01*
X98038614Y-79065746D01*
X97854839Y-79062813D01*
X97824986Y-79062815D01*
X97687500Y-79064493D01*
X97569400Y-79068550D01*
X97482430Y-79074453D01*
X97438334Y-79081670D01*
X97433260Y-79084013D01*
X97416854Y-79098726D01*
X97405235Y-79128292D01*
X97397598Y-79180666D01*
X97393140Y-79263799D01*
X97391054Y-79385644D01*
X97390538Y-79554155D01*
X95452760Y-79554155D01*
X95453549Y-79458064D01*
X95455898Y-79177618D01*
X95459185Y-78819947D01*
X95462635Y-78509437D01*
X95466527Y-78241698D01*
X95471139Y-78012336D01*
X95476752Y-77816962D01*
X95483642Y-77651183D01*
X95492089Y-77510609D01*
X95502373Y-77390847D01*
X95514770Y-77287508D01*
X95529561Y-77196199D01*
X95547023Y-77112529D01*
X95567436Y-77032107D01*
X95591079Y-76950541D01*
X95618229Y-76863441D01*
X95725189Y-76590384D01*
X95871666Y-76338022D01*
X96054084Y-76121962D01*
X96274112Y-75941072D01*
X96533420Y-75794222D01*
X96833679Y-75680283D01*
X97176558Y-75598122D01*
X97563728Y-75546611D01*
X97699049Y-75536368D01*
X97926951Y-75528878D01*
X98152838Y-75535623D01*
X98387285Y-75557738D01*
X98640868Y-75596362D01*
X98924162Y-75652631D01*
X99247742Y-75727683D01*
X99322537Y-75745842D01*
X99510367Y-75790528D01*
X99688392Y-75831673D01*
X99845817Y-75866847D01*
X99971846Y-75893619D01*
X100055681Y-75909559D01*
X100249103Y-75941328D01*
X99977176Y-76600395D01*
X99909158Y-76764949D01*
X99842243Y-76926190D01*
X99784830Y-77063855D01*
X99739738Y-77171210D01*
X99709785Y-77241518D01*
X99697789Y-77268043D01*
X99695903Y-77268423D01*
X99661142Y-77256580D01*
X99592789Y-77226231D01*
X99503176Y-77182778D01*
X99316918Y-77098155D01*
X99060615Y-77005629D01*
X98798290Y-76934772D01*
X98540200Y-76887363D01*
X98296606Y-76865183D01*
X98077765Y-76870010D01*
X97893936Y-76903624D01*
X97765636Y-76956960D01*
X97619927Y-77066262D01*
X97507759Y-77214543D01*
X97432343Y-77397243D01*
X97396891Y-77609798D01*
X97384406Y-77805699D01*
X98036128Y-77807483D01*
X98255913Y-77809326D01*
X98499011Y-77815871D01*
X98706683Y-77828224D01*
X98889671Y-77847585D01*
X99058718Y-77875155D01*
X99224566Y-77912136D01*
X99397957Y-77959727D01*
X99657393Y-78050314D01*
X99962543Y-78199492D01*
X100230352Y-78382221D01*
X100458177Y-78595932D01*
X100643377Y-78838054D01*
X100783310Y-79106017D01*
X100875336Y-79397252D01*
X100889748Y-79475689D01*
X100908224Y-79669834D01*
X100910550Y-79854420D01*
X100910953Y-79886464D01*
G36*
X100910953Y-79886464D02*
G01*
X100898687Y-80106678D01*
X100872177Y-80311576D01*
X100832175Y-80482258D01*
X100768347Y-80657864D01*
X100620394Y-80947261D01*
X100431279Y-81201876D01*
X100202961Y-81419974D01*
X99937397Y-81599819D01*
X99636546Y-81739676D01*
X99302366Y-81837811D01*
X99166096Y-81859945D01*
X98971368Y-81875327D01*
X98759296Y-81878787D01*
X98547603Y-81870602D01*
X98354009Y-81851051D01*
X98196237Y-81820414D01*
X98116957Y-81796293D01*
X97936900Y-81725706D01*
X97753867Y-81636089D01*
X97586743Y-81537160D01*
X97454411Y-81438638D01*
X97452785Y-81437216D01*
X97380269Y-81375731D01*
X97324477Y-81331950D01*
X97297368Y-81315269D01*
X97294404Y-81319251D01*
X97287698Y-81362271D01*
X97283037Y-81442507D01*
X97281291Y-81547419D01*
X97281291Y-81779570D01*
X96257097Y-81779570D01*
X96229833Y-81779565D01*
X96001168Y-81779165D01*
X95791300Y-81778170D01*
X95606200Y-81776653D01*
X95451839Y-81774689D01*
X95334189Y-81772351D01*
X95259220Y-81769715D01*
X95232904Y-81766854D01*
X95233517Y-81764354D01*
X95250734Y-81727448D01*
X95286825Y-81658111D01*
X95335323Y-81568843D01*
X95437742Y-81383548D01*
X95452760Y-79554155D01*
X97390538Y-79554155D01*
X97391300Y-79698692D01*
X97394991Y-79850560D01*
X97402222Y-79960333D01*
X97413519Y-80035157D01*
X97429409Y-80082181D01*
X97449849Y-80115760D01*
X97526825Y-80207295D01*
X97629963Y-80302589D01*
X97743005Y-80387496D01*
X97849694Y-80447869D01*
X97908888Y-80470021D01*
X98045186Y-80499514D01*
X98223202Y-80514593D01*
X98410887Y-80512309D01*
X98589115Y-80481294D01*
X98737880Y-80417221D01*
X98866589Y-80317203D01*
X98902796Y-80280208D01*
X98997065Y-80154042D01*
X99048070Y-80018053D01*
X99063388Y-79854420D01*
X99059238Y-79767972D01*
X99018199Y-79590010D01*
X98931986Y-79437262D01*
X98799027Y-79308010D01*
X98617754Y-79200535D01*
X98386598Y-79113118D01*
X98293409Y-79090177D01*
X98180593Y-79074469D01*
X98038614Y-79065746D01*
X97854839Y-79062813D01*
X97824986Y-79062815D01*
X97687500Y-79064493D01*
X97569400Y-79068550D01*
X97482430Y-79074453D01*
X97438334Y-79081670D01*
X97433260Y-79084013D01*
X97416854Y-79098726D01*
X97405235Y-79128292D01*
X97397598Y-79180666D01*
X97393140Y-79263799D01*
X97391054Y-79385644D01*
X97390538Y-79554155D01*
X95452760Y-79554155D01*
X95453549Y-79458064D01*
X95455898Y-79177618D01*
X95459185Y-78819947D01*
X95462635Y-78509437D01*
X95466527Y-78241698D01*
X95471139Y-78012336D01*
X95476752Y-77816962D01*
X95483642Y-77651183D01*
X95492089Y-77510609D01*
X95502373Y-77390847D01*
X95514770Y-77287508D01*
X95529561Y-77196199D01*
X95547023Y-77112529D01*
X95567436Y-77032107D01*
X95591079Y-76950541D01*
X95618229Y-76863441D01*
X95725189Y-76590384D01*
X95871666Y-76338022D01*
X96054084Y-76121962D01*
X96274112Y-75941072D01*
X96533420Y-75794222D01*
X96833679Y-75680283D01*
X97176558Y-75598122D01*
X97563728Y-75546611D01*
X97699049Y-75536368D01*
X97926951Y-75528878D01*
X98152838Y-75535623D01*
X98387285Y-75557738D01*
X98640868Y-75596362D01*
X98924162Y-75652631D01*
X99247742Y-75727683D01*
X99322537Y-75745842D01*
X99510367Y-75790528D01*
X99688392Y-75831673D01*
X99845817Y-75866847D01*
X99971846Y-75893619D01*
X100055681Y-75909559D01*
X100249103Y-75941328D01*
X99977176Y-76600395D01*
X99909158Y-76764949D01*
X99842243Y-76926190D01*
X99784830Y-77063855D01*
X99739738Y-77171210D01*
X99709785Y-77241518D01*
X99697789Y-77268043D01*
X99695903Y-77268423D01*
X99661142Y-77256580D01*
X99592789Y-77226231D01*
X99503176Y-77182778D01*
X99316918Y-77098155D01*
X99060615Y-77005629D01*
X98798290Y-76934772D01*
X98540200Y-76887363D01*
X98296606Y-76865183D01*
X98077765Y-76870010D01*
X97893936Y-76903624D01*
X97765636Y-76956960D01*
X97619927Y-77066262D01*
X97507759Y-77214543D01*
X97432343Y-77397243D01*
X97396891Y-77609798D01*
X97384406Y-77805699D01*
X98036128Y-77807483D01*
X98255913Y-77809326D01*
X98499011Y-77815871D01*
X98706683Y-77828224D01*
X98889671Y-77847585D01*
X99058718Y-77875155D01*
X99224566Y-77912136D01*
X99397957Y-77959727D01*
X99657393Y-78050314D01*
X99962543Y-78199492D01*
X100230352Y-78382221D01*
X100458177Y-78595932D01*
X100643377Y-78838054D01*
X100783310Y-79106017D01*
X100875336Y-79397252D01*
X100889748Y-79475689D01*
X100908224Y-79669834D01*
X100910550Y-79854420D01*
X100910953Y-79886464D01*
G37*
X119233547Y-81833553D02*
X119230735Y-82045348D01*
X119227245Y-82227789D01*
X119223005Y-82383135D01*
X119217945Y-82513644D01*
X119211994Y-82621574D01*
X119205080Y-82709185D01*
X119197133Y-82778733D01*
X119188080Y-82832479D01*
X119177852Y-82872679D01*
X119166377Y-82901594D01*
X119153584Y-82921480D01*
X119139402Y-82934597D01*
X119123760Y-82943203D01*
X119106587Y-82949557D01*
X119087812Y-82955916D01*
X119067363Y-82964540D01*
X119055857Y-82968862D01*
X119034752Y-82973581D01*
X119003391Y-82977905D01*
X118959558Y-82981851D01*
X118901034Y-82985436D01*
X118825600Y-82988678D01*
X118731037Y-82991594D01*
X118615127Y-82994201D01*
X118475652Y-82996516D01*
X118310394Y-82998557D01*
X118117133Y-83000341D01*
X117893652Y-83001886D01*
X117637732Y-83003209D01*
X117347154Y-83004327D01*
X117019700Y-83005258D01*
X116653151Y-83006018D01*
X116245290Y-83006626D01*
X115793897Y-83007098D01*
X115296755Y-83007453D01*
X114751644Y-83007706D01*
X114156347Y-83007876D01*
X113508644Y-83007980D01*
X113303389Y-83008000D01*
X112669743Y-83008013D01*
X112087856Y-83007934D01*
X111555535Y-83007745D01*
X111070588Y-83007432D01*
X110630822Y-83006979D01*
X110234047Y-83006369D01*
X109878068Y-83005587D01*
X109560694Y-83004617D01*
X109279734Y-83003443D01*
X109032993Y-83002049D01*
X108818281Y-83000419D01*
X108633406Y-82998537D01*
X108476174Y-82996387D01*
X108344394Y-82993954D01*
X108235873Y-82991221D01*
X108148420Y-82988173D01*
X108079842Y-82984793D01*
X108027946Y-82981066D01*
X107990541Y-82976976D01*
X107965434Y-82972506D01*
X107950434Y-82967642D01*
X107945661Y-82965477D01*
X107926123Y-82958366D01*
X107908206Y-82953173D01*
X107891837Y-82947636D01*
X107876943Y-82939493D01*
X107863453Y-82926484D01*
X107851293Y-82906346D01*
X107840390Y-82876818D01*
X107830673Y-82835638D01*
X107822068Y-82780544D01*
X107814502Y-82709275D01*
X107807904Y-82619569D01*
X107802200Y-82509164D01*
X107797318Y-82375800D01*
X107793185Y-82217213D01*
X107789729Y-82031143D01*
X107786876Y-81815328D01*
X107785940Y-81715391D01*
X108506153Y-81715391D01*
X108506943Y-81724961D01*
X108521430Y-81732717D01*
X108554162Y-81738849D01*
X108609685Y-81743546D01*
X108692548Y-81747000D01*
X108807298Y-81749400D01*
X108958482Y-81750935D01*
X109150647Y-81751797D01*
X109388341Y-81752174D01*
X109676111Y-81752258D01*
X110881548Y-81752258D01*
X110677742Y-81383548D01*
X110677742Y-76030430D01*
X110881548Y-75661720D01*
X108726871Y-75661720D01*
X108719081Y-78495322D01*
X108711291Y-81328925D01*
X108634908Y-81492055D01*
X108594637Y-81572910D01*
X108549036Y-81653907D01*
X108514599Y-81703721D01*
X108514513Y-81703817D01*
X108506153Y-81715391D01*
X107785940Y-81715391D01*
X107784555Y-81567506D01*
X107782693Y-81285415D01*
X107781216Y-80966795D01*
X107780053Y-80609382D01*
X107779131Y-80210917D01*
X107778376Y-79769136D01*
X107777717Y-79281778D01*
X107777081Y-78746582D01*
X107776395Y-78161287D01*
X107775587Y-77523629D01*
X107775482Y-77446433D01*
X107774581Y-76812817D01*
X107773719Y-76231298D01*
X107772960Y-75699614D01*
X107772368Y-75215502D01*
X107772007Y-74776700D01*
X107771940Y-74380946D01*
X107772232Y-74025975D01*
X107772947Y-73709527D01*
X107774147Y-73429337D01*
X107775897Y-73183144D01*
X107778260Y-72968684D01*
X107781302Y-72783696D01*
X107785084Y-72625916D01*
X107789671Y-72493082D01*
X107795127Y-72382930D01*
X107801516Y-72293199D01*
X107808901Y-72221626D01*
X107817346Y-72165947D01*
X107826915Y-72123901D01*
X107837672Y-72093225D01*
X107849681Y-72071655D01*
X107863005Y-72056930D01*
X107877708Y-72046787D01*
X107893855Y-72038962D01*
X107911508Y-72031194D01*
X107930731Y-72021219D01*
X107936356Y-72018040D01*
X108021470Y-71987273D01*
X108114645Y-71974628D01*
X108219678Y-71974632D01*
X108221428Y-72213606D01*
X108221872Y-72241106D01*
X108255256Y-72520643D01*
X108340284Y-72783661D01*
X108475773Y-73027376D01*
X108660543Y-73249001D01*
X108759696Y-73339393D01*
X108980469Y-73489217D01*
X109221353Y-73593697D01*
X109475333Y-73652776D01*
X109735393Y-73666399D01*
X109994517Y-73634510D01*
X110245690Y-73557052D01*
X110452166Y-73449462D01*
X111365998Y-73449462D01*
X111486171Y-73535921D01*
X111587805Y-73617180D01*
X111731016Y-73749720D01*
X111893452Y-73915830D01*
X112068963Y-74109180D01*
X112251398Y-74323441D01*
X112298379Y-74380738D01*
X112378366Y-74479010D01*
X112482921Y-74607939D01*
X112608579Y-74763221D01*
X112751877Y-74940554D01*
X112909350Y-75135633D01*
X113077536Y-75344157D01*
X113252969Y-75561821D01*
X113333435Y-75661720D01*
X113432187Y-75784323D01*
X113611726Y-76007359D01*
X113788121Y-76226627D01*
X113957909Y-76437822D01*
X114117626Y-76636643D01*
X114263808Y-76818784D01*
X114392992Y-76979945D01*
X114501713Y-77115820D01*
X114586508Y-77222108D01*
X114643913Y-77294504D01*
X114670464Y-77328706D01*
X114672655Y-77341559D01*
X114665366Y-77366004D01*
X114646477Y-77404463D01*
X114614103Y-77459662D01*
X114566357Y-77534331D01*
X114501355Y-77631196D01*
X114417212Y-77752986D01*
X114312041Y-77902430D01*
X114183957Y-78082254D01*
X114031075Y-78295187D01*
X113851508Y-78543957D01*
X113643372Y-78831292D01*
X113404782Y-79159920D01*
X113214675Y-79421504D01*
X112982740Y-79740397D01*
X112778722Y-80020446D01*
X112600251Y-80264760D01*
X112444952Y-80476446D01*
X112310454Y-80658614D01*
X112194383Y-80814370D01*
X112094367Y-80946823D01*
X112008034Y-81059081D01*
X111933011Y-81154251D01*
X111866925Y-81235443D01*
X111807404Y-81305764D01*
X111752076Y-81368322D01*
X111698566Y-81426225D01*
X111644504Y-81482582D01*
X111587516Y-81540500D01*
X111377505Y-81752258D01*
X112789236Y-81752315D01*
X114200968Y-81752372D01*
X114192097Y-81581274D01*
X114191667Y-81572677D01*
X114189983Y-81504277D01*
X114193175Y-81438742D01*
X114203378Y-81372480D01*
X114222728Y-81301903D01*
X114253359Y-81223420D01*
X114297407Y-81133441D01*
X114357007Y-81028378D01*
X114434295Y-80904640D01*
X114531405Y-80758637D01*
X114650473Y-80586780D01*
X114793635Y-80385478D01*
X114963025Y-80151143D01*
X115160779Y-79880183D01*
X115389033Y-79569010D01*
X116194732Y-78472123D01*
X116201830Y-79743932D01*
X116202459Y-79862566D01*
X116203569Y-80182112D01*
X116203064Y-80453907D01*
X116200352Y-80683095D01*
X116194837Y-80874820D01*
X116185926Y-81034225D01*
X116173025Y-81166453D01*
X116155540Y-81276648D01*
X116132877Y-81369953D01*
X116104441Y-81451512D01*
X116069640Y-81526469D01*
X116027878Y-81599968D01*
X115978561Y-81677150D01*
X115928987Y-81752258D01*
X118505361Y-81752258D01*
X118438811Y-81663494D01*
X118428389Y-81649452D01*
X118345064Y-81520750D01*
X118287624Y-81390647D01*
X118249905Y-81241568D01*
X118225745Y-81055941D01*
X118225082Y-81047849D01*
X118221576Y-80971283D01*
X118218410Y-80843535D01*
X118215599Y-80667527D01*
X118213156Y-80446177D01*
X118211094Y-80182404D01*
X118209429Y-79879127D01*
X118208172Y-79539265D01*
X118207338Y-79165738D01*
X118206941Y-78761464D01*
X118206994Y-78329362D01*
X118207512Y-77872353D01*
X118208508Y-77393354D01*
X118209562Y-76963691D01*
X118210690Y-76495994D01*
X118211801Y-76077543D01*
X118213033Y-75705409D01*
X118214527Y-75376658D01*
X118216422Y-75088359D01*
X118218857Y-74837581D01*
X118221971Y-74621393D01*
X118225904Y-74436861D01*
X118230796Y-74281055D01*
X118236786Y-74151043D01*
X118244013Y-74043894D01*
X118252616Y-73956675D01*
X118262736Y-73886455D01*
X118274511Y-73830303D01*
X118288081Y-73785286D01*
X118303586Y-73748474D01*
X118321164Y-73716933D01*
X118340955Y-73687734D01*
X118363099Y-73657944D01*
X118387735Y-73624631D01*
X118411564Y-73591248D01*
X118457620Y-73525243D01*
X118485208Y-73483602D01*
X118485874Y-73481858D01*
X118476241Y-73473983D01*
X118442248Y-73467413D01*
X118380111Y-73462045D01*
X118286048Y-73457780D01*
X118156276Y-73454517D01*
X117987014Y-73452154D01*
X117774477Y-73450591D01*
X117514885Y-73449728D01*
X117204453Y-73449462D01*
X115903102Y-73449462D01*
X115971687Y-73530972D01*
X116011437Y-73586954D01*
X116077602Y-73718950D01*
X116135584Y-73883117D01*
X116179838Y-74065220D01*
X116182659Y-74082508D01*
X116191051Y-74173644D01*
X116197407Y-74314493D01*
X116201742Y-74506030D01*
X116204074Y-74749230D01*
X116204420Y-75045069D01*
X116202796Y-75394522D01*
X116194732Y-76561195D01*
X115361721Y-75507783D01*
X115337862Y-75477609D01*
X115126618Y-75210185D01*
X114946273Y-74981160D01*
X114793955Y-74786642D01*
X114666796Y-74622735D01*
X114561923Y-74485547D01*
X114476469Y-74371181D01*
X114407561Y-74275746D01*
X114352331Y-74195345D01*
X114307909Y-74126086D01*
X114271423Y-74064074D01*
X114240004Y-74005416D01*
X114210782Y-73946216D01*
X114165828Y-73841426D01*
X114136788Y-73730883D01*
X114129064Y-73611646D01*
X114129840Y-73449462D01*
X111365998Y-73449462D01*
X110452166Y-73449462D01*
X110481895Y-73433971D01*
X110696118Y-73265210D01*
X110755670Y-73205714D01*
X110931686Y-72985424D01*
X111056584Y-72746359D01*
X111131032Y-72486976D01*
X111155699Y-72205734D01*
X111155699Y-71974623D01*
X115076303Y-71974623D01*
X115321244Y-71974613D01*
X115847446Y-71974541D01*
X116322794Y-71974490D01*
X116749918Y-71974561D01*
X117131445Y-71974860D01*
X117470004Y-71975491D01*
X117768224Y-71976556D01*
X118028733Y-71978161D01*
X118254161Y-71980409D01*
X118447135Y-71983404D01*
X118610284Y-71987250D01*
X118746238Y-71992050D01*
X118857624Y-71997910D01*
X118947071Y-72004932D01*
X119017208Y-72013221D01*
X119070663Y-72022880D01*
X119110065Y-72034014D01*
X119138043Y-72046726D01*
X119157226Y-72061121D01*
X119170241Y-72077301D01*
X119179718Y-72095372D01*
X119188285Y-72115437D01*
X119198570Y-72137600D01*
X119198755Y-72137962D01*
X119203749Y-72152470D01*
X119208330Y-72176764D01*
X119212515Y-72213084D01*
X119216321Y-72263674D01*
X119219767Y-72330775D01*
X119222869Y-72416629D01*
X119225645Y-72523478D01*
X119228113Y-72653564D01*
X119230288Y-72809128D01*
X119232190Y-72992413D01*
X119233836Y-73205661D01*
X119235242Y-73451113D01*
X119236426Y-73731012D01*
X119237406Y-74047599D01*
X119238198Y-74403116D01*
X119238822Y-74799805D01*
X119239292Y-75239909D01*
X119239628Y-75725668D01*
X119239847Y-76259325D01*
X119239965Y-76843122D01*
X119240000Y-77479301D01*
X119240002Y-77604279D01*
X119240062Y-78233828D01*
X119240156Y-78811438D01*
X119240211Y-79339368D01*
X119240156Y-79819877D01*
X119239922Y-80255223D01*
X119239435Y-80647664D01*
X119238625Y-80999459D01*
X119237421Y-81312867D01*
X119235752Y-81590145D01*
X119234283Y-81752258D01*
X119233547Y-81833553D01*
G36*
X119233547Y-81833553D02*
G01*
X119230735Y-82045348D01*
X119227245Y-82227789D01*
X119223005Y-82383135D01*
X119217945Y-82513644D01*
X119211994Y-82621574D01*
X119205080Y-82709185D01*
X119197133Y-82778733D01*
X119188080Y-82832479D01*
X119177852Y-82872679D01*
X119166377Y-82901594D01*
X119153584Y-82921480D01*
X119139402Y-82934597D01*
X119123760Y-82943203D01*
X119106587Y-82949557D01*
X119087812Y-82955916D01*
X119067363Y-82964540D01*
X119055857Y-82968862D01*
X119034752Y-82973581D01*
X119003391Y-82977905D01*
X118959558Y-82981851D01*
X118901034Y-82985436D01*
X118825600Y-82988678D01*
X118731037Y-82991594D01*
X118615127Y-82994201D01*
X118475652Y-82996516D01*
X118310394Y-82998557D01*
X118117133Y-83000341D01*
X117893652Y-83001886D01*
X117637732Y-83003209D01*
X117347154Y-83004327D01*
X117019700Y-83005258D01*
X116653151Y-83006018D01*
X116245290Y-83006626D01*
X115793897Y-83007098D01*
X115296755Y-83007453D01*
X114751644Y-83007706D01*
X114156347Y-83007876D01*
X113508644Y-83007980D01*
X113303389Y-83008000D01*
X112669743Y-83008013D01*
X112087856Y-83007934D01*
X111555535Y-83007745D01*
X111070588Y-83007432D01*
X110630822Y-83006979D01*
X110234047Y-83006369D01*
X109878068Y-83005587D01*
X109560694Y-83004617D01*
X109279734Y-83003443D01*
X109032993Y-83002049D01*
X108818281Y-83000419D01*
X108633406Y-82998537D01*
X108476174Y-82996387D01*
X108344394Y-82993954D01*
X108235873Y-82991221D01*
X108148420Y-82988173D01*
X108079842Y-82984793D01*
X108027946Y-82981066D01*
X107990541Y-82976976D01*
X107965434Y-82972506D01*
X107950434Y-82967642D01*
X107945661Y-82965477D01*
X107926123Y-82958366D01*
X107908206Y-82953173D01*
X107891837Y-82947636D01*
X107876943Y-82939493D01*
X107863453Y-82926484D01*
X107851293Y-82906346D01*
X107840390Y-82876818D01*
X107830673Y-82835638D01*
X107822068Y-82780544D01*
X107814502Y-82709275D01*
X107807904Y-82619569D01*
X107802200Y-82509164D01*
X107797318Y-82375800D01*
X107793185Y-82217213D01*
X107789729Y-82031143D01*
X107786876Y-81815328D01*
X107785940Y-81715391D01*
X108506153Y-81715391D01*
X108506943Y-81724961D01*
X108521430Y-81732717D01*
X108554162Y-81738849D01*
X108609685Y-81743546D01*
X108692548Y-81747000D01*
X108807298Y-81749400D01*
X108958482Y-81750935D01*
X109150647Y-81751797D01*
X109388341Y-81752174D01*
X109676111Y-81752258D01*
X110881548Y-81752258D01*
X110677742Y-81383548D01*
X110677742Y-76030430D01*
X110881548Y-75661720D01*
X108726871Y-75661720D01*
X108719081Y-78495322D01*
X108711291Y-81328925D01*
X108634908Y-81492055D01*
X108594637Y-81572910D01*
X108549036Y-81653907D01*
X108514599Y-81703721D01*
X108514513Y-81703817D01*
X108506153Y-81715391D01*
X107785940Y-81715391D01*
X107784555Y-81567506D01*
X107782693Y-81285415D01*
X107781216Y-80966795D01*
X107780053Y-80609382D01*
X107779131Y-80210917D01*
X107778376Y-79769136D01*
X107777717Y-79281778D01*
X107777081Y-78746582D01*
X107776395Y-78161287D01*
X107775587Y-77523629D01*
X107775482Y-77446433D01*
X107774581Y-76812817D01*
X107773719Y-76231298D01*
X107772960Y-75699614D01*
X107772368Y-75215502D01*
X107772007Y-74776700D01*
X107771940Y-74380946D01*
X107772232Y-74025975D01*
X107772947Y-73709527D01*
X107774147Y-73429337D01*
X107775897Y-73183144D01*
X107778260Y-72968684D01*
X107781302Y-72783696D01*
X107785084Y-72625916D01*
X107789671Y-72493082D01*
X107795127Y-72382930D01*
X107801516Y-72293199D01*
X107808901Y-72221626D01*
X107817346Y-72165947D01*
X107826915Y-72123901D01*
X107837672Y-72093225D01*
X107849681Y-72071655D01*
X107863005Y-72056930D01*
X107877708Y-72046787D01*
X107893855Y-72038962D01*
X107911508Y-72031194D01*
X107930731Y-72021219D01*
X107936356Y-72018040D01*
X108021470Y-71987273D01*
X108114645Y-71974628D01*
X108219678Y-71974632D01*
X108221428Y-72213606D01*
X108221872Y-72241106D01*
X108255256Y-72520643D01*
X108340284Y-72783661D01*
X108475773Y-73027376D01*
X108660543Y-73249001D01*
X108759696Y-73339393D01*
X108980469Y-73489217D01*
X109221353Y-73593697D01*
X109475333Y-73652776D01*
X109735393Y-73666399D01*
X109994517Y-73634510D01*
X110245690Y-73557052D01*
X110452166Y-73449462D01*
X111365998Y-73449462D01*
X111486171Y-73535921D01*
X111587805Y-73617180D01*
X111731016Y-73749720D01*
X111893452Y-73915830D01*
X112068963Y-74109180D01*
X112251398Y-74323441D01*
X112298379Y-74380738D01*
X112378366Y-74479010D01*
X112482921Y-74607939D01*
X112608579Y-74763221D01*
X112751877Y-74940554D01*
X112909350Y-75135633D01*
X113077536Y-75344157D01*
X113252969Y-75561821D01*
X113333435Y-75661720D01*
X113432187Y-75784323D01*
X113611726Y-76007359D01*
X113788121Y-76226627D01*
X113957909Y-76437822D01*
X114117626Y-76636643D01*
X114263808Y-76818784D01*
X114392992Y-76979945D01*
X114501713Y-77115820D01*
X114586508Y-77222108D01*
X114643913Y-77294504D01*
X114670464Y-77328706D01*
X114672655Y-77341559D01*
X114665366Y-77366004D01*
X114646477Y-77404463D01*
X114614103Y-77459662D01*
X114566357Y-77534331D01*
X114501355Y-77631196D01*
X114417212Y-77752986D01*
X114312041Y-77902430D01*
X114183957Y-78082254D01*
X114031075Y-78295187D01*
X113851508Y-78543957D01*
X113643372Y-78831292D01*
X113404782Y-79159920D01*
X113214675Y-79421504D01*
X112982740Y-79740397D01*
X112778722Y-80020446D01*
X112600251Y-80264760D01*
X112444952Y-80476446D01*
X112310454Y-80658614D01*
X112194383Y-80814370D01*
X112094367Y-80946823D01*
X112008034Y-81059081D01*
X111933011Y-81154251D01*
X111866925Y-81235443D01*
X111807404Y-81305764D01*
X111752076Y-81368322D01*
X111698566Y-81426225D01*
X111644504Y-81482582D01*
X111587516Y-81540500D01*
X111377505Y-81752258D01*
X112789236Y-81752315D01*
X114200968Y-81752372D01*
X114192097Y-81581274D01*
X114191667Y-81572677D01*
X114189983Y-81504277D01*
X114193175Y-81438742D01*
X114203378Y-81372480D01*
X114222728Y-81301903D01*
X114253359Y-81223420D01*
X114297407Y-81133441D01*
X114357007Y-81028378D01*
X114434295Y-80904640D01*
X114531405Y-80758637D01*
X114650473Y-80586780D01*
X114793635Y-80385478D01*
X114963025Y-80151143D01*
X115160779Y-79880183D01*
X115389033Y-79569010D01*
X116194732Y-78472123D01*
X116201830Y-79743932D01*
X116202459Y-79862566D01*
X116203569Y-80182112D01*
X116203064Y-80453907D01*
X116200352Y-80683095D01*
X116194837Y-80874820D01*
X116185926Y-81034225D01*
X116173025Y-81166453D01*
X116155540Y-81276648D01*
X116132877Y-81369953D01*
X116104441Y-81451512D01*
X116069640Y-81526469D01*
X116027878Y-81599968D01*
X115978561Y-81677150D01*
X115928987Y-81752258D01*
X118505361Y-81752258D01*
X118438811Y-81663494D01*
X118428389Y-81649452D01*
X118345064Y-81520750D01*
X118287624Y-81390647D01*
X118249905Y-81241568D01*
X118225745Y-81055941D01*
X118225082Y-81047849D01*
X118221576Y-80971283D01*
X118218410Y-80843535D01*
X118215599Y-80667527D01*
X118213156Y-80446177D01*
X118211094Y-80182404D01*
X118209429Y-79879127D01*
X118208172Y-79539265D01*
X118207338Y-79165738D01*
X118206941Y-78761464D01*
X118206994Y-78329362D01*
X118207512Y-77872353D01*
X118208508Y-77393354D01*
X118209562Y-76963691D01*
X118210690Y-76495994D01*
X118211801Y-76077543D01*
X118213033Y-75705409D01*
X118214527Y-75376658D01*
X118216422Y-75088359D01*
X118218857Y-74837581D01*
X118221971Y-74621393D01*
X118225904Y-74436861D01*
X118230796Y-74281055D01*
X118236786Y-74151043D01*
X118244013Y-74043894D01*
X118252616Y-73956675D01*
X118262736Y-73886455D01*
X118274511Y-73830303D01*
X118288081Y-73785286D01*
X118303586Y-73748474D01*
X118321164Y-73716933D01*
X118340955Y-73687734D01*
X118363099Y-73657944D01*
X118387735Y-73624631D01*
X118411564Y-73591248D01*
X118457620Y-73525243D01*
X118485208Y-73483602D01*
X118485874Y-73481858D01*
X118476241Y-73473983D01*
X118442248Y-73467413D01*
X118380111Y-73462045D01*
X118286048Y-73457780D01*
X118156276Y-73454517D01*
X117987014Y-73452154D01*
X117774477Y-73450591D01*
X117514885Y-73449728D01*
X117204453Y-73449462D01*
X115903102Y-73449462D01*
X115971687Y-73530972D01*
X116011437Y-73586954D01*
X116077602Y-73718950D01*
X116135584Y-73883117D01*
X116179838Y-74065220D01*
X116182659Y-74082508D01*
X116191051Y-74173644D01*
X116197407Y-74314493D01*
X116201742Y-74506030D01*
X116204074Y-74749230D01*
X116204420Y-75045069D01*
X116202796Y-75394522D01*
X116194732Y-76561195D01*
X115361721Y-75507783D01*
X115337862Y-75477609D01*
X115126618Y-75210185D01*
X114946273Y-74981160D01*
X114793955Y-74786642D01*
X114666796Y-74622735D01*
X114561923Y-74485547D01*
X114476469Y-74371181D01*
X114407561Y-74275746D01*
X114352331Y-74195345D01*
X114307909Y-74126086D01*
X114271423Y-74064074D01*
X114240004Y-74005416D01*
X114210782Y-73946216D01*
X114165828Y-73841426D01*
X114136788Y-73730883D01*
X114129064Y-73611646D01*
X114129840Y-73449462D01*
X111365998Y-73449462D01*
X110452166Y-73449462D01*
X110481895Y-73433971D01*
X110696118Y-73265210D01*
X110755670Y-73205714D01*
X110931686Y-72985424D01*
X111056584Y-72746359D01*
X111131032Y-72486976D01*
X111155699Y-72205734D01*
X111155699Y-71974623D01*
X115076303Y-71974623D01*
X115321244Y-71974613D01*
X115847446Y-71974541D01*
X116322794Y-71974490D01*
X116749918Y-71974561D01*
X117131445Y-71974860D01*
X117470004Y-71975491D01*
X117768224Y-71976556D01*
X118028733Y-71978161D01*
X118254161Y-71980409D01*
X118447135Y-71983404D01*
X118610284Y-71987250D01*
X118746238Y-71992050D01*
X118857624Y-71997910D01*
X118947071Y-72004932D01*
X119017208Y-72013221D01*
X119070663Y-72022880D01*
X119110065Y-72034014D01*
X119138043Y-72046726D01*
X119157226Y-72061121D01*
X119170241Y-72077301D01*
X119179718Y-72095372D01*
X119188285Y-72115437D01*
X119198570Y-72137600D01*
X119198755Y-72137962D01*
X119203749Y-72152470D01*
X119208330Y-72176764D01*
X119212515Y-72213084D01*
X119216321Y-72263674D01*
X119219767Y-72330775D01*
X119222869Y-72416629D01*
X119225645Y-72523478D01*
X119228113Y-72653564D01*
X119230288Y-72809128D01*
X119232190Y-72992413D01*
X119233836Y-73205661D01*
X119235242Y-73451113D01*
X119236426Y-73731012D01*
X119237406Y-74047599D01*
X119238198Y-74403116D01*
X119238822Y-74799805D01*
X119239292Y-75239909D01*
X119239628Y-75725668D01*
X119239847Y-76259325D01*
X119239965Y-76843122D01*
X119240000Y-77479301D01*
X119240002Y-77604279D01*
X119240062Y-78233828D01*
X119240156Y-78811438D01*
X119240211Y-79339368D01*
X119240156Y-79819877D01*
X119239922Y-80255223D01*
X119239435Y-80647664D01*
X119238625Y-80999459D01*
X119237421Y-81312867D01*
X119235752Y-81590145D01*
X119234283Y-81752258D01*
X119233547Y-81833553D01*
G37*
%TO.C,Logo2*%
X99561209Y-106541032D02*
X99762101Y-106615655D01*
X99845647Y-106671724D01*
X99930253Y-106752060D01*
X99990603Y-106854253D01*
X100030654Y-106993374D01*
X100054363Y-107184495D01*
X100065687Y-107442688D01*
X100068582Y-107783024D01*
X100068015Y-107958902D01*
X100065168Y-108199235D01*
X100060334Y-108391034D01*
X100053973Y-108518037D01*
X100046542Y-108563985D01*
X99998182Y-108548787D01*
X99900565Y-108507515D01*
X99897635Y-108506179D01*
X99846945Y-108479643D01*
X99812853Y-108443230D01*
X99792067Y-108379454D01*
X99781295Y-108270825D01*
X99777246Y-108099855D01*
X99776628Y-107849056D01*
X99775382Y-107689956D01*
X99762092Y-107390951D01*
X99731662Y-107171939D01*
X99680876Y-107021432D01*
X99606519Y-106927945D01*
X99505377Y-106879991D01*
X99491345Y-106876648D01*
X99301897Y-106874038D01*
X99154152Y-106958913D01*
X99052108Y-107129076D01*
X99033910Y-107178269D01*
X98992429Y-107287138D01*
X98971423Y-107337167D01*
X98928282Y-107330273D01*
X98834065Y-107292862D01*
X98746191Y-107231078D01*
X98706130Y-107114313D01*
X98718079Y-107030677D01*
X98791495Y-106861030D01*
X98910205Y-106702059D01*
X99049024Y-106592116D01*
X99107184Y-106566697D01*
X99327404Y-106524202D01*
X99561209Y-106541032D01*
G36*
X99561209Y-106541032D02*
G01*
X99762101Y-106615655D01*
X99845647Y-106671724D01*
X99930253Y-106752060D01*
X99990603Y-106854253D01*
X100030654Y-106993374D01*
X100054363Y-107184495D01*
X100065687Y-107442688D01*
X100068582Y-107783024D01*
X100068015Y-107958902D01*
X100065168Y-108199235D01*
X100060334Y-108391034D01*
X100053973Y-108518037D01*
X100046542Y-108563985D01*
X99998182Y-108548787D01*
X99900565Y-108507515D01*
X99897635Y-108506179D01*
X99846945Y-108479643D01*
X99812853Y-108443230D01*
X99792067Y-108379454D01*
X99781295Y-108270825D01*
X99777246Y-108099855D01*
X99776628Y-107849056D01*
X99775382Y-107689956D01*
X99762092Y-107390951D01*
X99731662Y-107171939D01*
X99680876Y-107021432D01*
X99606519Y-106927945D01*
X99505377Y-106879991D01*
X99491345Y-106876648D01*
X99301897Y-106874038D01*
X99154152Y-106958913D01*
X99052108Y-107129076D01*
X99033910Y-107178269D01*
X98992429Y-107287138D01*
X98971423Y-107337167D01*
X98928282Y-107330273D01*
X98834065Y-107292862D01*
X98746191Y-107231078D01*
X98706130Y-107114313D01*
X98718079Y-107030677D01*
X98791495Y-106861030D01*
X98910205Y-106702059D01*
X99049024Y-106592116D01*
X99107184Y-106566697D01*
X99327404Y-106524202D01*
X99561209Y-106541032D01*
G37*
X112797479Y-106429481D02*
X113024747Y-106536283D01*
X113210997Y-106720974D01*
X113249601Y-106778788D01*
X113281621Y-106844316D01*
X113304330Y-106926909D01*
X113319795Y-107042614D01*
X113330082Y-107207483D01*
X113337261Y-107437565D01*
X113343396Y-107748910D01*
X113358632Y-108612571D01*
X113230638Y-108563907D01*
X113113447Y-108519201D01*
X113025707Y-108476177D01*
X112968433Y-108420718D01*
X112935154Y-108335851D01*
X112919397Y-108204602D01*
X112914690Y-108009999D01*
X112914559Y-107735070D01*
X112913893Y-107515931D01*
X112909918Y-107305657D01*
X112900432Y-107162039D01*
X112883267Y-107067787D01*
X112856259Y-107005616D01*
X112817241Y-106958238D01*
X112721321Y-106891378D01*
X112560187Y-106866178D01*
X112400775Y-106929862D01*
X112390254Y-106938016D01*
X112357461Y-106975688D01*
X112333271Y-107036107D01*
X112315657Y-107134186D01*
X112302591Y-107284835D01*
X112292045Y-107502966D01*
X112281992Y-107803492D01*
X112257662Y-108608179D01*
X112050862Y-108515472D01*
X111844061Y-108422766D01*
X111844061Y-107688086D01*
X111844919Y-107488496D01*
X111852299Y-107210844D01*
X111870990Y-107004114D01*
X111905454Y-106851646D01*
X111960155Y-106736776D01*
X112039559Y-106642845D01*
X112148128Y-106553190D01*
X112304284Y-106462865D01*
X112550291Y-106403898D01*
X112797479Y-106429481D01*
G36*
X112797479Y-106429481D02*
G01*
X113024747Y-106536283D01*
X113210997Y-106720974D01*
X113249601Y-106778788D01*
X113281621Y-106844316D01*
X113304330Y-106926909D01*
X113319795Y-107042614D01*
X113330082Y-107207483D01*
X113337261Y-107437565D01*
X113343396Y-107748910D01*
X113358632Y-108612571D01*
X113230638Y-108563907D01*
X113113447Y-108519201D01*
X113025707Y-108476177D01*
X112968433Y-108420718D01*
X112935154Y-108335851D01*
X112919397Y-108204602D01*
X112914690Y-108009999D01*
X112914559Y-107735070D01*
X112913893Y-107515931D01*
X112909918Y-107305657D01*
X112900432Y-107162039D01*
X112883267Y-107067787D01*
X112856259Y-107005616D01*
X112817241Y-106958238D01*
X112721321Y-106891378D01*
X112560187Y-106866178D01*
X112400775Y-106929862D01*
X112390254Y-106938016D01*
X112357461Y-106975688D01*
X112333271Y-107036107D01*
X112315657Y-107134186D01*
X112302591Y-107284835D01*
X112292045Y-107502966D01*
X112281992Y-107803492D01*
X112257662Y-108608179D01*
X112050862Y-108515472D01*
X111844061Y-108422766D01*
X111844061Y-107688086D01*
X111844919Y-107488496D01*
X111852299Y-107210844D01*
X111870990Y-107004114D01*
X111905454Y-106851646D01*
X111960155Y-106736776D01*
X112039559Y-106642845D01*
X112148128Y-106553190D01*
X112304284Y-106462865D01*
X112550291Y-106403898D01*
X112797479Y-106429481D01*
G37*
X106684787Y-106592561D02*
X106700150Y-106601063D01*
X106825634Y-106698467D01*
X106937830Y-106823691D01*
X106957398Y-106851994D01*
X106994805Y-106918042D01*
X107021530Y-106996430D01*
X107039908Y-107104153D01*
X107052274Y-107258205D01*
X107060965Y-107475581D01*
X107068314Y-107773276D01*
X107069356Y-107823604D01*
X107072700Y-108149902D01*
X107067987Y-108381006D01*
X107055146Y-108518505D01*
X107034110Y-108563985D01*
X106970444Y-108550367D01*
X106862290Y-108509105D01*
X106836823Y-108497038D01*
X106797045Y-108469725D01*
X106769615Y-108424822D01*
X106751675Y-108346388D01*
X106740364Y-108218481D01*
X106732822Y-108025158D01*
X106726188Y-107750479D01*
X106724369Y-107670186D01*
X106717345Y-107416600D01*
X106708227Y-107239128D01*
X106694256Y-107120942D01*
X106672677Y-107045216D01*
X106640731Y-106995120D01*
X106595663Y-106953827D01*
X106462227Y-106881435D01*
X106298076Y-106867497D01*
X106151198Y-106922891D01*
X106045523Y-107037581D01*
X106004980Y-107201533D01*
X106003852Y-107246098D01*
X105981706Y-107326776D01*
X105916326Y-107339084D01*
X105788304Y-107291040D01*
X105758653Y-107275631D01*
X105678515Y-107185010D01*
X105676929Y-107050268D01*
X105753280Y-106863920D01*
X105823317Y-106762366D01*
X106002391Y-106618099D01*
X106223428Y-106536534D01*
X106459777Y-106525433D01*
X106684787Y-106592561D01*
G36*
X106684787Y-106592561D02*
G01*
X106700150Y-106601063D01*
X106825634Y-106698467D01*
X106937830Y-106823691D01*
X106957398Y-106851994D01*
X106994805Y-106918042D01*
X107021530Y-106996430D01*
X107039908Y-107104153D01*
X107052274Y-107258205D01*
X107060965Y-107475581D01*
X107068314Y-107773276D01*
X107069356Y-107823604D01*
X107072700Y-108149902D01*
X107067987Y-108381006D01*
X107055146Y-108518505D01*
X107034110Y-108563985D01*
X106970444Y-108550367D01*
X106862290Y-108509105D01*
X106836823Y-108497038D01*
X106797045Y-108469725D01*
X106769615Y-108424822D01*
X106751675Y-108346388D01*
X106740364Y-108218481D01*
X106732822Y-108025158D01*
X106726188Y-107750479D01*
X106724369Y-107670186D01*
X106717345Y-107416600D01*
X106708227Y-107239128D01*
X106694256Y-107120942D01*
X106672677Y-107045216D01*
X106640731Y-106995120D01*
X106595663Y-106953827D01*
X106462227Y-106881435D01*
X106298076Y-106867497D01*
X106151198Y-106922891D01*
X106045523Y-107037581D01*
X106004980Y-107201533D01*
X106003852Y-107246098D01*
X105981706Y-107326776D01*
X105916326Y-107339084D01*
X105788304Y-107291040D01*
X105758653Y-107275631D01*
X105678515Y-107185010D01*
X105676929Y-107050268D01*
X105753280Y-106863920D01*
X105823317Y-106762366D01*
X106002391Y-106618099D01*
X106223428Y-106536534D01*
X106459777Y-106525433D01*
X106684787Y-106592561D01*
G37*
X110432950Y-105931701D02*
X110432950Y-107247843D01*
X110432949Y-107263201D01*
X110432294Y-107608471D01*
X110430547Y-107919054D01*
X110427870Y-108182422D01*
X110424425Y-108386051D01*
X110420375Y-108517414D01*
X110415881Y-108563985D01*
X110414124Y-108563828D01*
X110354411Y-108546908D01*
X110245575Y-108510566D01*
X110092337Y-108457147D01*
X110092337Y-107771652D01*
X110091363Y-107502309D01*
X110086839Y-107306961D01*
X110076429Y-107174025D01*
X110057799Y-107085886D01*
X110028613Y-107024929D01*
X109986537Y-106973539D01*
X109957850Y-106946208D01*
X109802726Y-106870511D01*
X109631751Y-106877214D01*
X109475071Y-106966720D01*
X109452262Y-106988931D01*
X109415731Y-107035053D01*
X109390734Y-107096023D01*
X109375088Y-107188334D01*
X109366614Y-107328480D01*
X109363129Y-107532955D01*
X109362452Y-107818252D01*
X109362127Y-107962948D01*
X109360016Y-108200941D01*
X109356268Y-108391539D01*
X109351264Y-108518100D01*
X109345383Y-108563985D01*
X109343626Y-108563828D01*
X109283913Y-108546908D01*
X109175077Y-108510566D01*
X109021839Y-108457147D01*
X109021914Y-107768516D01*
X109022030Y-107707211D01*
X109028468Y-107387633D01*
X109048250Y-107145976D01*
X109086208Y-106965850D01*
X109147177Y-106830865D01*
X109235991Y-106724631D01*
X109357483Y-106630759D01*
X109475976Y-106571999D01*
X109665425Y-106526577D01*
X109851767Y-106523997D01*
X109995019Y-106568183D01*
X110005788Y-106574286D01*
X110039002Y-106573632D01*
X110061698Y-106522511D01*
X110078077Y-106405313D01*
X110092337Y-106206429D01*
X110116666Y-105798289D01*
X110432950Y-105931701D01*
G36*
X110432950Y-105931701D02*
G01*
X110432950Y-107247843D01*
X110432949Y-107263201D01*
X110432294Y-107608471D01*
X110430547Y-107919054D01*
X110427870Y-108182422D01*
X110424425Y-108386051D01*
X110420375Y-108517414D01*
X110415881Y-108563985D01*
X110414124Y-108563828D01*
X110354411Y-108546908D01*
X110245575Y-108510566D01*
X110092337Y-108457147D01*
X110092337Y-107771652D01*
X110091363Y-107502309D01*
X110086839Y-107306961D01*
X110076429Y-107174025D01*
X110057799Y-107085886D01*
X110028613Y-107024929D01*
X109986537Y-106973539D01*
X109957850Y-106946208D01*
X109802726Y-106870511D01*
X109631751Y-106877214D01*
X109475071Y-106966720D01*
X109452262Y-106988931D01*
X109415731Y-107035053D01*
X109390734Y-107096023D01*
X109375088Y-107188334D01*
X109366614Y-107328480D01*
X109363129Y-107532955D01*
X109362452Y-107818252D01*
X109362127Y-107962948D01*
X109360016Y-108200941D01*
X109356268Y-108391539D01*
X109351264Y-108518100D01*
X109345383Y-108563985D01*
X109343626Y-108563828D01*
X109283913Y-108546908D01*
X109175077Y-108510566D01*
X109021839Y-108457147D01*
X109021914Y-107768516D01*
X109022030Y-107707211D01*
X109028468Y-107387633D01*
X109048250Y-107145976D01*
X109086208Y-106965850D01*
X109147177Y-106830865D01*
X109235991Y-106724631D01*
X109357483Y-106630759D01*
X109475976Y-106571999D01*
X109665425Y-106526577D01*
X109851767Y-106523997D01*
X109995019Y-106568183D01*
X110005788Y-106574286D01*
X110039002Y-106573632D01*
X110061698Y-106522511D01*
X110078077Y-106405313D01*
X110092337Y-106206429D01*
X110116666Y-105798289D01*
X110432950Y-105931701D01*
G37*
X103487350Y-106534950D02*
X103594070Y-106576776D01*
X103718007Y-106633246D01*
X103718007Y-108264545D01*
X103564024Y-108418528D01*
X103528850Y-108453058D01*
X103431411Y-108529808D01*
X103333143Y-108554668D01*
X103186917Y-108543223D01*
X103127381Y-108535824D01*
X102973834Y-108520171D01*
X102866475Y-108513935D01*
X102834629Y-108514888D01*
X102703983Y-108525210D01*
X102546032Y-108543223D01*
X102495496Y-108549413D01*
X102368184Y-108551845D01*
X102275037Y-108513412D01*
X102168925Y-108418528D01*
X102014942Y-108264545D01*
X102014942Y-107392426D01*
X102016141Y-107134702D01*
X102019882Y-106888985D01*
X102025701Y-106694422D01*
X102033127Y-106566400D01*
X102041688Y-106520307D01*
X102043483Y-106520431D01*
X102105678Y-106543366D01*
X102210762Y-106593908D01*
X102353090Y-106667508D01*
X102366487Y-107433275D01*
X102379885Y-108199042D01*
X102671839Y-108199042D01*
X102685152Y-107359675D01*
X102689373Y-107131507D01*
X102695414Y-106887632D01*
X102701961Y-106694018D01*
X102708467Y-106566349D01*
X102714386Y-106520307D01*
X102716087Y-106520468D01*
X102775084Y-106537406D01*
X102883543Y-106573726D01*
X103036781Y-106627145D01*
X103037526Y-107364435D01*
X103038272Y-107492512D01*
X103043448Y-107741391D01*
X103052702Y-107949240D01*
X103065055Y-108097298D01*
X103079523Y-108166805D01*
X103131284Y-108203982D01*
X103236920Y-108215464D01*
X103353065Y-108199042D01*
X103366378Y-107359675D01*
X103371143Y-107146380D01*
X103381022Y-106893914D01*
X103393942Y-106695884D01*
X103408904Y-106566583D01*
X103424913Y-106520307D01*
X103487350Y-106534950D01*
G36*
X103487350Y-106534950D02*
G01*
X103594070Y-106576776D01*
X103718007Y-106633246D01*
X103718007Y-108264545D01*
X103564024Y-108418528D01*
X103528850Y-108453058D01*
X103431411Y-108529808D01*
X103333143Y-108554668D01*
X103186917Y-108543223D01*
X103127381Y-108535824D01*
X102973834Y-108520171D01*
X102866475Y-108513935D01*
X102834629Y-108514888D01*
X102703983Y-108525210D01*
X102546032Y-108543223D01*
X102495496Y-108549413D01*
X102368184Y-108551845D01*
X102275037Y-108513412D01*
X102168925Y-108418528D01*
X102014942Y-108264545D01*
X102014942Y-107392426D01*
X102016141Y-107134702D01*
X102019882Y-106888985D01*
X102025701Y-106694422D01*
X102033127Y-106566400D01*
X102041688Y-106520307D01*
X102043483Y-106520431D01*
X102105678Y-106543366D01*
X102210762Y-106593908D01*
X102353090Y-106667508D01*
X102366487Y-107433275D01*
X102379885Y-108199042D01*
X102671839Y-108199042D01*
X102685152Y-107359675D01*
X102689373Y-107131507D01*
X102695414Y-106887632D01*
X102701961Y-106694018D01*
X102708467Y-106566349D01*
X102714386Y-106520307D01*
X102716087Y-106520468D01*
X102775084Y-106537406D01*
X102883543Y-106573726D01*
X103036781Y-106627145D01*
X103037526Y-107364435D01*
X103038272Y-107492512D01*
X103043448Y-107741391D01*
X103052702Y-107949240D01*
X103065055Y-108097298D01*
X103079523Y-108166805D01*
X103131284Y-108203982D01*
X103236920Y-108215464D01*
X103353065Y-108199042D01*
X103366378Y-107359675D01*
X103371143Y-107146380D01*
X103381022Y-106893914D01*
X103393942Y-106695884D01*
X103408904Y-106566583D01*
X103424913Y-106520307D01*
X103487350Y-106534950D01*
G37*
X118948275Y-107493487D02*
X118948229Y-107546240D01*
X118945592Y-107781530D01*
X118936526Y-107945475D01*
X118917738Y-108059984D01*
X118885935Y-108146969D01*
X118837823Y-108228341D01*
X118825986Y-108245225D01*
X118700739Y-108378353D01*
X118558033Y-108478756D01*
X118484753Y-108511337D01*
X118221434Y-108565680D01*
X117961022Y-108530529D01*
X117721030Y-108410415D01*
X117518975Y-108209871D01*
X117501916Y-108183005D01*
X117446411Y-108027009D01*
X117409008Y-107809799D01*
X117390860Y-107558952D01*
X117392899Y-107326911D01*
X117883973Y-107326911D01*
X117887843Y-107648367D01*
X117889398Y-107669055D01*
X117912070Y-107846429D01*
X117952441Y-107958911D01*
X118020609Y-108035973D01*
X118134902Y-108108158D01*
X118247940Y-108111953D01*
X118364367Y-108028736D01*
X118384619Y-108006837D01*
X118424291Y-107941308D01*
X118447712Y-107846123D01*
X118458854Y-107698761D01*
X118461685Y-107476699D01*
X118456834Y-107268704D01*
X118432637Y-107070544D01*
X118382683Y-106945306D01*
X118300981Y-106879821D01*
X118181540Y-106860920D01*
X118136053Y-106864678D01*
X118008626Y-106933600D01*
X117924417Y-107088167D01*
X117883973Y-107326911D01*
X117392899Y-107326911D01*
X117393118Y-107302045D01*
X117416934Y-107066653D01*
X117463459Y-106880355D01*
X117523248Y-106756278D01*
X117691564Y-106563280D01*
X117919632Y-106443358D01*
X118198805Y-106402135D01*
X118273365Y-106404365D01*
X118492930Y-106450014D01*
X118673280Y-106565011D01*
X118838793Y-106763107D01*
X118848640Y-106777803D01*
X118893201Y-106856847D01*
X118922186Y-106946191D01*
X118938853Y-107067582D01*
X118946463Y-107242765D01*
X118948154Y-107476699D01*
X118948275Y-107493487D01*
G36*
X118948275Y-107493487D02*
G01*
X118948229Y-107546240D01*
X118945592Y-107781530D01*
X118936526Y-107945475D01*
X118917738Y-108059984D01*
X118885935Y-108146969D01*
X118837823Y-108228341D01*
X118825986Y-108245225D01*
X118700739Y-108378353D01*
X118558033Y-108478756D01*
X118484753Y-108511337D01*
X118221434Y-108565680D01*
X117961022Y-108530529D01*
X117721030Y-108410415D01*
X117518975Y-108209871D01*
X117501916Y-108183005D01*
X117446411Y-108027009D01*
X117409008Y-107809799D01*
X117390860Y-107558952D01*
X117392899Y-107326911D01*
X117883973Y-107326911D01*
X117887843Y-107648367D01*
X117889398Y-107669055D01*
X117912070Y-107846429D01*
X117952441Y-107958911D01*
X118020609Y-108035973D01*
X118134902Y-108108158D01*
X118247940Y-108111953D01*
X118364367Y-108028736D01*
X118384619Y-108006837D01*
X118424291Y-107941308D01*
X118447712Y-107846123D01*
X118458854Y-107698761D01*
X118461685Y-107476699D01*
X118456834Y-107268704D01*
X118432637Y-107070544D01*
X118382683Y-106945306D01*
X118300981Y-106879821D01*
X118181540Y-106860920D01*
X118136053Y-106864678D01*
X118008626Y-106933600D01*
X117924417Y-107088167D01*
X117883973Y-107326911D01*
X117392899Y-107326911D01*
X117393118Y-107302045D01*
X117416934Y-107066653D01*
X117463459Y-106880355D01*
X117523248Y-106756278D01*
X117691564Y-106563280D01*
X117919632Y-106443358D01*
X118198805Y-106402135D01*
X118273365Y-106404365D01*
X118492930Y-106450014D01*
X118673280Y-106565011D01*
X118838793Y-106763107D01*
X118848640Y-106777803D01*
X118893201Y-106856847D01*
X118922186Y-106946191D01*
X118938853Y-107067582D01*
X118946463Y-107242765D01*
X118948154Y-107476699D01*
X118948275Y-107493487D01*
G37*
X98413855Y-107551894D02*
X98412906Y-107681577D01*
X98401020Y-107937090D01*
X98369913Y-108124069D01*
X98312561Y-108262591D01*
X98221937Y-108372735D01*
X98091017Y-108474579D01*
X98007716Y-108520892D01*
X97874189Y-108552085D01*
X97686616Y-108549623D01*
X97581750Y-108539742D01*
X97455254Y-108509570D01*
X97354145Y-108443986D01*
X97236520Y-108321777D01*
X97220803Y-108303927D01*
X97115057Y-108166563D01*
X97064604Y-108046926D01*
X97051724Y-107905057D01*
X97051724Y-107696576D01*
X97197412Y-107751567D01*
X97303624Y-107815848D01*
X97395945Y-107966680D01*
X97415219Y-108014972D01*
X97522980Y-108151735D01*
X97669672Y-108220579D01*
X97829395Y-108214389D01*
X97976245Y-108126054D01*
X98026713Y-108070971D01*
X98072482Y-107987867D01*
X98058164Y-107912361D01*
X97975771Y-107834650D01*
X97817315Y-107744930D01*
X97574808Y-107633398D01*
X97076053Y-107415094D01*
X97062817Y-107198830D01*
X97067793Y-107061081D01*
X97392753Y-107061081D01*
X97417421Y-107146359D01*
X97529661Y-107237404D01*
X97733378Y-107340995D01*
X97767087Y-107356002D01*
X97928282Y-107425822D01*
X98048890Y-107474931D01*
X98104934Y-107493487D01*
X98113427Y-107479827D01*
X98116834Y-107396421D01*
X98104686Y-107262357D01*
X98074087Y-107131256D01*
X97978646Y-106966086D01*
X97840873Y-106873014D01*
X97676306Y-106860417D01*
X97500482Y-106936667D01*
X97451755Y-106974794D01*
X97392753Y-107061081D01*
X97067793Y-107061081D01*
X97068660Y-107037092D01*
X97142226Y-106832696D01*
X97235083Y-106720057D01*
X97427601Y-106594233D01*
X97655979Y-106530672D01*
X97892062Y-106535703D01*
X98107695Y-106615655D01*
X98155164Y-106646355D01*
X98264046Y-106741352D01*
X98338510Y-106861526D01*
X98384401Y-107024756D01*
X98407568Y-107248919D01*
X98410629Y-107396421D01*
X98413855Y-107551894D01*
G36*
X98413855Y-107551894D02*
G01*
X98412906Y-107681577D01*
X98401020Y-107937090D01*
X98369913Y-108124069D01*
X98312561Y-108262591D01*
X98221937Y-108372735D01*
X98091017Y-108474579D01*
X98007716Y-108520892D01*
X97874189Y-108552085D01*
X97686616Y-108549623D01*
X97581750Y-108539742D01*
X97455254Y-108509570D01*
X97354145Y-108443986D01*
X97236520Y-108321777D01*
X97220803Y-108303927D01*
X97115057Y-108166563D01*
X97064604Y-108046926D01*
X97051724Y-107905057D01*
X97051724Y-107696576D01*
X97197412Y-107751567D01*
X97303624Y-107815848D01*
X97395945Y-107966680D01*
X97415219Y-108014972D01*
X97522980Y-108151735D01*
X97669672Y-108220579D01*
X97829395Y-108214389D01*
X97976245Y-108126054D01*
X98026713Y-108070971D01*
X98072482Y-107987867D01*
X98058164Y-107912361D01*
X97975771Y-107834650D01*
X97817315Y-107744930D01*
X97574808Y-107633398D01*
X97076053Y-107415094D01*
X97062817Y-107198830D01*
X97067793Y-107061081D01*
X97392753Y-107061081D01*
X97417421Y-107146359D01*
X97529661Y-107237404D01*
X97733378Y-107340995D01*
X97767087Y-107356002D01*
X97928282Y-107425822D01*
X98048890Y-107474931D01*
X98104934Y-107493487D01*
X98113427Y-107479827D01*
X98116834Y-107396421D01*
X98104686Y-107262357D01*
X98074087Y-107131256D01*
X97978646Y-106966086D01*
X97840873Y-106873014D01*
X97676306Y-106860417D01*
X97500482Y-106936667D01*
X97451755Y-106974794D01*
X97392753Y-107061081D01*
X97067793Y-107061081D01*
X97068660Y-107037092D01*
X97142226Y-106832696D01*
X97235083Y-106720057D01*
X97427601Y-106594233D01*
X97655979Y-106530672D01*
X97892062Y-106535703D01*
X98107695Y-106615655D01*
X98155164Y-106646355D01*
X98264046Y-106741352D01*
X98338510Y-106861526D01*
X98384401Y-107024756D01*
X98407568Y-107248919D01*
X98410629Y-107396421D01*
X98413855Y-107551894D01*
G37*
X105420921Y-107542146D02*
X105417031Y-107731892D01*
X105389565Y-107990534D01*
X105329805Y-108184354D01*
X105230758Y-108332353D01*
X105085428Y-108453532D01*
X104946992Y-108523583D01*
X104714514Y-108562564D01*
X104482352Y-108519942D01*
X104272517Y-108401157D01*
X104107016Y-108211652D01*
X104087032Y-108176707D01*
X104060639Y-108115485D01*
X104041064Y-108037359D01*
X104027296Y-107928926D01*
X104018329Y-107776784D01*
X104013153Y-107567532D01*
X104012994Y-107548965D01*
X104350574Y-107548965D01*
X104351725Y-107726073D01*
X104359000Y-107886270D01*
X104376986Y-107989686D01*
X104410209Y-108059171D01*
X104463193Y-108117572D01*
X104475607Y-108128799D01*
X104635100Y-108211653D01*
X104803854Y-108203175D01*
X104961024Y-108103936D01*
X105007824Y-108052523D01*
X105046992Y-107984364D01*
X105068870Y-107890134D01*
X105078383Y-107746096D01*
X105080459Y-107528510D01*
X105079434Y-107362479D01*
X105072344Y-107200418D01*
X105054469Y-107095837D01*
X105021178Y-107025636D01*
X104967840Y-106966720D01*
X104936508Y-106940190D01*
X104774154Y-106868725D01*
X104604061Y-106879975D01*
X104456374Y-106973539D01*
X104424582Y-107010637D01*
X104385809Y-107080489D01*
X104363392Y-107178037D01*
X104353068Y-107326467D01*
X104350574Y-107548965D01*
X104012994Y-107548965D01*
X104010761Y-107287769D01*
X104010143Y-106924093D01*
X104009961Y-105795120D01*
X104168103Y-105861366D01*
X104209915Y-105879499D01*
X104276468Y-105920446D01*
X104314564Y-105982458D01*
X104335501Y-106090902D01*
X104350574Y-106271145D01*
X104364342Y-106432981D01*
X104382539Y-106539225D01*
X104408607Y-106578872D01*
X104447892Y-106568238D01*
X104548001Y-106530875D01*
X104726908Y-106521613D01*
X104919373Y-106556214D01*
X105085428Y-106630759D01*
X105176786Y-106699760D01*
X105294087Y-106834387D01*
X105369213Y-107006993D01*
X105409160Y-107236579D01*
X105420397Y-107528510D01*
X105420921Y-107542146D01*
G36*
X105420921Y-107542146D02*
G01*
X105417031Y-107731892D01*
X105389565Y-107990534D01*
X105329805Y-108184354D01*
X105230758Y-108332353D01*
X105085428Y-108453532D01*
X104946992Y-108523583D01*
X104714514Y-108562564D01*
X104482352Y-108519942D01*
X104272517Y-108401157D01*
X104107016Y-108211652D01*
X104087032Y-108176707D01*
X104060639Y-108115485D01*
X104041064Y-108037359D01*
X104027296Y-107928926D01*
X104018329Y-107776784D01*
X104013153Y-107567532D01*
X104012994Y-107548965D01*
X104350574Y-107548965D01*
X104351725Y-107726073D01*
X104359000Y-107886270D01*
X104376986Y-107989686D01*
X104410209Y-108059171D01*
X104463193Y-108117572D01*
X104475607Y-108128799D01*
X104635100Y-108211653D01*
X104803854Y-108203175D01*
X104961024Y-108103936D01*
X105007824Y-108052523D01*
X105046992Y-107984364D01*
X105068870Y-107890134D01*
X105078383Y-107746096D01*
X105080459Y-107528510D01*
X105079434Y-107362479D01*
X105072344Y-107200418D01*
X105054469Y-107095837D01*
X105021178Y-107025636D01*
X104967840Y-106966720D01*
X104936508Y-106940190D01*
X104774154Y-106868725D01*
X104604061Y-106879975D01*
X104456374Y-106973539D01*
X104424582Y-107010637D01*
X104385809Y-107080489D01*
X104363392Y-107178037D01*
X104353068Y-107326467D01*
X104350574Y-107548965D01*
X104012994Y-107548965D01*
X104010761Y-107287769D01*
X104010143Y-106924093D01*
X104009961Y-105795120D01*
X104168103Y-105861366D01*
X104209915Y-105879499D01*
X104276468Y-105920446D01*
X104314564Y-105982458D01*
X104335501Y-106090902D01*
X104350574Y-106271145D01*
X104364342Y-106432981D01*
X104382539Y-106539225D01*
X104408607Y-106578872D01*
X104447892Y-106568238D01*
X104548001Y-106530875D01*
X104726908Y-106521613D01*
X104919373Y-106556214D01*
X105085428Y-106630759D01*
X105176786Y-106699760D01*
X105294087Y-106834387D01*
X105369213Y-107006993D01*
X105409160Y-107236579D01*
X105420397Y-107528510D01*
X105420921Y-107542146D01*
G37*
X115249086Y-107355549D02*
X115233613Y-107724398D01*
X115224877Y-107802543D01*
X115159780Y-108080682D01*
X115042150Y-108292211D01*
X114863257Y-108454337D01*
X114853146Y-108461027D01*
X114625733Y-108556177D01*
X114388288Y-108564644D01*
X114159493Y-108492185D01*
X113958031Y-108344557D01*
X113802586Y-108127516D01*
X113799977Y-108122283D01*
X113748322Y-107987501D01*
X113710486Y-107834321D01*
X113690416Y-107690519D01*
X113692062Y-107583868D01*
X113719371Y-107542146D01*
X113743632Y-107544681D01*
X113859654Y-107590827D01*
X113991161Y-107675681D01*
X114103033Y-107773905D01*
X114160145Y-107860156D01*
X114219512Y-107977152D01*
X114341184Y-108083564D01*
X114482474Y-108126054D01*
X114534263Y-108113769D01*
X114636484Y-108051924D01*
X114725525Y-107966074D01*
X114763601Y-107888188D01*
X114763590Y-107887900D01*
X114720388Y-107852133D01*
X114605212Y-107787609D01*
X114435415Y-107703396D01*
X114228352Y-107608558D01*
X114227213Y-107608055D01*
X114002258Y-107507896D01*
X113851473Y-107435733D01*
X113760064Y-107380298D01*
X113713240Y-107330324D01*
X113696206Y-107274544D01*
X113694172Y-107201691D01*
X113708326Y-107063740D01*
X114188697Y-107063740D01*
X114238283Y-107107108D01*
X114361834Y-107172094D01*
X114365457Y-107173932D01*
X114511221Y-107243348D01*
X114641623Y-107298725D01*
X114724351Y-107322152D01*
X114757534Y-107290838D01*
X114763601Y-107183541D01*
X114738392Y-107050003D01*
X114650995Y-106928649D01*
X114524462Y-106865733D01*
X114383399Y-106872085D01*
X114252412Y-106958536D01*
X114200925Y-107018275D01*
X114188697Y-107063740D01*
X113708326Y-107063740D01*
X113712084Y-107027109D01*
X113800648Y-106789915D01*
X113948903Y-106603519D01*
X114140747Y-106474461D01*
X114360075Y-106409281D01*
X114590786Y-106414519D01*
X114816775Y-106496716D01*
X115021939Y-106662413D01*
X115135609Y-106826382D01*
X115217260Y-107060435D01*
X115230537Y-107183541D01*
X115249086Y-107355549D01*
G36*
X115249086Y-107355549D02*
G01*
X115233613Y-107724398D01*
X115224877Y-107802543D01*
X115159780Y-108080682D01*
X115042150Y-108292211D01*
X114863257Y-108454337D01*
X114853146Y-108461027D01*
X114625733Y-108556177D01*
X114388288Y-108564644D01*
X114159493Y-108492185D01*
X113958031Y-108344557D01*
X113802586Y-108127516D01*
X113799977Y-108122283D01*
X113748322Y-107987501D01*
X113710486Y-107834321D01*
X113690416Y-107690519D01*
X113692062Y-107583868D01*
X113719371Y-107542146D01*
X113743632Y-107544681D01*
X113859654Y-107590827D01*
X113991161Y-107675681D01*
X114103033Y-107773905D01*
X114160145Y-107860156D01*
X114219512Y-107977152D01*
X114341184Y-108083564D01*
X114482474Y-108126054D01*
X114534263Y-108113769D01*
X114636484Y-108051924D01*
X114725525Y-107966074D01*
X114763601Y-107888188D01*
X114763590Y-107887900D01*
X114720388Y-107852133D01*
X114605212Y-107787609D01*
X114435415Y-107703396D01*
X114228352Y-107608558D01*
X114227213Y-107608055D01*
X114002258Y-107507896D01*
X113851473Y-107435733D01*
X113760064Y-107380298D01*
X113713240Y-107330324D01*
X113696206Y-107274544D01*
X113694172Y-107201691D01*
X113708326Y-107063740D01*
X114188697Y-107063740D01*
X114238283Y-107107108D01*
X114361834Y-107172094D01*
X114365457Y-107173932D01*
X114511221Y-107243348D01*
X114641623Y-107298725D01*
X114724351Y-107322152D01*
X114757534Y-107290838D01*
X114763601Y-107183541D01*
X114738392Y-107050003D01*
X114650995Y-106928649D01*
X114524462Y-106865733D01*
X114383399Y-106872085D01*
X114252412Y-106958536D01*
X114200925Y-107018275D01*
X114188697Y-107063740D01*
X113708326Y-107063740D01*
X113712084Y-107027109D01*
X113800648Y-106789915D01*
X113948903Y-106603519D01*
X114140747Y-106474461D01*
X114360075Y-106409281D01*
X114590786Y-106414519D01*
X114816775Y-106496716D01*
X115021939Y-106662413D01*
X115135609Y-106826382D01*
X115217260Y-107060435D01*
X115230537Y-107183541D01*
X115249086Y-107355549D01*
G37*
X108299991Y-106572790D02*
X108467258Y-106670318D01*
X108540841Y-106746307D01*
X108682244Y-106973454D01*
X108729885Y-107221097D01*
X108729885Y-107391471D01*
X108573271Y-107325620D01*
X108464962Y-107259174D01*
X108379605Y-107121224D01*
X108370840Y-107092781D01*
X108276505Y-106947874D01*
X108134323Y-106869597D01*
X107971067Y-106866236D01*
X107813510Y-106946073D01*
X107789988Y-106966664D01*
X107711328Y-107056139D01*
X107698338Y-107134147D01*
X107757843Y-107210743D01*
X107896671Y-107295981D01*
X108121647Y-107399914D01*
X108136862Y-107406496D01*
X108386614Y-107522954D01*
X108557194Y-107626121D01*
X108662199Y-107729127D01*
X108715230Y-107845104D01*
X108729885Y-107987180D01*
X108710681Y-108144694D01*
X108613713Y-108346309D01*
X108443124Y-108491147D01*
X108319739Y-108534631D01*
X108145612Y-108558426D01*
X107976528Y-108553343D01*
X107855786Y-108517446D01*
X107842961Y-108508508D01*
X107808901Y-108446054D01*
X107832536Y-108335985D01*
X107873601Y-108249589D01*
X107939450Y-108213620D01*
X108064336Y-108215410D01*
X108237717Y-108205091D01*
X108351007Y-108133852D01*
X108389272Y-108001982D01*
X108389236Y-107998194D01*
X108366048Y-107921644D01*
X108287171Y-107851409D01*
X108133812Y-107770454D01*
X107925251Y-107672983D01*
X107787112Y-107619958D01*
X107707367Y-107623376D01*
X107670104Y-107693419D01*
X107659414Y-107840271D01*
X107659387Y-108074116D01*
X107658194Y-108218468D01*
X107652725Y-108396736D01*
X107643834Y-108518751D01*
X107632641Y-108563985D01*
X107629649Y-108563678D01*
X107564970Y-108539163D01*
X107457848Y-108487427D01*
X107309800Y-108410869D01*
X107327393Y-107721048D01*
X107328618Y-107675299D01*
X107342591Y-107354195D01*
X107367277Y-107112182D01*
X107407714Y-106933145D01*
X107468940Y-106800973D01*
X107555994Y-106699550D01*
X107673914Y-106612764D01*
X107676095Y-106611403D01*
X107866759Y-106540601D01*
X108087274Y-106528640D01*
X108299991Y-106572790D01*
G36*
X108299991Y-106572790D02*
G01*
X108467258Y-106670318D01*
X108540841Y-106746307D01*
X108682244Y-106973454D01*
X108729885Y-107221097D01*
X108729885Y-107391471D01*
X108573271Y-107325620D01*
X108464962Y-107259174D01*
X108379605Y-107121224D01*
X108370840Y-107092781D01*
X108276505Y-106947874D01*
X108134323Y-106869597D01*
X107971067Y-106866236D01*
X107813510Y-106946073D01*
X107789988Y-106966664D01*
X107711328Y-107056139D01*
X107698338Y-107134147D01*
X107757843Y-107210743D01*
X107896671Y-107295981D01*
X108121647Y-107399914D01*
X108136862Y-107406496D01*
X108386614Y-107522954D01*
X108557194Y-107626121D01*
X108662199Y-107729127D01*
X108715230Y-107845104D01*
X108729885Y-107987180D01*
X108710681Y-108144694D01*
X108613713Y-108346309D01*
X108443124Y-108491147D01*
X108319739Y-108534631D01*
X108145612Y-108558426D01*
X107976528Y-108553343D01*
X107855786Y-108517446D01*
X107842961Y-108508508D01*
X107808901Y-108446054D01*
X107832536Y-108335985D01*
X107873601Y-108249589D01*
X107939450Y-108213620D01*
X108064336Y-108215410D01*
X108237717Y-108205091D01*
X108351007Y-108133852D01*
X108389272Y-108001982D01*
X108389236Y-107998194D01*
X108366048Y-107921644D01*
X108287171Y-107851409D01*
X108133812Y-107770454D01*
X107925251Y-107672983D01*
X107787112Y-107619958D01*
X107707367Y-107623376D01*
X107670104Y-107693419D01*
X107659414Y-107840271D01*
X107659387Y-108074116D01*
X107658194Y-108218468D01*
X107652725Y-108396736D01*
X107643834Y-108518751D01*
X107632641Y-108563985D01*
X107629649Y-108563678D01*
X107564970Y-108539163D01*
X107457848Y-108487427D01*
X107309800Y-108410869D01*
X107327393Y-107721048D01*
X107328618Y-107675299D01*
X107342591Y-107354195D01*
X107367277Y-107112182D01*
X107407714Y-106933145D01*
X107468940Y-106800973D01*
X107555994Y-106699550D01*
X107673914Y-106612764D01*
X107676095Y-106611403D01*
X107866759Y-106540601D01*
X108087274Y-106528640D01*
X108299991Y-106572790D01*
G37*
X117084629Y-107715837D02*
X117089447Y-108089560D01*
X117090784Y-108197976D01*
X117095066Y-108560434D01*
X117095927Y-108837787D01*
X117090728Y-109039743D01*
X117076832Y-109176012D01*
X117051603Y-109256302D01*
X117012402Y-109290324D01*
X116956593Y-109287786D01*
X116881538Y-109258398D01*
X116784601Y-109211869D01*
X116763886Y-109201941D01*
X116677630Y-109153343D01*
X116632582Y-109095523D01*
X116615344Y-108999117D01*
X116612515Y-108834762D01*
X116612387Y-108539655D01*
X116308396Y-108539655D01*
X116121400Y-108531467D01*
X115974366Y-108498256D01*
X115852263Y-108431131D01*
X115843159Y-108424569D01*
X115719263Y-108313738D01*
X115633038Y-108179847D01*
X115578659Y-108004598D01*
X115550303Y-107769693D01*
X115543383Y-107504314D01*
X116028735Y-107504314D01*
X116028819Y-107548793D01*
X116033440Y-107749564D01*
X116048278Y-107880808D01*
X116077695Y-107966030D01*
X116126053Y-108028736D01*
X116129066Y-108031730D01*
X116247921Y-108112866D01*
X116363108Y-108104869D01*
X116493207Y-108006618D01*
X116525031Y-107973039D01*
X116571903Y-107904192D01*
X116598333Y-107814645D01*
X116610015Y-107678877D01*
X116612643Y-107471369D01*
X116610367Y-107345743D01*
X116585670Y-107117270D01*
X116529298Y-106967581D01*
X116435649Y-106885767D01*
X116299119Y-106860920D01*
X116241593Y-106866215D01*
X116142059Y-106918757D01*
X116076253Y-107035842D01*
X116039902Y-107227639D01*
X116028735Y-107504314D01*
X115543383Y-107504314D01*
X115542145Y-107456835D01*
X115543952Y-107228537D01*
X115552178Y-107055608D01*
X115570453Y-106935687D01*
X115602396Y-106845834D01*
X115651628Y-106763107D01*
X115696820Y-106699885D01*
X115860916Y-106529204D01*
X116046834Y-106436506D01*
X116280410Y-106407163D01*
X116547724Y-106436412D01*
X116778812Y-106541328D01*
X116961585Y-106726373D01*
X116975363Y-106745963D01*
X117007497Y-106798023D01*
X117032115Y-106857513D01*
X117050423Y-106937274D01*
X117063623Y-107050146D01*
X117072922Y-107208970D01*
X117079522Y-107426587D01*
X117080313Y-107471369D01*
X117084629Y-107715837D01*
G36*
X117084629Y-107715837D02*
G01*
X117089447Y-108089560D01*
X117090784Y-108197976D01*
X117095066Y-108560434D01*
X117095927Y-108837787D01*
X117090728Y-109039743D01*
X117076832Y-109176012D01*
X117051603Y-109256302D01*
X117012402Y-109290324D01*
X116956593Y-109287786D01*
X116881538Y-109258398D01*
X116784601Y-109211869D01*
X116763886Y-109201941D01*
X116677630Y-109153343D01*
X116632582Y-109095523D01*
X116615344Y-108999117D01*
X116612515Y-108834762D01*
X116612387Y-108539655D01*
X116308396Y-108539655D01*
X116121400Y-108531467D01*
X115974366Y-108498256D01*
X115852263Y-108431131D01*
X115843159Y-108424569D01*
X115719263Y-108313738D01*
X115633038Y-108179847D01*
X115578659Y-108004598D01*
X115550303Y-107769693D01*
X115543383Y-107504314D01*
X116028735Y-107504314D01*
X116028819Y-107548793D01*
X116033440Y-107749564D01*
X116048278Y-107880808D01*
X116077695Y-107966030D01*
X116126053Y-108028736D01*
X116129066Y-108031730D01*
X116247921Y-108112866D01*
X116363108Y-108104869D01*
X116493207Y-108006618D01*
X116525031Y-107973039D01*
X116571903Y-107904192D01*
X116598333Y-107814645D01*
X116610015Y-107678877D01*
X116612643Y-107471369D01*
X116610367Y-107345743D01*
X116585670Y-107117270D01*
X116529298Y-106967581D01*
X116435649Y-106885767D01*
X116299119Y-106860920D01*
X116241593Y-106866215D01*
X116142059Y-106918757D01*
X116076253Y-107035842D01*
X116039902Y-107227639D01*
X116028735Y-107504314D01*
X115543383Y-107504314D01*
X115542145Y-107456835D01*
X115543952Y-107228537D01*
X115552178Y-107055608D01*
X115570453Y-106935687D01*
X115602396Y-106845834D01*
X115651628Y-106763107D01*
X115696820Y-106699885D01*
X115860916Y-106529204D01*
X116046834Y-106436506D01*
X116280410Y-106407163D01*
X116547724Y-106436412D01*
X116778812Y-106541328D01*
X116961585Y-106726373D01*
X116975363Y-106745963D01*
X117007497Y-106798023D01*
X117032115Y-106857513D01*
X117050423Y-106937274D01*
X117063623Y-107050146D01*
X117072922Y-107208970D01*
X117079522Y-107426587D01*
X117080313Y-107471369D01*
X117084629Y-107715837D01*
G37*
X101186046Y-106524684D02*
X101290323Y-106551171D01*
X101387409Y-106617204D01*
X101512364Y-106740127D01*
X101592721Y-106826939D01*
X101676430Y-106939644D01*
X101714183Y-107045280D01*
X101722988Y-107179307D01*
X101722988Y-107398668D01*
X101573392Y-107321309D01*
X101454840Y-107227042D01*
X101373638Y-107100067D01*
X101359690Y-107065544D01*
X101253427Y-106931735D01*
X101105783Y-106864640D01*
X100944787Y-106871170D01*
X100798467Y-106958238D01*
X100736560Y-107028950D01*
X100700499Y-107119413D01*
X100739102Y-107199923D01*
X100859131Y-107280908D01*
X101067350Y-107372795D01*
X101098946Y-107385486D01*
X101288508Y-107468542D01*
X101451177Y-107550442D01*
X101554672Y-107615134D01*
X101658331Y-107730685D01*
X101727244Y-107915085D01*
X101719927Y-108112971D01*
X101638395Y-108300246D01*
X101484662Y-108452817D01*
X101360183Y-108517763D01*
X101119719Y-108563240D01*
X100986093Y-108557105D01*
X100862391Y-108523934D01*
X100814933Y-108454331D01*
X100832679Y-108339700D01*
X100837841Y-108324543D01*
X100878779Y-108244164D01*
X100946942Y-108213741D01*
X101076798Y-108215777D01*
X101168484Y-108218543D01*
X101275765Y-108194802D01*
X101349268Y-108123820D01*
X101391133Y-108036428D01*
X101395802Y-107944881D01*
X101395587Y-107944346D01*
X101341307Y-107894880D01*
X101225137Y-107822892D01*
X101074830Y-107742436D01*
X100918138Y-107667566D01*
X100782814Y-107612338D01*
X100696613Y-107590805D01*
X100683789Y-107611891D01*
X100667646Y-107711113D01*
X100656590Y-107873146D01*
X100652490Y-108077395D01*
X100651536Y-108218772D01*
X100647042Y-108396824D01*
X100639702Y-108518762D01*
X100630450Y-108563985D01*
X100582090Y-108548787D01*
X100484473Y-108507515D01*
X100360536Y-108451046D01*
X100360536Y-107726555D01*
X100361328Y-107540846D01*
X100368821Y-107258835D01*
X100387911Y-107049616D01*
X100423046Y-106897272D01*
X100478676Y-106785887D01*
X100559250Y-106699543D01*
X100669218Y-106622323D01*
X100809322Y-106558594D01*
X101068011Y-106520307D01*
X101186046Y-106524684D01*
G36*
X101186046Y-106524684D02*
G01*
X101290323Y-106551171D01*
X101387409Y-106617204D01*
X101512364Y-106740127D01*
X101592721Y-106826939D01*
X101676430Y-106939644D01*
X101714183Y-107045280D01*
X101722988Y-107179307D01*
X101722988Y-107398668D01*
X101573392Y-107321309D01*
X101454840Y-107227042D01*
X101373638Y-107100067D01*
X101359690Y-107065544D01*
X101253427Y-106931735D01*
X101105783Y-106864640D01*
X100944787Y-106871170D01*
X100798467Y-106958238D01*
X100736560Y-107028950D01*
X100700499Y-107119413D01*
X100739102Y-107199923D01*
X100859131Y-107280908D01*
X101067350Y-107372795D01*
X101098946Y-107385486D01*
X101288508Y-107468542D01*
X101451177Y-107550442D01*
X101554672Y-107615134D01*
X101658331Y-107730685D01*
X101727244Y-107915085D01*
X101719927Y-108112971D01*
X101638395Y-108300246D01*
X101484662Y-108452817D01*
X101360183Y-108517763D01*
X101119719Y-108563240D01*
X100986093Y-108557105D01*
X100862391Y-108523934D01*
X100814933Y-108454331D01*
X100832679Y-108339700D01*
X100837841Y-108324543D01*
X100878779Y-108244164D01*
X100946942Y-108213741D01*
X101076798Y-108215777D01*
X101168484Y-108218543D01*
X101275765Y-108194802D01*
X101349268Y-108123820D01*
X101391133Y-108036428D01*
X101395802Y-107944881D01*
X101395587Y-107944346D01*
X101341307Y-107894880D01*
X101225137Y-107822892D01*
X101074830Y-107742436D01*
X100918138Y-107667566D01*
X100782814Y-107612338D01*
X100696613Y-107590805D01*
X100683789Y-107611891D01*
X100667646Y-107711113D01*
X100656590Y-107873146D01*
X100652490Y-108077395D01*
X100651536Y-108218772D01*
X100647042Y-108396824D01*
X100639702Y-108518762D01*
X100630450Y-108563985D01*
X100582090Y-108548787D01*
X100484473Y-108507515D01*
X100360536Y-108451046D01*
X100360536Y-107726555D01*
X100361328Y-107540846D01*
X100368821Y-107258835D01*
X100387911Y-107049616D01*
X100423046Y-106897272D01*
X100478676Y-106785887D01*
X100559250Y-106699543D01*
X100669218Y-106622323D01*
X100809322Y-106558594D01*
X101068011Y-106520307D01*
X101186046Y-106524684D01*
G37*
X108381958Y-90755075D02*
X108636491Y-90756732D01*
X108819652Y-90760989D01*
X108943724Y-90769075D01*
X109020989Y-90782218D01*
X109063731Y-90801646D01*
X109084232Y-90828588D01*
X109094775Y-90864272D01*
X109095077Y-90865553D01*
X109112402Y-90949439D01*
X109143898Y-91111480D01*
X109186336Y-91334684D01*
X109236482Y-91602059D01*
X109291106Y-91896612D01*
X109295561Y-91920713D01*
X109350016Y-92206599D01*
X109400687Y-92457709D01*
X109444279Y-92658779D01*
X109477493Y-92794548D01*
X109497032Y-92849753D01*
X109497137Y-92849841D01*
X109558715Y-92880382D01*
X109685095Y-92931129D01*
X109849042Y-92991142D01*
X109858275Y-92994401D01*
X110067872Y-93073617D01*
X110311684Y-93172971D01*
X110538821Y-93271760D01*
X110912316Y-93441276D01*
X111739364Y-92876495D01*
X111797616Y-92836772D01*
X112047133Y-92667926D01*
X112269778Y-92519292D01*
X112452237Y-92399623D01*
X112581196Y-92317672D01*
X112643339Y-92282195D01*
X112685920Y-92290327D01*
X112782592Y-92353337D01*
X112931992Y-92478117D01*
X113138262Y-92668172D01*
X113405547Y-92927008D01*
X113429465Y-92950568D01*
X113641555Y-93161665D01*
X113829948Y-93352909D01*
X113983111Y-93512319D01*
X114089511Y-93627910D01*
X114137616Y-93687700D01*
X114137772Y-93687990D01*
X114143884Y-93733510D01*
X114121346Y-93807346D01*
X114064473Y-93919602D01*
X113967579Y-94080377D01*
X113824980Y-94299773D01*
X113630990Y-94587891D01*
X113597931Y-94636520D01*
X113430742Y-94882877D01*
X113283205Y-95100962D01*
X113164108Y-95277739D01*
X113082239Y-95400170D01*
X113046384Y-95455218D01*
X113043679Y-95466878D01*
X113060644Y-95553877D01*
X113111465Y-95695935D01*
X113187853Y-95868819D01*
X113291666Y-96094918D01*
X113407580Y-96363203D01*
X113506014Y-96606035D01*
X113530419Y-96668888D01*
X113594332Y-96829370D01*
X113641284Y-96941173D01*
X113662495Y-96983142D01*
X113685908Y-96986278D01*
X113791134Y-97004419D01*
X113963365Y-97035748D01*
X114184681Y-97076858D01*
X114437161Y-97124341D01*
X114702886Y-97174788D01*
X114963935Y-97224792D01*
X115202389Y-97270943D01*
X115400325Y-97309834D01*
X115539826Y-97338056D01*
X115602969Y-97352201D01*
X115613438Y-97356188D01*
X115638954Y-97377698D01*
X115657938Y-97423493D01*
X115671339Y-97505744D01*
X115680107Y-97636622D01*
X115685193Y-97828300D01*
X115687548Y-98092950D01*
X115688122Y-98442741D01*
X115688122Y-99506511D01*
X115432662Y-99556933D01*
X115401761Y-99562975D01*
X115237659Y-99594281D01*
X115010746Y-99636822D01*
X114746811Y-99685781D01*
X114471647Y-99736344D01*
X114363288Y-99756683D01*
X114121161Y-99806162D01*
X113919376Y-99852951D01*
X113776476Y-99892561D01*
X113711001Y-99920502D01*
X113681331Y-99966158D01*
X113627314Y-100086956D01*
X113572056Y-100243295D01*
X113552606Y-100301839D01*
X113481007Y-100494015D01*
X113388654Y-100721461D01*
X113290588Y-100946591D01*
X113238140Y-101064181D01*
X113163418Y-101239825D01*
X113112067Y-101371364D01*
X113092975Y-101436755D01*
X113094036Y-101441690D01*
X113130250Y-101511065D01*
X113211910Y-101644949D01*
X113330729Y-101830366D01*
X113478423Y-102054342D01*
X113646705Y-102303900D01*
X114200434Y-103116552D01*
X113472952Y-103845249D01*
X113402591Y-103915369D01*
X113187449Y-104125255D01*
X112995177Y-104306257D01*
X112837040Y-104448173D01*
X112724303Y-104540803D01*
X112668230Y-104573947D01*
X112607336Y-104548730D01*
X112479816Y-104476335D01*
X112300326Y-104365450D01*
X112082945Y-104224779D01*
X111841753Y-104063027D01*
X111604850Y-103903273D01*
X111391129Y-103762595D01*
X111216757Y-103651416D01*
X111095284Y-103578374D01*
X111040263Y-103552108D01*
X111037037Y-103552346D01*
X110963948Y-103578242D01*
X110834330Y-103638536D01*
X110673986Y-103721309D01*
X110672302Y-103722216D01*
X110459342Y-103828877D01*
X110313417Y-103880985D01*
X110222876Y-103881129D01*
X110176067Y-103831897D01*
X110156253Y-103783435D01*
X110102780Y-103653647D01*
X110020411Y-103454125D01*
X109913529Y-103195477D01*
X109786518Y-102888307D01*
X109643759Y-102543222D01*
X109489635Y-102170826D01*
X109349937Y-101832043D01*
X109207796Y-101484416D01*
X109082036Y-101173772D01*
X108976876Y-100910678D01*
X108896538Y-100705698D01*
X108845240Y-100569398D01*
X108827203Y-100512343D01*
X108861651Y-100460025D01*
X108957348Y-100372671D01*
X109092814Y-100271174D01*
X109418034Y-100005645D01*
X109709075Y-99666345D01*
X109922057Y-99293013D01*
X110055669Y-98896672D01*
X110108599Y-98488345D01*
X110079536Y-98079055D01*
X109967168Y-97679826D01*
X109770184Y-97301679D01*
X109487273Y-96955639D01*
X109339760Y-96820879D01*
X108986340Y-96582599D01*
X108608175Y-96427254D01*
X108216319Y-96351145D01*
X107821823Y-96350574D01*
X107435742Y-96421842D01*
X107069129Y-96561250D01*
X106733037Y-96765101D01*
X106438518Y-97029696D01*
X106196627Y-97351336D01*
X106018417Y-97726323D01*
X105914940Y-98150958D01*
X105895949Y-98355629D01*
X105922077Y-98799057D01*
X106039744Y-99219761D01*
X106245470Y-99610304D01*
X106535777Y-99963253D01*
X106907185Y-100271174D01*
X107037602Y-100368538D01*
X107135406Y-100456850D01*
X107172796Y-100512261D01*
X107157886Y-100560565D01*
X107109504Y-100689994D01*
X107031709Y-100889085D01*
X106928718Y-101147271D01*
X106804749Y-101453987D01*
X106664020Y-101798666D01*
X106510749Y-102170744D01*
X106371285Y-102507904D01*
X106227276Y-102856144D01*
X106098562Y-103167498D01*
X105989526Y-103431357D01*
X105904551Y-103637115D01*
X105848020Y-103774164D01*
X105824317Y-103831897D01*
X105824041Y-103832580D01*
X105776620Y-103881330D01*
X105685636Y-103880772D01*
X105539348Y-103828300D01*
X105326013Y-103721309D01*
X105309220Y-103712300D01*
X105150802Y-103631251D01*
X105025706Y-103573880D01*
X104959737Y-103552108D01*
X104905666Y-103577838D01*
X104784825Y-103650431D01*
X104610941Y-103761252D01*
X104397564Y-103901664D01*
X104158246Y-104063027D01*
X103922446Y-104221224D01*
X103704351Y-104362484D01*
X103523820Y-104474160D01*
X103394933Y-104547549D01*
X103331769Y-104573947D01*
X103321011Y-104570595D01*
X103246015Y-104517764D01*
X103117878Y-104408636D01*
X102947868Y-104253414D01*
X102747252Y-104062302D01*
X102527298Y-103845500D01*
X101800065Y-103117053D01*
X102366476Y-102283893D01*
X102932888Y-101450733D01*
X102760670Y-101078144D01*
X102760160Y-101077041D01*
X102656744Y-100839524D01*
X102551066Y-100575030D01*
X102465929Y-100340613D01*
X102453045Y-100302805D01*
X102388087Y-100127283D01*
X102329511Y-99990891D01*
X102288657Y-99920502D01*
X102272020Y-99910563D01*
X102172143Y-99877215D01*
X102002553Y-99834070D01*
X101781779Y-99785617D01*
X101528352Y-99736344D01*
X101452442Y-99722446D01*
X101177807Y-99671845D01*
X100921550Y-99624182D01*
X100709463Y-99584273D01*
X100567337Y-99556933D01*
X100311877Y-99506511D01*
X100311877Y-98442741D01*
X100311933Y-98311942D01*
X100313012Y-97992838D01*
X100316200Y-97754686D01*
X100322447Y-97585315D01*
X100332703Y-97472552D01*
X100347919Y-97404227D01*
X100369044Y-97368167D01*
X100397030Y-97352201D01*
X100424123Y-97345732D01*
X100534580Y-97322851D01*
X100710799Y-97287909D01*
X100934857Y-97244313D01*
X101188837Y-97195472D01*
X101454816Y-97144795D01*
X101714875Y-97095689D01*
X101951094Y-97051562D01*
X102145552Y-97015823D01*
X102280329Y-96991880D01*
X102337504Y-96983142D01*
X102341369Y-96977867D01*
X102372457Y-96909403D01*
X102426255Y-96778407D01*
X102493985Y-96606035D01*
X102587980Y-96373789D01*
X102703689Y-96105377D01*
X102812146Y-95868819D01*
X102837003Y-95815720D01*
X102906745Y-95649448D01*
X102948530Y-95521201D01*
X102954042Y-95455218D01*
X102951200Y-95450542D01*
X102906051Y-95381675D01*
X102816545Y-95247900D01*
X102691462Y-95062250D01*
X102539577Y-94837759D01*
X102369667Y-94587460D01*
X102178216Y-94303086D01*
X102034601Y-94082185D01*
X101936885Y-93920186D01*
X101879416Y-93807056D01*
X101856542Y-93732761D01*
X101862614Y-93687268D01*
X101864657Y-93683855D01*
X101919578Y-93617561D01*
X102031545Y-93496754D01*
X102189031Y-93333410D01*
X102380509Y-93139503D01*
X102594452Y-92927008D01*
X102816384Y-92711368D01*
X103033781Y-92508681D01*
X103193531Y-92371927D01*
X103299776Y-92297600D01*
X103356660Y-92282195D01*
X103364093Y-92285655D01*
X103442368Y-92332309D01*
X103584475Y-92423474D01*
X103777098Y-92550395D01*
X104006923Y-92704320D01*
X104260635Y-92876495D01*
X105087683Y-93441276D01*
X105461178Y-93271760D01*
X105472031Y-93266848D01*
X105701340Y-93167507D01*
X105944612Y-93068704D01*
X106150957Y-92991142D01*
X106151869Y-92990822D01*
X106315690Y-92930828D01*
X106441801Y-92880159D01*
X106502967Y-92849753D01*
X106503957Y-92848650D01*
X106524721Y-92786385D01*
X106558894Y-92644785D01*
X106603178Y-92439115D01*
X106654277Y-92184636D01*
X106708893Y-91896612D01*
X106710797Y-91886290D01*
X106765321Y-91592385D01*
X106815258Y-91326238D01*
X106857375Y-91104842D01*
X106888441Y-90945189D01*
X106905224Y-90864272D01*
X106906298Y-90859788D01*
X106917347Y-90825148D01*
X106939734Y-90799111D01*
X106985743Y-90780450D01*
X107067655Y-90767937D01*
X107197754Y-90760342D01*
X107388323Y-90756439D01*
X107651643Y-90754997D01*
X108000000Y-90754790D01*
X108043769Y-90754790D01*
X108381958Y-90755075D01*
G36*
X108381958Y-90755075D02*
G01*
X108636491Y-90756732D01*
X108819652Y-90760989D01*
X108943724Y-90769075D01*
X109020989Y-90782218D01*
X109063731Y-90801646D01*
X109084232Y-90828588D01*
X109094775Y-90864272D01*
X109095077Y-90865553D01*
X109112402Y-90949439D01*
X109143898Y-91111480D01*
X109186336Y-91334684D01*
X109236482Y-91602059D01*
X109291106Y-91896612D01*
X109295561Y-91920713D01*
X109350016Y-92206599D01*
X109400687Y-92457709D01*
X109444279Y-92658779D01*
X109477493Y-92794548D01*
X109497032Y-92849753D01*
X109497137Y-92849841D01*
X109558715Y-92880382D01*
X109685095Y-92931129D01*
X109849042Y-92991142D01*
X109858275Y-92994401D01*
X110067872Y-93073617D01*
X110311684Y-93172971D01*
X110538821Y-93271760D01*
X110912316Y-93441276D01*
X111739364Y-92876495D01*
X111797616Y-92836772D01*
X112047133Y-92667926D01*
X112269778Y-92519292D01*
X112452237Y-92399623D01*
X112581196Y-92317672D01*
X112643339Y-92282195D01*
X112685920Y-92290327D01*
X112782592Y-92353337D01*
X112931992Y-92478117D01*
X113138262Y-92668172D01*
X113405547Y-92927008D01*
X113429465Y-92950568D01*
X113641555Y-93161665D01*
X113829948Y-93352909D01*
X113983111Y-93512319D01*
X114089511Y-93627910D01*
X114137616Y-93687700D01*
X114137772Y-93687990D01*
X114143884Y-93733510D01*
X114121346Y-93807346D01*
X114064473Y-93919602D01*
X113967579Y-94080377D01*
X113824980Y-94299773D01*
X113630990Y-94587891D01*
X113597931Y-94636520D01*
X113430742Y-94882877D01*
X113283205Y-95100962D01*
X113164108Y-95277739D01*
X113082239Y-95400170D01*
X113046384Y-95455218D01*
X113043679Y-95466878D01*
X113060644Y-95553877D01*
X113111465Y-95695935D01*
X113187853Y-95868819D01*
X113291666Y-96094918D01*
X113407580Y-96363203D01*
X113506014Y-96606035D01*
X113530419Y-96668888D01*
X113594332Y-96829370D01*
X113641284Y-96941173D01*
X113662495Y-96983142D01*
X113685908Y-96986278D01*
X113791134Y-97004419D01*
X113963365Y-97035748D01*
X114184681Y-97076858D01*
X114437161Y-97124341D01*
X114702886Y-97174788D01*
X114963935Y-97224792D01*
X115202389Y-97270943D01*
X115400325Y-97309834D01*
X115539826Y-97338056D01*
X115602969Y-97352201D01*
X115613438Y-97356188D01*
X115638954Y-97377698D01*
X115657938Y-97423493D01*
X115671339Y-97505744D01*
X115680107Y-97636622D01*
X115685193Y-97828300D01*
X115687548Y-98092950D01*
X115688122Y-98442741D01*
X115688122Y-99506511D01*
X115432662Y-99556933D01*
X115401761Y-99562975D01*
X115237659Y-99594281D01*
X115010746Y-99636822D01*
X114746811Y-99685781D01*
X114471647Y-99736344D01*
X114363288Y-99756683D01*
X114121161Y-99806162D01*
X113919376Y-99852951D01*
X113776476Y-99892561D01*
X113711001Y-99920502D01*
X113681331Y-99966158D01*
X113627314Y-100086956D01*
X113572056Y-100243295D01*
X113552606Y-100301839D01*
X113481007Y-100494015D01*
X113388654Y-100721461D01*
X113290588Y-100946591D01*
X113238140Y-101064181D01*
X113163418Y-101239825D01*
X113112067Y-101371364D01*
X113092975Y-101436755D01*
X113094036Y-101441690D01*
X113130250Y-101511065D01*
X113211910Y-101644949D01*
X113330729Y-101830366D01*
X113478423Y-102054342D01*
X113646705Y-102303900D01*
X114200434Y-103116552D01*
X113472952Y-103845249D01*
X113402591Y-103915369D01*
X113187449Y-104125255D01*
X112995177Y-104306257D01*
X112837040Y-104448173D01*
X112724303Y-104540803D01*
X112668230Y-104573947D01*
X112607336Y-104548730D01*
X112479816Y-104476335D01*
X112300326Y-104365450D01*
X112082945Y-104224779D01*
X111841753Y-104063027D01*
X111604850Y-103903273D01*
X111391129Y-103762595D01*
X111216757Y-103651416D01*
X111095284Y-103578374D01*
X111040263Y-103552108D01*
X111037037Y-103552346D01*
X110963948Y-103578242D01*
X110834330Y-103638536D01*
X110673986Y-103721309D01*
X110672302Y-103722216D01*
X110459342Y-103828877D01*
X110313417Y-103880985D01*
X110222876Y-103881129D01*
X110176067Y-103831897D01*
X110156253Y-103783435D01*
X110102780Y-103653647D01*
X110020411Y-103454125D01*
X109913529Y-103195477D01*
X109786518Y-102888307D01*
X109643759Y-102543222D01*
X109489635Y-102170826D01*
X109349937Y-101832043D01*
X109207796Y-101484416D01*
X109082036Y-101173772D01*
X108976876Y-100910678D01*
X108896538Y-100705698D01*
X108845240Y-100569398D01*
X108827203Y-100512343D01*
X108861651Y-100460025D01*
X108957348Y-100372671D01*
X109092814Y-100271174D01*
X109418034Y-100005645D01*
X109709075Y-99666345D01*
X109922057Y-99293013D01*
X110055669Y-98896672D01*
X110108599Y-98488345D01*
X110079536Y-98079055D01*
X109967168Y-97679826D01*
X109770184Y-97301679D01*
X109487273Y-96955639D01*
X109339760Y-96820879D01*
X108986340Y-96582599D01*
X108608175Y-96427254D01*
X108216319Y-96351145D01*
X107821823Y-96350574D01*
X107435742Y-96421842D01*
X107069129Y-96561250D01*
X106733037Y-96765101D01*
X106438518Y-97029696D01*
X106196627Y-97351336D01*
X106018417Y-97726323D01*
X105914940Y-98150958D01*
X105895949Y-98355629D01*
X105922077Y-98799057D01*
X106039744Y-99219761D01*
X106245470Y-99610304D01*
X106535777Y-99963253D01*
X106907185Y-100271174D01*
X107037602Y-100368538D01*
X107135406Y-100456850D01*
X107172796Y-100512261D01*
X107157886Y-100560565D01*
X107109504Y-100689994D01*
X107031709Y-100889085D01*
X106928718Y-101147271D01*
X106804749Y-101453987D01*
X106664020Y-101798666D01*
X106510749Y-102170744D01*
X106371285Y-102507904D01*
X106227276Y-102856144D01*
X106098562Y-103167498D01*
X105989526Y-103431357D01*
X105904551Y-103637115D01*
X105848020Y-103774164D01*
X105824317Y-103831897D01*
X105824041Y-103832580D01*
X105776620Y-103881330D01*
X105685636Y-103880772D01*
X105539348Y-103828300D01*
X105326013Y-103721309D01*
X105309220Y-103712300D01*
X105150802Y-103631251D01*
X105025706Y-103573880D01*
X104959737Y-103552108D01*
X104905666Y-103577838D01*
X104784825Y-103650431D01*
X104610941Y-103761252D01*
X104397564Y-103901664D01*
X104158246Y-104063027D01*
X103922446Y-104221224D01*
X103704351Y-104362484D01*
X103523820Y-104474160D01*
X103394933Y-104547549D01*
X103331769Y-104573947D01*
X103321011Y-104570595D01*
X103246015Y-104517764D01*
X103117878Y-104408636D01*
X102947868Y-104253414D01*
X102747252Y-104062302D01*
X102527298Y-103845500D01*
X101800065Y-103117053D01*
X102366476Y-102283893D01*
X102932888Y-101450733D01*
X102760670Y-101078144D01*
X102760160Y-101077041D01*
X102656744Y-100839524D01*
X102551066Y-100575030D01*
X102465929Y-100340613D01*
X102453045Y-100302805D01*
X102388087Y-100127283D01*
X102329511Y-99990891D01*
X102288657Y-99920502D01*
X102272020Y-99910563D01*
X102172143Y-99877215D01*
X102002553Y-99834070D01*
X101781779Y-99785617D01*
X101528352Y-99736344D01*
X101452442Y-99722446D01*
X101177807Y-99671845D01*
X100921550Y-99624182D01*
X100709463Y-99584273D01*
X100567337Y-99556933D01*
X100311877Y-99506511D01*
X100311877Y-98442741D01*
X100311933Y-98311942D01*
X100313012Y-97992838D01*
X100316200Y-97754686D01*
X100322447Y-97585315D01*
X100332703Y-97472552D01*
X100347919Y-97404227D01*
X100369044Y-97368167D01*
X100397030Y-97352201D01*
X100424123Y-97345732D01*
X100534580Y-97322851D01*
X100710799Y-97287909D01*
X100934857Y-97244313D01*
X101188837Y-97195472D01*
X101454816Y-97144795D01*
X101714875Y-97095689D01*
X101951094Y-97051562D01*
X102145552Y-97015823D01*
X102280329Y-96991880D01*
X102337504Y-96983142D01*
X102341369Y-96977867D01*
X102372457Y-96909403D01*
X102426255Y-96778407D01*
X102493985Y-96606035D01*
X102587980Y-96373789D01*
X102703689Y-96105377D01*
X102812146Y-95868819D01*
X102837003Y-95815720D01*
X102906745Y-95649448D01*
X102948530Y-95521201D01*
X102954042Y-95455218D01*
X102951200Y-95450542D01*
X102906051Y-95381675D01*
X102816545Y-95247900D01*
X102691462Y-95062250D01*
X102539577Y-94837759D01*
X102369667Y-94587460D01*
X102178216Y-94303086D01*
X102034601Y-94082185D01*
X101936885Y-93920186D01*
X101879416Y-93807056D01*
X101856542Y-93732761D01*
X101862614Y-93687268D01*
X101864657Y-93683855D01*
X101919578Y-93617561D01*
X102031545Y-93496754D01*
X102189031Y-93333410D01*
X102380509Y-93139503D01*
X102594452Y-92927008D01*
X102816384Y-92711368D01*
X103033781Y-92508681D01*
X103193531Y-92371927D01*
X103299776Y-92297600D01*
X103356660Y-92282195D01*
X103364093Y-92285655D01*
X103442368Y-92332309D01*
X103584475Y-92423474D01*
X103777098Y-92550395D01*
X104006923Y-92704320D01*
X104260635Y-92876495D01*
X105087683Y-93441276D01*
X105461178Y-93271760D01*
X105472031Y-93266848D01*
X105701340Y-93167507D01*
X105944612Y-93068704D01*
X106150957Y-92991142D01*
X106151869Y-92990822D01*
X106315690Y-92930828D01*
X106441801Y-92880159D01*
X106502967Y-92849753D01*
X106503957Y-92848650D01*
X106524721Y-92786385D01*
X106558894Y-92644785D01*
X106603178Y-92439115D01*
X106654277Y-92184636D01*
X106708893Y-91896612D01*
X106710797Y-91886290D01*
X106765321Y-91592385D01*
X106815258Y-91326238D01*
X106857375Y-91104842D01*
X106888441Y-90945189D01*
X106905224Y-90864272D01*
X106906298Y-90859788D01*
X106917347Y-90825148D01*
X106939734Y-90799111D01*
X106985743Y-90780450D01*
X107067655Y-90767937D01*
X107197754Y-90760342D01*
X107388323Y-90756439D01*
X107651643Y-90754997D01*
X108000000Y-90754790D01*
X108043769Y-90754790D01*
X108381958Y-90755075D01*
G37*
%TD*%
M02*
