%TF.GenerationSoftware,KiCad,Pcbnew,7.0.7*%
%TF.CreationDate,2023-12-25T13:55:38-06:00*%
%TF.ProjectId,LED Tester,4c454420-5465-4737-9465-722e6b696361,rev?*%
%TF.SameCoordinates,Original*%
%TF.FileFunction,Soldermask,Top*%
%TF.FilePolarity,Negative*%
%FSLAX46Y46*%
G04 Gerber Fmt 4.6, Leading zero omitted, Abs format (unit mm)*
G04 Created by KiCad (PCBNEW 7.0.7) date 2023-12-25 13:55:38*
%MOMM*%
%LPD*%
G01*
G04 APERTURE LIST*
G04 Aperture macros list*
%AMRoundRect*
0 Rectangle with rounded corners*
0 $1 Rounding radius*
0 $2 $3 $4 $5 $6 $7 $8 $9 X,Y pos of 4 corners*
0 Add a 4 corners polygon primitive as box body*
4,1,4,$2,$3,$4,$5,$6,$7,$8,$9,$2,$3,0*
0 Add four circle primitives for the rounded corners*
1,1,$1+$1,$2,$3*
1,1,$1+$1,$4,$5*
1,1,$1+$1,$6,$7*
1,1,$1+$1,$8,$9*
0 Add four rect primitives between the rounded corners*
20,1,$1+$1,$2,$3,$4,$5,0*
20,1,$1+$1,$4,$5,$6,$7,0*
20,1,$1+$1,$6,$7,$8,$9,0*
20,1,$1+$1,$8,$9,$2,$3,0*%
G04 Aperture macros list end*
%ADD10R,1.700000X1.700000*%
%ADD11O,1.700000X1.700000*%
%ADD12RoundRect,0.250000X-0.312500X-0.625000X0.312500X-0.625000X0.312500X0.625000X-0.312500X0.625000X0*%
%ADD13R,2.006600X2.006600*%
%ADD14C,2.006600*%
%ADD15C,1.540000*%
%ADD16C,2.380000*%
%ADD17C,1.989000*%
G04 APERTURE END LIST*
D10*
%TO.C,J4*%
X153030000Y-85270000D03*
D11*
X153030000Y-87810000D03*
%TD*%
D12*
%TO.C,R30*%
X119685000Y-98238300D03*
X122610000Y-98238300D03*
%TD*%
%TO.C,R14*%
X108465000Y-98108600D03*
X111390000Y-98108600D03*
%TD*%
D10*
%TO.C,J10*%
X137030000Y-109730000D03*
D11*
X137030000Y-112270000D03*
%TD*%
D12*
%TO.C,R8*%
X102855000Y-111000000D03*
X105780000Y-111000000D03*
%TD*%
%TO.C,R20*%
X114075000Y-85217100D03*
X117000000Y-85217100D03*
%TD*%
%TO.C,R16*%
X108465000Y-111000000D03*
X111390000Y-111000000D03*
%TD*%
%TO.C,R25*%
X119685000Y-65880000D03*
X122610000Y-65880000D03*
%TD*%
%TO.C,R6*%
X102855000Y-98108600D03*
X105780000Y-98108600D03*
%TD*%
D10*
%TO.C,J2*%
X136880000Y-85270000D03*
D11*
X136880000Y-87810000D03*
%TD*%
D12*
%TO.C,R22*%
X114075000Y-98108600D03*
X117000000Y-98108600D03*
%TD*%
%TO.C,R24*%
X114075000Y-111000000D03*
X117000000Y-111000000D03*
%TD*%
D10*
%TO.C,J9*%
X129030000Y-109730000D03*
D11*
X129030000Y-112270000D03*
%TD*%
D12*
%TO.C,R4*%
X102855000Y-85217100D03*
X105780000Y-85217100D03*
%TD*%
%TO.C,R21*%
X114075000Y-91662900D03*
X117000000Y-91662900D03*
%TD*%
%TO.C,R18*%
X114075000Y-72325700D03*
X117000000Y-72325700D03*
%TD*%
%TO.C,R19*%
X114075000Y-78771400D03*
X117000000Y-78771400D03*
%TD*%
%TO.C,R3*%
X102855000Y-78771400D03*
X105780000Y-78771400D03*
%TD*%
%TO.C,R29*%
X119685000Y-91766700D03*
X122610000Y-91766700D03*
%TD*%
%TO.C,R17*%
X114075000Y-65880000D03*
X117000000Y-65880000D03*
%TD*%
D10*
%TO.C,J5*%
X129030000Y-97500000D03*
D11*
X129030000Y-100040000D03*
%TD*%
D12*
%TO.C,R12*%
X108465000Y-85217100D03*
X111390000Y-85217100D03*
%TD*%
D10*
%TO.C,J6*%
X137030000Y-97500000D03*
D11*
X137030000Y-100040000D03*
%TD*%
D12*
%TO.C,R11*%
X108465000Y-78771400D03*
X111390000Y-78771400D03*
%TD*%
%TO.C,R7*%
X102855000Y-104554300D03*
X105780000Y-104554300D03*
%TD*%
D10*
%TO.C,J3*%
X144955000Y-85270000D03*
D11*
X144955000Y-87810000D03*
%TD*%
D12*
%TO.C,R27*%
X119685000Y-78823300D03*
X122610000Y-78823300D03*
%TD*%
%TO.C,R23*%
X114075000Y-104554300D03*
X117000000Y-104554300D03*
%TD*%
%TO.C,R31*%
X119685000Y-104710000D03*
X122610000Y-104710000D03*
%TD*%
%TO.C,R2*%
X102855000Y-72325700D03*
X105780000Y-72325700D03*
%TD*%
%TO.C,R26*%
X119685000Y-72351700D03*
X122610000Y-72351700D03*
%TD*%
%TO.C,R10*%
X108465000Y-72325700D03*
X111390000Y-72325700D03*
%TD*%
D13*
%TO.C,F1*%
X129550000Y-68000000D03*
D14*
X152150000Y-68000000D03*
%TD*%
D15*
%TO.C,S1*%
X92500000Y-112250000D03*
X86000000Y-112250000D03*
X92500000Y-107750000D03*
X86000000Y-107750000D03*
%TD*%
D12*
%TO.C,R5*%
X102855000Y-91662900D03*
X105780000Y-91662900D03*
%TD*%
D10*
%TO.C,J8*%
X153030000Y-97500000D03*
D11*
X153030000Y-100040000D03*
%TD*%
D10*
%TO.C,J1*%
X128805000Y-85270000D03*
D11*
X128805000Y-87810000D03*
%TD*%
D12*
%TO.C,R15*%
X108465000Y-104554300D03*
X111390000Y-104554300D03*
%TD*%
D10*
%TO.C,J12*%
X153030000Y-109730000D03*
D11*
X153030000Y-112270000D03*
%TD*%
D10*
%TO.C,J7*%
X145030000Y-97770000D03*
D11*
X145030000Y-100310000D03*
%TD*%
D12*
%TO.C,R9*%
X108465000Y-65880000D03*
X111390000Y-65880000D03*
%TD*%
%TO.C,R1*%
X102855000Y-65880000D03*
X105780000Y-65880000D03*
%TD*%
%TO.C,R28*%
X119685000Y-85295000D03*
X122610000Y-85295000D03*
%TD*%
%TO.C,R13*%
X108465000Y-91662900D03*
X111390000Y-91662900D03*
%TD*%
D10*
%TO.C,J11*%
X145030000Y-110270000D03*
D11*
X145030000Y-112810000D03*
%TD*%
D16*
%TO.C,BT1*%
X96090000Y-66270000D03*
D17*
X89000000Y-95730000D03*
X89000000Y-66270000D03*
%TD*%
M02*
