%TF.GenerationSoftware,KiCad,Pcbnew,7.0.7*%
%TF.CreationDate,2023-12-24T21:52:19-06:00*%
%TF.ProjectId,LED Tester,4c454420-5465-4737-9465-722e6b696361,rev?*%
%TF.SameCoordinates,Original*%
%TF.FileFunction,Copper,L2,Bot*%
%TF.FilePolarity,Positive*%
%FSLAX46Y46*%
G04 Gerber Fmt 4.6, Leading zero omitted, Abs format (unit mm)*
G04 Created by KiCad (PCBNEW 7.0.7) date 2023-12-24 21:52:19*
%MOMM*%
%LPD*%
G01*
G04 APERTURE LIST*
%TA.AperFunction,ComponentPad*%
%ADD10R,1.700000X1.700000*%
%TD*%
%TA.AperFunction,ComponentPad*%
%ADD11O,1.700000X1.700000*%
%TD*%
%TA.AperFunction,ComponentPad*%
%ADD12R,2.006600X2.006600*%
%TD*%
%TA.AperFunction,ComponentPad*%
%ADD13C,2.006600*%
%TD*%
%TA.AperFunction,ComponentPad*%
%ADD14C,1.540000*%
%TD*%
%TA.AperFunction,ComponentPad*%
%ADD15C,1.785000*%
%TD*%
%TA.AperFunction,ViaPad*%
%ADD16C,0.800000*%
%TD*%
%TA.AperFunction,Conductor*%
%ADD17C,0.250000*%
%TD*%
G04 APERTURE END LIST*
D10*
%TO.P,J4,1,Pin_1*%
%TO.N,Net-(J4-Pin_1)*%
X153030000Y-85270000D03*
D11*
%TO.P,J4,2,Pin_2*%
%TO.N,GND*%
X153030000Y-87810000D03*
%TD*%
D10*
%TO.P,J10,1,Pin_1*%
%TO.N,Net-(J10-Pin_1)*%
X137030000Y-109730000D03*
D11*
%TO.P,J10,2,Pin_2*%
%TO.N,GND*%
X137030000Y-112270000D03*
%TD*%
D10*
%TO.P,J2,1,Pin_1*%
%TO.N,Net-(J2-Pin_1)*%
X136880000Y-85270000D03*
D11*
%TO.P,J2,2,Pin_2*%
%TO.N,GND*%
X136880000Y-87810000D03*
%TD*%
D10*
%TO.P,J9,1,Pin_1*%
%TO.N,Net-(J9-Pin_1)*%
X129030000Y-109730000D03*
D11*
%TO.P,J9,2,Pin_2*%
%TO.N,GND*%
X129030000Y-112270000D03*
%TD*%
D10*
%TO.P,J5,1,Pin_1*%
%TO.N,Net-(J5-Pin_1)*%
X129030000Y-97500000D03*
D11*
%TO.P,J5,2,Pin_2*%
%TO.N,GND*%
X129030000Y-100040000D03*
%TD*%
D10*
%TO.P,J6,1,Pin_1*%
%TO.N,Net-(J6-Pin_1)*%
X137030000Y-97500000D03*
D11*
%TO.P,J6,2,Pin_2*%
%TO.N,GND*%
X137030000Y-100040000D03*
%TD*%
D10*
%TO.P,J3,1,Pin_1*%
%TO.N,Net-(J3-Pin_1)*%
X144955000Y-85270000D03*
D11*
%TO.P,J3,2,Pin_2*%
%TO.N,GND*%
X144955000Y-87810000D03*
%TD*%
D12*
%TO.P,F1,1,1*%
%TO.N,VCC*%
X129550000Y-68000000D03*
D13*
%TO.P,F1,2,2*%
%TO.N,Net-(BT1-PadP)*%
X152150000Y-68000000D03*
%TD*%
D14*
%TO.P,S1,1,COM_1*%
%TO.N,GND*%
X92500000Y-112250000D03*
%TO.P,S1,2,COM_2*%
X86000000Y-112250000D03*
%TO.P,S1,3,NO_1*%
%TO.N,Net-(S1-NO_1)*%
X92500000Y-107750000D03*
%TO.P,S1,4,NO_2*%
X86000000Y-107750000D03*
%TD*%
D10*
%TO.P,J8,1,Pin_1*%
%TO.N,Net-(J8-Pin_1)*%
X153030000Y-97500000D03*
D11*
%TO.P,J8,2,Pin_2*%
%TO.N,GND*%
X153030000Y-100040000D03*
%TD*%
D10*
%TO.P,J1,1,Pin_1*%
%TO.N,Net-(J1-Pin_1)*%
X128805000Y-85270000D03*
D11*
%TO.P,J1,2,Pin_2*%
%TO.N,GND*%
X128805000Y-87810000D03*
%TD*%
D10*
%TO.P,J12,1,Pin_1*%
%TO.N,Net-(J12-Pin_1)*%
X153030000Y-109730000D03*
D11*
%TO.P,J12,2,Pin_2*%
%TO.N,GND*%
X153030000Y-112270000D03*
%TD*%
D10*
%TO.P,J7,1,Pin_1*%
%TO.N,Net-(J7-Pin_1)*%
X145030000Y-97770000D03*
D11*
%TO.P,J7,2,Pin_2*%
%TO.N,GND*%
X145030000Y-100310000D03*
%TD*%
D10*
%TO.P,J11,1,Pin_1*%
%TO.N,Net-(J11-Pin_1)*%
X145030000Y-110270000D03*
D11*
%TO.P,J11,2,Pin_2*%
%TO.N,GND*%
X145030000Y-112810000D03*
%TD*%
D15*
%TO.P,BT1,N*%
%TO.N,Net-(S1-NO_1)*%
X89000000Y-95730000D03*
%TO.P,BT1,P*%
%TO.N,Net-(BT1-PadP)*%
X89000000Y-66270000D03*
%TD*%
D16*
%TO.N,Net-(J6-Pin_1)*%
X116718600Y-67659200D03*
%TO.N,Net-(J9-Pin_1)*%
X123161000Y-76797900D03*
%TO.N,Net-(J10-Pin_1)*%
X125639400Y-86055100D03*
%TO.N,Net-(R8-Pad2)*%
X108470800Y-67659200D03*
X108054000Y-106432800D03*
%TD*%
D17*
%TO.N,Net-(BT1-PadP)*%
X90819700Y-64450300D02*
X148600300Y-64450300D01*
X148600300Y-64450300D02*
X152150000Y-68000000D01*
X89000000Y-66270000D02*
X90819700Y-64450300D01*
%TO.N,Net-(J6-Pin_1)*%
X135129800Y-94422900D02*
X137030000Y-96323100D01*
X137030000Y-97500000D02*
X137030000Y-96323100D01*
X135129800Y-86070400D02*
X135129800Y-94422900D01*
X116718600Y-67659200D02*
X135129800Y-86070400D01*
%TO.N,Net-(J9-Pin_1)*%
X129030000Y-108553100D02*
X123161000Y-102684100D01*
X129030000Y-109730000D02*
X129030000Y-108553100D01*
X123161000Y-102684100D02*
X123161000Y-76797900D01*
%TO.N,Net-(J10-Pin_1)*%
X125639400Y-87184000D02*
X135853100Y-97397700D01*
X125639400Y-86055100D02*
X125639400Y-87184000D01*
X135853100Y-97397700D02*
X135853100Y-107376200D01*
X135853100Y-107376200D02*
X137030000Y-108553100D01*
X137030000Y-109730000D02*
X137030000Y-108553100D01*
%TO.N,Net-(R8-Pad2)*%
X108470800Y-106016000D02*
X108054000Y-106432800D01*
X108470800Y-67659200D02*
X108470800Y-106016000D01*
%TD*%
%TA.AperFunction,Conductor*%
%TO.N,GND*%
G36*
X183805966Y-61019685D02*
G01*
X183851721Y-61072489D01*
X183862638Y-61115536D01*
X183864552Y-61143512D01*
X183888061Y-61256643D01*
X183888781Y-61260817D01*
X183892508Y-61287941D01*
X183899894Y-61314300D01*
X183900896Y-61318414D01*
X183924407Y-61431550D01*
X183924409Y-61431558D01*
X183963108Y-61540449D01*
X183964389Y-61544484D01*
X183969974Y-61564416D01*
X183971776Y-61570846D01*
X183982678Y-61595944D01*
X183984232Y-61599885D01*
X184022926Y-61708760D01*
X184022925Y-61708760D01*
X184076094Y-61811370D01*
X184077912Y-61815193D01*
X184088818Y-61840301D01*
X184103040Y-61863687D01*
X184105115Y-61867379D01*
X184156656Y-61966846D01*
X184158278Y-61969976D01*
X184224923Y-62064391D01*
X184227236Y-62067918D01*
X184241467Y-62091319D01*
X184258747Y-62112559D01*
X184261306Y-62115934D01*
X184327935Y-62210326D01*
X184356873Y-62241311D01*
X184406813Y-62294784D01*
X184409595Y-62297975D01*
X184418835Y-62309331D01*
X184426867Y-62319204D01*
X184426870Y-62319207D01*
X184426876Y-62319214D01*
X184446874Y-62337890D01*
X184449869Y-62340885D01*
X184528743Y-62425338D01*
X184618383Y-62498266D01*
X184621575Y-62501049D01*
X184641580Y-62519732D01*
X184663951Y-62535523D01*
X184667304Y-62538065D01*
X184756951Y-62610999D01*
X184855710Y-62671056D01*
X184859218Y-62673357D01*
X184881589Y-62689148D01*
X184905891Y-62701740D01*
X184909571Y-62703810D01*
X184995521Y-62756077D01*
X185008318Y-62763859D01*
X185114357Y-62809918D01*
X185118110Y-62811703D01*
X185142437Y-62824308D01*
X185168244Y-62833480D01*
X185172116Y-62835006D01*
X185278159Y-62881067D01*
X185389445Y-62912248D01*
X185393452Y-62913519D01*
X185419259Y-62922691D01*
X185419262Y-62922691D01*
X185419266Y-62922693D01*
X185446067Y-62928262D01*
X185450159Y-62929259D01*
X185521283Y-62949187D01*
X185561429Y-62960436D01*
X185561437Y-62960437D01*
X185561445Y-62960440D01*
X185675974Y-62976181D01*
X185680085Y-62976890D01*
X185706900Y-62982463D01*
X185734242Y-62984333D01*
X185738376Y-62984758D01*
X185852902Y-63000500D01*
X185876000Y-63000500D01*
X185943039Y-63020185D01*
X185988794Y-63072989D01*
X186000000Y-63124500D01*
X186000000Y-112575500D01*
X185980315Y-112642539D01*
X185927511Y-112688294D01*
X185876000Y-112699500D01*
X185852900Y-112699500D01*
X185738407Y-112715236D01*
X185734185Y-112715670D01*
X185731112Y-112715879D01*
X185706905Y-112717535D01*
X185680111Y-112723103D01*
X185675941Y-112723822D01*
X185561440Y-112739560D01*
X185450180Y-112770733D01*
X185446067Y-112771736D01*
X185419272Y-112777303D01*
X185393461Y-112786476D01*
X185389428Y-112787756D01*
X185278161Y-112818931D01*
X185278157Y-112818932D01*
X185172165Y-112864972D01*
X185168226Y-112866525D01*
X185142437Y-112875690D01*
X185118144Y-112888278D01*
X185114320Y-112890096D01*
X185008317Y-112936141D01*
X184909582Y-112996183D01*
X184905890Y-112998259D01*
X184881594Y-113010846D01*
X184859236Y-113026629D01*
X184855696Y-113028950D01*
X184756954Y-113088998D01*
X184667322Y-113161918D01*
X184663947Y-113164477D01*
X184641587Y-113180259D01*
X184621562Y-113198961D01*
X184618374Y-113201740D01*
X184547559Y-113259353D01*
X184528740Y-113274665D01*
X184528737Y-113274667D01*
X184528737Y-113274668D01*
X184449877Y-113359105D01*
X184446883Y-113362099D01*
X184426875Y-113380784D01*
X184409590Y-113402029D01*
X184406810Y-113405218D01*
X184327941Y-113489667D01*
X184327931Y-113489679D01*
X184261300Y-113584073D01*
X184258741Y-113587448D01*
X184241461Y-113608686D01*
X184227240Y-113632073D01*
X184224918Y-113635612D01*
X184158274Y-113730029D01*
X184158272Y-113730033D01*
X184105120Y-113832611D01*
X184103051Y-113836292D01*
X184099656Y-113841877D01*
X184088820Y-113859694D01*
X184077907Y-113884817D01*
X184076089Y-113888640D01*
X184022927Y-113991237D01*
X183984230Y-114100119D01*
X183982676Y-114104059D01*
X183971775Y-114129154D01*
X183964385Y-114155522D01*
X183963106Y-114159552D01*
X183924411Y-114268436D01*
X183924407Y-114268450D01*
X183900896Y-114381584D01*
X183899894Y-114385698D01*
X183892506Y-114412064D01*
X183888778Y-114439195D01*
X183888058Y-114443369D01*
X183864551Y-114556494D01*
X183856664Y-114671783D01*
X183856232Y-114675994D01*
X183852506Y-114703103D01*
X183852506Y-114730472D01*
X183852361Y-114734705D01*
X183844475Y-114849998D01*
X183845675Y-114867536D01*
X183830612Y-114935763D01*
X183781054Y-114985015D01*
X183721964Y-115000000D01*
X123428036Y-115000000D01*
X123360997Y-114980315D01*
X123315242Y-114927511D01*
X123304325Y-114867536D01*
X123305525Y-114850000D01*
X123298271Y-114743953D01*
X123298137Y-114740837D01*
X123297494Y-114703107D01*
X123297494Y-114703102D01*
X123293767Y-114675994D01*
X123293763Y-114675966D01*
X123293335Y-114671798D01*
X123285448Y-114556489D01*
X123261930Y-114443314D01*
X123261220Y-114439197D01*
X123257490Y-114412057D01*
X123250102Y-114385688D01*
X123249102Y-114381584D01*
X123225592Y-114268446D01*
X123186890Y-114159549D01*
X123185612Y-114155523D01*
X123185612Y-114155522D01*
X123178228Y-114129168D01*
X123167322Y-114104059D01*
X123167318Y-114104049D01*
X123165773Y-114100132D01*
X123127072Y-113991236D01*
X123073905Y-113888630D01*
X123072087Y-113884805D01*
X123061185Y-113859706D01*
X123046960Y-113836313D01*
X123044884Y-113832622D01*
X122991722Y-113730024D01*
X122925076Y-113635608D01*
X122922762Y-113632080D01*
X122908530Y-113608677D01*
X122891258Y-113587448D01*
X122888699Y-113584073D01*
X122860009Y-113543429D01*
X122822065Y-113489674D01*
X122783116Y-113447970D01*
X122743180Y-113405208D01*
X122740397Y-113402016D01*
X122723126Y-113380787D01*
X122703124Y-113362107D01*
X122700129Y-113359112D01*
X122621256Y-113274661D01*
X122531622Y-113201738D01*
X122528431Y-113198956D01*
X122508419Y-113180267D01*
X122486052Y-113164479D01*
X122482678Y-113161920D01*
X122393048Y-113089000D01*
X122294312Y-113028957D01*
X122290772Y-113026635D01*
X122268407Y-113010849D01*
X122244113Y-112998261D01*
X122240421Y-112996185D01*
X122141680Y-112936139D01*
X122141676Y-112936137D01*
X122060933Y-112901067D01*
X122035659Y-112890089D01*
X122031873Y-112888288D01*
X122007563Y-112875692D01*
X122007562Y-112875691D01*
X122007557Y-112875689D01*
X121981773Y-112866525D01*
X121977842Y-112864975D01*
X121929177Y-112843837D01*
X121871842Y-112818933D01*
X121871837Y-112818931D01*
X121760548Y-112787748D01*
X121756515Y-112786468D01*
X121730722Y-112777302D01*
X121703936Y-112771737D01*
X121699822Y-112770734D01*
X121588558Y-112739560D01*
X121588560Y-112739560D01*
X121474061Y-112723822D01*
X121469891Y-112723103D01*
X121443100Y-112717536D01*
X121419254Y-112715905D01*
X121415746Y-112715663D01*
X121411571Y-112715233D01*
X121297100Y-112699500D01*
X121297098Y-112699500D01*
X121181534Y-112699500D01*
X121177301Y-112699355D01*
X121150000Y-112697487D01*
X121122699Y-112699355D01*
X121118466Y-112699500D01*
X121002900Y-112699500D01*
X120888407Y-112715236D01*
X120884185Y-112715670D01*
X120881112Y-112715879D01*
X120856905Y-112717535D01*
X120830111Y-112723103D01*
X120825941Y-112723822D01*
X120711440Y-112739560D01*
X120600180Y-112770733D01*
X120596067Y-112771736D01*
X120569272Y-112777303D01*
X120543461Y-112786476D01*
X120539428Y-112787756D01*
X120428161Y-112818931D01*
X120428157Y-112818932D01*
X120322165Y-112864972D01*
X120318226Y-112866525D01*
X120292437Y-112875690D01*
X120268144Y-112888278D01*
X120264320Y-112890096D01*
X120158317Y-112936141D01*
X120059582Y-112996183D01*
X120055890Y-112998259D01*
X120031594Y-113010846D01*
X120009236Y-113026629D01*
X120005696Y-113028950D01*
X119906954Y-113088998D01*
X119817322Y-113161918D01*
X119813947Y-113164477D01*
X119791587Y-113180259D01*
X119771562Y-113198961D01*
X119768374Y-113201740D01*
X119697559Y-113259353D01*
X119678740Y-113274665D01*
X119678737Y-113274667D01*
X119678737Y-113274668D01*
X119599877Y-113359105D01*
X119596883Y-113362099D01*
X119576875Y-113380784D01*
X119559590Y-113402029D01*
X119556810Y-113405218D01*
X119477941Y-113489667D01*
X119477931Y-113489679D01*
X119411300Y-113584073D01*
X119408741Y-113587448D01*
X119391461Y-113608686D01*
X119377240Y-113632073D01*
X119374918Y-113635612D01*
X119308274Y-113730029D01*
X119308272Y-113730033D01*
X119255120Y-113832611D01*
X119253051Y-113836292D01*
X119249656Y-113841877D01*
X119238820Y-113859694D01*
X119227907Y-113884817D01*
X119226089Y-113888640D01*
X119172927Y-113991237D01*
X119134230Y-114100119D01*
X119132676Y-114104059D01*
X119121775Y-114129154D01*
X119114385Y-114155522D01*
X119113106Y-114159552D01*
X119074411Y-114268436D01*
X119074407Y-114268450D01*
X119050896Y-114381584D01*
X119049894Y-114385698D01*
X119042506Y-114412064D01*
X119038778Y-114439195D01*
X119038058Y-114443369D01*
X119014551Y-114556494D01*
X119006664Y-114671784D01*
X119006232Y-114675994D01*
X119002505Y-114703107D01*
X119002505Y-114730474D01*
X119002360Y-114734704D01*
X118994475Y-114849998D01*
X118995675Y-114867536D01*
X118980612Y-114935763D01*
X118931054Y-114985015D01*
X118871964Y-115000000D01*
X79278036Y-115000000D01*
X79210997Y-114980315D01*
X79165242Y-114927511D01*
X79154325Y-114867536D01*
X79155525Y-114850000D01*
X79148271Y-114743953D01*
X79148137Y-114740837D01*
X79147494Y-114703107D01*
X79147494Y-114703102D01*
X79143767Y-114675994D01*
X79143763Y-114675966D01*
X79143335Y-114671798D01*
X79135448Y-114556489D01*
X79111930Y-114443314D01*
X79111220Y-114439197D01*
X79107490Y-114412057D01*
X79100102Y-114385688D01*
X79099102Y-114381584D01*
X79075592Y-114268446D01*
X79036890Y-114159549D01*
X79035612Y-114155523D01*
X79035612Y-114155522D01*
X79028228Y-114129168D01*
X79017322Y-114104059D01*
X79017318Y-114104049D01*
X79015773Y-114100132D01*
X78977072Y-113991236D01*
X78923905Y-113888630D01*
X78922087Y-113884805D01*
X78911185Y-113859706D01*
X78896960Y-113836313D01*
X78894884Y-113832622D01*
X78841722Y-113730024D01*
X78775076Y-113635608D01*
X78772762Y-113632080D01*
X78758530Y-113608677D01*
X78741258Y-113587448D01*
X78738699Y-113584073D01*
X78710009Y-113543429D01*
X78672065Y-113489674D01*
X78633116Y-113447970D01*
X78593180Y-113405208D01*
X78590397Y-113402016D01*
X78573126Y-113380787D01*
X78553124Y-113362107D01*
X78550129Y-113359112D01*
X78471256Y-113274661D01*
X78381622Y-113201738D01*
X78378431Y-113198956D01*
X78358419Y-113180267D01*
X78336052Y-113164479D01*
X78332678Y-113161920D01*
X78243048Y-113089000D01*
X78144312Y-113028957D01*
X78140772Y-113026635D01*
X78118407Y-113010849D01*
X78094113Y-112998261D01*
X78090421Y-112996185D01*
X77991680Y-112936139D01*
X77991676Y-112936137D01*
X77910933Y-112901067D01*
X77885659Y-112890089D01*
X77881873Y-112888288D01*
X77857563Y-112875692D01*
X77857562Y-112875691D01*
X77857557Y-112875689D01*
X77831773Y-112866525D01*
X77827842Y-112864975D01*
X77779177Y-112843837D01*
X77721842Y-112818933D01*
X77721837Y-112818931D01*
X77610548Y-112787748D01*
X77606515Y-112786468D01*
X77580722Y-112777302D01*
X77553936Y-112771737D01*
X77549822Y-112770734D01*
X77438558Y-112739560D01*
X77438560Y-112739560D01*
X77324061Y-112723822D01*
X77319891Y-112723103D01*
X77293100Y-112717536D01*
X77269254Y-112715905D01*
X77265746Y-112715663D01*
X77261571Y-112715233D01*
X77147100Y-112699500D01*
X77147098Y-112699500D01*
X77124000Y-112699500D01*
X77056961Y-112679815D01*
X77011206Y-112627011D01*
X77000000Y-112575500D01*
X77000000Y-112250000D01*
X84725149Y-112250000D01*
X84744516Y-112471371D01*
X84744518Y-112471381D01*
X84802029Y-112686017D01*
X84802033Y-112686026D01*
X84895946Y-112887424D01*
X84895947Y-112887426D01*
X84942514Y-112953930D01*
X84942514Y-112953931D01*
X85394668Y-112501777D01*
X85455991Y-112468292D01*
X85525682Y-112473276D01*
X85581616Y-112515147D01*
X85586664Y-112522418D01*
X85620779Y-112575500D01*
X85622057Y-112577489D01*
X85729631Y-112670702D01*
X85736334Y-112676510D01*
X85734227Y-112678941D01*
X85769646Y-112719810D01*
X85779597Y-112788967D01*
X85750578Y-112852526D01*
X85744538Y-112859013D01*
X85296067Y-113307484D01*
X85362574Y-113354052D01*
X85563973Y-113447966D01*
X85563982Y-113447970D01*
X85778618Y-113505481D01*
X85778628Y-113505483D01*
X85999999Y-113524851D01*
X86000001Y-113524851D01*
X86221371Y-113505483D01*
X86221381Y-113505481D01*
X86436017Y-113447970D01*
X86436026Y-113447966D01*
X86637425Y-113354053D01*
X86637429Y-113354051D01*
X86703931Y-113307485D01*
X86703931Y-113307484D01*
X86255460Y-112859013D01*
X86221975Y-112797690D01*
X86226959Y-112727998D01*
X86264651Y-112677647D01*
X86263666Y-112676510D01*
X86270369Y-112670702D01*
X86377943Y-112577489D01*
X86413334Y-112522418D01*
X86466136Y-112476664D01*
X86535294Y-112466720D01*
X86598850Y-112495744D01*
X86605330Y-112501777D01*
X87057484Y-112953931D01*
X87057485Y-112953931D01*
X87104051Y-112887429D01*
X87104053Y-112887425D01*
X87197966Y-112686026D01*
X87197970Y-112686017D01*
X87255481Y-112471381D01*
X87255483Y-112471371D01*
X87274851Y-112250000D01*
X91225149Y-112250000D01*
X91244516Y-112471371D01*
X91244518Y-112471381D01*
X91302029Y-112686017D01*
X91302033Y-112686026D01*
X91395946Y-112887424D01*
X91395947Y-112887426D01*
X91442514Y-112953930D01*
X91442514Y-112953931D01*
X91894668Y-112501777D01*
X91955991Y-112468292D01*
X92025682Y-112473276D01*
X92081616Y-112515147D01*
X92086664Y-112522418D01*
X92120779Y-112575500D01*
X92122057Y-112577489D01*
X92229631Y-112670702D01*
X92236334Y-112676510D01*
X92234227Y-112678941D01*
X92269646Y-112719810D01*
X92279597Y-112788967D01*
X92250578Y-112852526D01*
X92244538Y-112859013D01*
X91796067Y-113307484D01*
X91862574Y-113354052D01*
X92063973Y-113447966D01*
X92063982Y-113447970D01*
X92278618Y-113505481D01*
X92278628Y-113505483D01*
X92499999Y-113524851D01*
X92500001Y-113524851D01*
X92721371Y-113505483D01*
X92721381Y-113505481D01*
X92936017Y-113447970D01*
X92936026Y-113447966D01*
X93137425Y-113354053D01*
X93137429Y-113354051D01*
X93203931Y-113307485D01*
X93203931Y-113307484D01*
X93072509Y-113176062D01*
X119796084Y-113176062D01*
X119796211Y-113175944D01*
X119796218Y-113175936D01*
X119796086Y-113176058D01*
X119796084Y-113176062D01*
X93072509Y-113176062D01*
X92755460Y-112859013D01*
X92721975Y-112797690D01*
X92726959Y-112727998D01*
X92764651Y-112677647D01*
X92763666Y-112676510D01*
X92770369Y-112670702D01*
X92877943Y-112577489D01*
X92913334Y-112522418D01*
X92966136Y-112476664D01*
X93035294Y-112466720D01*
X93098850Y-112495744D01*
X93105330Y-112501777D01*
X93557484Y-112953931D01*
X93557485Y-112953931D01*
X93604051Y-112887429D01*
X93604053Y-112887425D01*
X93697966Y-112686026D01*
X93697970Y-112686017D01*
X93755481Y-112471381D01*
X93755483Y-112471371D01*
X93774851Y-112250000D01*
X93774851Y-112249999D01*
X93755483Y-112028628D01*
X93755481Y-112028618D01*
X93697970Y-111813982D01*
X93697967Y-111813973D01*
X93604053Y-111612576D01*
X93604052Y-111612574D01*
X93557484Y-111546068D01*
X93557483Y-111546067D01*
X93105330Y-111998221D01*
X93044007Y-112031706D01*
X92974315Y-112026722D01*
X92918382Y-111984850D01*
X92913334Y-111977580D01*
X92877944Y-111922513D01*
X92877943Y-111922511D01*
X92770369Y-111829298D01*
X92770368Y-111829297D01*
X92763666Y-111823490D01*
X92765769Y-111821062D01*
X92730336Y-111780155D01*
X92720407Y-111710995D01*
X92749444Y-111647445D01*
X92755460Y-111640985D01*
X93203931Y-111192514D01*
X93137426Y-111145947D01*
X93137424Y-111145946D01*
X92936026Y-111052033D01*
X92936017Y-111052029D01*
X92721381Y-110994518D01*
X92721371Y-110994516D01*
X92500001Y-110975149D01*
X92499999Y-110975149D01*
X92278628Y-110994516D01*
X92278618Y-110994518D01*
X92063982Y-111052029D01*
X92063973Y-111052032D01*
X91862575Y-111145947D01*
X91796067Y-111192514D01*
X92244539Y-111640986D01*
X92278024Y-111702309D01*
X92273040Y-111772001D01*
X92235347Y-111822351D01*
X92236334Y-111823490D01*
X92229631Y-111829297D01*
X92229631Y-111829298D01*
X92211455Y-111845048D01*
X92122055Y-111922513D01*
X92086665Y-111977581D01*
X92033861Y-112023336D01*
X91964702Y-112033279D01*
X91901147Y-112004254D01*
X91894669Y-111998222D01*
X91442514Y-111546068D01*
X91395947Y-111612575D01*
X91302032Y-111813973D01*
X91302029Y-111813982D01*
X91244518Y-112028618D01*
X91244516Y-112028628D01*
X91225149Y-112249999D01*
X91225149Y-112250000D01*
X87274851Y-112250000D01*
X87274851Y-112249999D01*
X87255483Y-112028628D01*
X87255481Y-112028618D01*
X87197970Y-111813982D01*
X87197967Y-111813973D01*
X87104053Y-111612576D01*
X87104052Y-111612574D01*
X87057484Y-111546068D01*
X87057483Y-111546067D01*
X86605330Y-111998221D01*
X86544007Y-112031706D01*
X86474315Y-112026722D01*
X86418382Y-111984850D01*
X86413334Y-111977580D01*
X86377944Y-111922513D01*
X86377943Y-111922511D01*
X86270369Y-111829298D01*
X86270368Y-111829297D01*
X86263666Y-111823490D01*
X86265769Y-111821062D01*
X86230336Y-111780155D01*
X86220407Y-111710995D01*
X86249444Y-111647445D01*
X86255460Y-111640985D01*
X86703931Y-111192514D01*
X86637426Y-111145947D01*
X86637424Y-111145946D01*
X86436026Y-111052033D01*
X86436017Y-111052029D01*
X86221381Y-110994518D01*
X86221371Y-110994516D01*
X86000001Y-110975149D01*
X85999999Y-110975149D01*
X85778628Y-110994516D01*
X85778618Y-110994518D01*
X85563982Y-111052029D01*
X85563973Y-111052032D01*
X85362575Y-111145947D01*
X85296067Y-111192514D01*
X85744539Y-111640986D01*
X85778024Y-111702309D01*
X85773040Y-111772001D01*
X85735347Y-111822351D01*
X85736334Y-111823490D01*
X85729631Y-111829297D01*
X85729631Y-111829298D01*
X85711455Y-111845048D01*
X85622055Y-111922513D01*
X85586665Y-111977581D01*
X85533861Y-112023336D01*
X85464702Y-112033279D01*
X85401147Y-112004254D01*
X85394669Y-111998222D01*
X84942514Y-111546068D01*
X84895947Y-111612575D01*
X84802032Y-111813973D01*
X84802029Y-111813982D01*
X84744518Y-112028618D01*
X84744516Y-112028628D01*
X84725149Y-112249999D01*
X84725149Y-112250000D01*
X77000000Y-112250000D01*
X77000000Y-107750002D01*
X84724647Y-107750002D01*
X84744021Y-107971457D01*
X84744022Y-107971465D01*
X84801558Y-108186191D01*
X84801559Y-108186193D01*
X84801560Y-108186196D01*
X84839703Y-108267993D01*
X84895511Y-108387676D01*
X84921014Y-108424097D01*
X85023023Y-108569781D01*
X85180219Y-108726977D01*
X85362323Y-108854488D01*
X85563804Y-108948440D01*
X85778537Y-109005978D01*
X85936724Y-109019817D01*
X85999998Y-109025353D01*
X86000000Y-109025353D01*
X86000002Y-109025353D01*
X86055365Y-109020509D01*
X86221463Y-109005978D01*
X86436196Y-108948440D01*
X86637677Y-108854488D01*
X86819781Y-108726977D01*
X86976977Y-108569781D01*
X87104488Y-108387677D01*
X87198440Y-108186196D01*
X87255978Y-107971463D01*
X87275353Y-107750002D01*
X91224647Y-107750002D01*
X91244021Y-107971457D01*
X91244022Y-107971465D01*
X91301558Y-108186191D01*
X91301559Y-108186193D01*
X91301560Y-108186196D01*
X91339703Y-108267993D01*
X91395511Y-108387676D01*
X91421014Y-108424097D01*
X91523023Y-108569781D01*
X91680219Y-108726977D01*
X91862323Y-108854488D01*
X92063804Y-108948440D01*
X92278537Y-109005978D01*
X92436724Y-109019817D01*
X92499998Y-109025353D01*
X92500000Y-109025353D01*
X92500002Y-109025353D01*
X92555365Y-109020509D01*
X92721463Y-109005978D01*
X92936196Y-108948440D01*
X93137677Y-108854488D01*
X93319781Y-108726977D01*
X93476977Y-108569781D01*
X93604488Y-108387677D01*
X93698440Y-108186196D01*
X93755978Y-107971463D01*
X93775353Y-107750000D01*
X93772520Y-107717623D01*
X93760158Y-107576319D01*
X93755978Y-107528537D01*
X93698440Y-107313804D01*
X93604488Y-107112324D01*
X93604486Y-107112321D01*
X93604485Y-107112319D01*
X93476978Y-106930220D01*
X93476975Y-106930217D01*
X93319781Y-106773023D01*
X93137677Y-106645512D01*
X93137678Y-106645512D01*
X93137676Y-106645511D01*
X93036936Y-106598536D01*
X92936196Y-106551560D01*
X92936193Y-106551559D01*
X92936191Y-106551558D01*
X92721465Y-106494022D01*
X92721457Y-106494021D01*
X92500002Y-106474647D01*
X92499998Y-106474647D01*
X92278542Y-106494021D01*
X92278535Y-106494022D01*
X92063800Y-106551561D01*
X91862323Y-106645512D01*
X91862319Y-106645514D01*
X91680217Y-106773023D01*
X91523023Y-106930217D01*
X91395514Y-107112319D01*
X91395512Y-107112323D01*
X91301561Y-107313800D01*
X91244022Y-107528535D01*
X91244021Y-107528542D01*
X91224647Y-107749997D01*
X91224647Y-107750002D01*
X87275353Y-107750002D01*
X87275353Y-107750000D01*
X87272520Y-107717623D01*
X87260158Y-107576319D01*
X87255978Y-107528537D01*
X87198440Y-107313804D01*
X87104488Y-107112324D01*
X87104486Y-107112321D01*
X87104485Y-107112319D01*
X86976978Y-106930220D01*
X86976975Y-106930217D01*
X86819781Y-106773023D01*
X86637677Y-106645512D01*
X86637678Y-106645512D01*
X86637676Y-106645511D01*
X86536936Y-106598536D01*
X86436196Y-106551560D01*
X86436193Y-106551559D01*
X86436191Y-106551558D01*
X86221465Y-106494022D01*
X86221457Y-106494021D01*
X86000002Y-106474647D01*
X85999998Y-106474647D01*
X85778542Y-106494021D01*
X85778535Y-106494022D01*
X85563800Y-106551561D01*
X85362323Y-106645512D01*
X85362319Y-106645514D01*
X85180217Y-106773023D01*
X85023023Y-106930217D01*
X84895514Y-107112319D01*
X84895512Y-107112323D01*
X84801561Y-107313800D01*
X84744022Y-107528535D01*
X84744021Y-107528542D01*
X84724647Y-107749997D01*
X84724647Y-107750002D01*
X77000000Y-107750002D01*
X77000000Y-106432800D01*
X107148540Y-106432800D01*
X107168326Y-106621056D01*
X107168327Y-106621059D01*
X107226818Y-106801077D01*
X107226821Y-106801084D01*
X107321467Y-106965016D01*
X107412166Y-107065747D01*
X107448129Y-107105688D01*
X107601265Y-107216948D01*
X107601270Y-107216951D01*
X107774192Y-107293942D01*
X107774197Y-107293944D01*
X107959354Y-107333300D01*
X107959355Y-107333300D01*
X108148644Y-107333300D01*
X108148646Y-107333300D01*
X108333803Y-107293944D01*
X108506730Y-107216951D01*
X108659871Y-107105688D01*
X108786533Y-106965016D01*
X108881179Y-106801084D01*
X108939674Y-106621056D01*
X108958046Y-106446245D01*
X108978113Y-106393977D01*
X108977102Y-106393422D01*
X108980862Y-106386582D01*
X108990513Y-106369024D01*
X109001196Y-106352761D01*
X109013473Y-106336936D01*
X109031985Y-106294153D01*
X109034538Y-106288941D01*
X109056997Y-106248092D01*
X109061980Y-106228680D01*
X109068281Y-106210280D01*
X109076237Y-106191896D01*
X109083529Y-106145852D01*
X109084706Y-106140171D01*
X109096300Y-106095019D01*
X109096300Y-106074982D01*
X109097827Y-106055582D01*
X109100960Y-106035804D01*
X109096575Y-105989415D01*
X109096300Y-105983577D01*
X109096300Y-76797900D01*
X122255540Y-76797900D01*
X122275326Y-76986156D01*
X122275327Y-76986159D01*
X122333818Y-77166177D01*
X122333821Y-77166184D01*
X122428467Y-77330116D01*
X122471772Y-77378210D01*
X122503650Y-77413615D01*
X122533880Y-77476606D01*
X122535500Y-77496587D01*
X122535500Y-102601355D01*
X122533775Y-102616972D01*
X122534061Y-102616999D01*
X122533326Y-102624765D01*
X122535500Y-102693914D01*
X122535500Y-102723443D01*
X122535501Y-102723460D01*
X122536368Y-102730331D01*
X122536826Y-102736150D01*
X122538290Y-102782724D01*
X122538291Y-102782727D01*
X122543880Y-102801967D01*
X122547824Y-102821011D01*
X122550336Y-102840891D01*
X122567490Y-102884219D01*
X122569382Y-102889747D01*
X122582381Y-102934488D01*
X122592580Y-102951734D01*
X122601138Y-102969203D01*
X122608514Y-102987832D01*
X122635898Y-103025523D01*
X122639106Y-103030407D01*
X122662827Y-103070516D01*
X122662833Y-103070524D01*
X122676990Y-103084680D01*
X122689628Y-103099476D01*
X122701405Y-103115686D01*
X122701406Y-103115687D01*
X122737309Y-103145388D01*
X122741620Y-103149310D01*
X126658056Y-107065747D01*
X127888432Y-108296123D01*
X127921917Y-108357446D01*
X127916933Y-108427138D01*
X127875063Y-108483070D01*
X127822452Y-108522455D01*
X127736206Y-108637664D01*
X127736202Y-108637671D01*
X127685908Y-108772517D01*
X127679501Y-108832116D01*
X127679501Y-108832123D01*
X127679500Y-108832135D01*
X127679500Y-110627870D01*
X127679501Y-110627876D01*
X127685908Y-110687483D01*
X127736202Y-110822328D01*
X127736206Y-110822335D01*
X127822452Y-110937544D01*
X127822455Y-110937547D01*
X127937664Y-111023793D01*
X127937671Y-111023797D01*
X127937674Y-111023798D01*
X128069598Y-111073002D01*
X128125531Y-111114873D01*
X128149949Y-111180337D01*
X128135098Y-111248610D01*
X128113947Y-111276865D01*
X127991886Y-111398926D01*
X127856400Y-111592420D01*
X127856399Y-111592422D01*
X127756570Y-111806507D01*
X127756567Y-111806513D01*
X127699364Y-112019999D01*
X127699364Y-112020000D01*
X128416653Y-112020000D01*
X128483692Y-112039685D01*
X128529447Y-112092489D01*
X128539391Y-112161647D01*
X128535631Y-112178933D01*
X128530000Y-112198111D01*
X128530000Y-112341888D01*
X128535631Y-112361067D01*
X128535630Y-112430936D01*
X128497855Y-112489714D01*
X128434299Y-112518738D01*
X128416653Y-112520000D01*
X127699364Y-112520000D01*
X127756567Y-112733486D01*
X127756570Y-112733492D01*
X127856399Y-112947578D01*
X127991894Y-113141082D01*
X128158917Y-113308105D01*
X128352421Y-113443600D01*
X128566507Y-113543429D01*
X128566516Y-113543433D01*
X128780000Y-113600634D01*
X128780000Y-112882301D01*
X128799685Y-112815262D01*
X128852489Y-112769507D01*
X128921647Y-112759563D01*
X128994237Y-112770000D01*
X128994238Y-112770000D01*
X129065762Y-112770000D01*
X129065763Y-112770000D01*
X129138353Y-112759563D01*
X129207512Y-112769507D01*
X129260315Y-112815262D01*
X129280000Y-112882301D01*
X129280000Y-113600633D01*
X129493483Y-113543433D01*
X129493492Y-113543429D01*
X129707578Y-113443600D01*
X129901082Y-113308105D01*
X130068105Y-113141082D01*
X130203600Y-112947578D01*
X130303429Y-112733492D01*
X130303432Y-112733486D01*
X130360636Y-112520000D01*
X129643347Y-112520000D01*
X129576308Y-112500315D01*
X129530553Y-112447511D01*
X129520609Y-112378353D01*
X129524369Y-112361067D01*
X129530000Y-112341888D01*
X129530000Y-112198111D01*
X129524369Y-112178933D01*
X129524370Y-112109064D01*
X129562145Y-112050286D01*
X129625701Y-112021262D01*
X129643347Y-112020000D01*
X130360636Y-112020000D01*
X130360635Y-112019999D01*
X130303432Y-111806513D01*
X130303429Y-111806507D01*
X130203600Y-111592422D01*
X130203599Y-111592420D01*
X130068113Y-111398926D01*
X130068108Y-111398920D01*
X129946053Y-111276865D01*
X129912568Y-111215542D01*
X129917552Y-111145850D01*
X129959424Y-111089917D01*
X129990400Y-111073002D01*
X130122331Y-111023796D01*
X130237546Y-110937546D01*
X130323796Y-110822331D01*
X130374091Y-110687483D01*
X130380500Y-110627873D01*
X130380499Y-108832128D01*
X130374091Y-108772517D01*
X130323796Y-108637669D01*
X130323795Y-108637668D01*
X130323793Y-108637664D01*
X130237547Y-108522455D01*
X130237544Y-108522452D01*
X130122335Y-108436206D01*
X130122328Y-108436202D01*
X129987482Y-108385908D01*
X129987483Y-108385908D01*
X129927883Y-108379501D01*
X129927881Y-108379500D01*
X129927873Y-108379500D01*
X129927865Y-108379500D01*
X129723300Y-108379500D01*
X129656261Y-108359815D01*
X129612593Y-108309420D01*
X129612588Y-108309424D01*
X129612568Y-108309391D01*
X129610506Y-108307011D01*
X129609499Y-108304747D01*
X129608617Y-108302710D01*
X129598421Y-108285469D01*
X129589860Y-108267993D01*
X129588308Y-108264075D01*
X129582486Y-108249368D01*
X129582486Y-108249367D01*
X129572474Y-108235588D01*
X129555083Y-108211650D01*
X129551900Y-108206805D01*
X129528170Y-108166679D01*
X129528165Y-108166673D01*
X129514005Y-108152513D01*
X129501370Y-108137720D01*
X129489593Y-108121512D01*
X129453693Y-108091813D01*
X129449381Y-108087890D01*
X123822819Y-102461328D01*
X123789334Y-102400005D01*
X123786500Y-102373647D01*
X123786500Y-98397870D01*
X127679500Y-98397870D01*
X127679501Y-98397876D01*
X127685908Y-98457483D01*
X127736202Y-98592328D01*
X127736206Y-98592335D01*
X127822452Y-98707544D01*
X127822455Y-98707547D01*
X127937664Y-98793793D01*
X127937671Y-98793797D01*
X127937674Y-98793798D01*
X128069598Y-98843002D01*
X128125531Y-98884873D01*
X128149949Y-98950337D01*
X128135098Y-99018610D01*
X128113947Y-99046865D01*
X127991886Y-99168926D01*
X127856400Y-99362420D01*
X127856399Y-99362422D01*
X127756570Y-99576507D01*
X127756567Y-99576513D01*
X127699364Y-99789999D01*
X127699364Y-99790000D01*
X128416653Y-99790000D01*
X128483692Y-99809685D01*
X128529447Y-99862489D01*
X128539391Y-99931647D01*
X128535631Y-99948933D01*
X128530000Y-99968111D01*
X128530000Y-100111888D01*
X128535631Y-100131067D01*
X128535630Y-100200936D01*
X128497855Y-100259714D01*
X128434299Y-100288738D01*
X128416653Y-100290000D01*
X127699364Y-100290000D01*
X127756567Y-100503486D01*
X127756570Y-100503492D01*
X127856399Y-100717578D01*
X127991894Y-100911082D01*
X128158917Y-101078105D01*
X128352421Y-101213600D01*
X128566507Y-101313429D01*
X128566516Y-101313433D01*
X128780000Y-101370634D01*
X128780000Y-100652301D01*
X128799685Y-100585262D01*
X128852489Y-100539507D01*
X128921647Y-100529563D01*
X128994237Y-100540000D01*
X128994238Y-100540000D01*
X129065762Y-100540000D01*
X129065763Y-100540000D01*
X129138353Y-100529563D01*
X129207512Y-100539507D01*
X129260315Y-100585262D01*
X129280000Y-100652301D01*
X129280000Y-101370633D01*
X129493483Y-101313433D01*
X129493492Y-101313429D01*
X129707578Y-101213600D01*
X129901082Y-101078105D01*
X130068105Y-100911082D01*
X130203600Y-100717578D01*
X130303429Y-100503492D01*
X130303432Y-100503486D01*
X130360636Y-100290000D01*
X129643347Y-100290000D01*
X129576308Y-100270315D01*
X129530553Y-100217511D01*
X129520609Y-100148353D01*
X129524369Y-100131067D01*
X129530000Y-100111888D01*
X129530000Y-99968111D01*
X129524369Y-99948933D01*
X129524370Y-99879064D01*
X129562145Y-99820286D01*
X129625701Y-99791262D01*
X129643347Y-99790000D01*
X130360636Y-99790000D01*
X130360635Y-99789999D01*
X130303432Y-99576513D01*
X130303429Y-99576507D01*
X130203600Y-99362422D01*
X130203599Y-99362420D01*
X130068113Y-99168926D01*
X130068108Y-99168920D01*
X129946053Y-99046865D01*
X129912568Y-98985542D01*
X129917552Y-98915850D01*
X129959424Y-98859917D01*
X129990400Y-98843002D01*
X130122331Y-98793796D01*
X130237546Y-98707546D01*
X130323796Y-98592331D01*
X130374091Y-98457483D01*
X130380500Y-98397873D01*
X130380499Y-96602128D01*
X130374091Y-96542517D01*
X130323796Y-96407669D01*
X130323795Y-96407668D01*
X130323793Y-96407664D01*
X130237547Y-96292455D01*
X130237544Y-96292452D01*
X130122335Y-96206206D01*
X130122328Y-96206202D01*
X129987482Y-96155908D01*
X129987483Y-96155908D01*
X129927883Y-96149501D01*
X129927881Y-96149500D01*
X129927873Y-96149500D01*
X129927864Y-96149500D01*
X128132129Y-96149500D01*
X128132123Y-96149501D01*
X128072516Y-96155908D01*
X127937671Y-96206202D01*
X127937664Y-96206206D01*
X127822455Y-96292452D01*
X127822452Y-96292455D01*
X127736206Y-96407664D01*
X127736202Y-96407671D01*
X127685908Y-96542517D01*
X127679501Y-96602116D01*
X127679501Y-96602123D01*
X127679500Y-96602135D01*
X127679500Y-98397870D01*
X123786500Y-98397870D01*
X123786500Y-77496587D01*
X123806185Y-77429548D01*
X123818350Y-77413615D01*
X123836891Y-77393022D01*
X123893533Y-77330116D01*
X123988179Y-77166184D01*
X124046674Y-76986156D01*
X124066460Y-76797900D01*
X124046674Y-76609644D01*
X123988179Y-76429616D01*
X123893533Y-76265684D01*
X123766871Y-76125012D01*
X123766870Y-76125011D01*
X123613734Y-76013751D01*
X123613729Y-76013748D01*
X123440807Y-75936757D01*
X123440802Y-75936755D01*
X123295001Y-75905765D01*
X123255646Y-75897400D01*
X123066354Y-75897400D01*
X123033897Y-75904298D01*
X122881197Y-75936755D01*
X122881192Y-75936757D01*
X122708270Y-76013748D01*
X122708265Y-76013751D01*
X122555129Y-76125011D01*
X122428466Y-76265685D01*
X122333821Y-76429615D01*
X122333818Y-76429622D01*
X122275327Y-76609640D01*
X122275326Y-76609644D01*
X122255540Y-76797900D01*
X109096300Y-76797900D01*
X109096300Y-68357887D01*
X109115985Y-68290848D01*
X109128150Y-68274915D01*
X109146691Y-68254322D01*
X109203333Y-68191416D01*
X109297979Y-68027484D01*
X109356474Y-67847456D01*
X109376260Y-67659200D01*
X115813140Y-67659200D01*
X115832926Y-67847456D01*
X115832927Y-67847459D01*
X115891418Y-68027477D01*
X115891421Y-68027484D01*
X115986067Y-68191416D01*
X116061250Y-68274915D01*
X116112729Y-68332088D01*
X116265865Y-68443348D01*
X116265870Y-68443351D01*
X116438792Y-68520342D01*
X116438797Y-68520344D01*
X116623954Y-68559700D01*
X116683148Y-68559700D01*
X116750187Y-68579385D01*
X116770829Y-68596019D01*
X134467982Y-86293172D01*
X134501466Y-86354493D01*
X134504300Y-86380851D01*
X134504300Y-94340155D01*
X134502575Y-94355772D01*
X134502861Y-94355799D01*
X134502126Y-94363565D01*
X134504300Y-94432714D01*
X134504300Y-94462243D01*
X134504301Y-94462260D01*
X134505168Y-94469131D01*
X134505626Y-94474950D01*
X134507090Y-94521524D01*
X134507091Y-94521527D01*
X134512680Y-94540767D01*
X134516624Y-94559811D01*
X134516628Y-94559835D01*
X134519136Y-94579691D01*
X134536290Y-94623019D01*
X134538182Y-94628547D01*
X134551181Y-94673288D01*
X134561380Y-94690534D01*
X134569938Y-94708003D01*
X134577314Y-94726632D01*
X134604698Y-94764323D01*
X134607906Y-94769207D01*
X134631627Y-94809316D01*
X134631633Y-94809324D01*
X134645790Y-94823480D01*
X134658427Y-94838275D01*
X134670206Y-94854487D01*
X134690736Y-94871471D01*
X134706109Y-94884188D01*
X134710420Y-94888110D01*
X135322244Y-95499934D01*
X135888433Y-96066123D01*
X135921918Y-96127446D01*
X135916934Y-96197138D01*
X135875064Y-96253070D01*
X135822452Y-96292455D01*
X135816183Y-96298725D01*
X135813804Y-96296346D01*
X135770890Y-96328446D01*
X135701197Y-96333404D01*
X135639919Y-96299929D01*
X133452437Y-94112447D01*
X128591317Y-89251326D01*
X128557833Y-89190005D01*
X128554999Y-89163647D01*
X128554999Y-88422301D01*
X128574684Y-88355262D01*
X128627488Y-88309507D01*
X128696646Y-88299563D01*
X128703380Y-88300531D01*
X128769237Y-88310000D01*
X128769238Y-88310000D01*
X128840762Y-88310000D01*
X128840763Y-88310000D01*
X128913353Y-88299563D01*
X128982512Y-88309507D01*
X129035315Y-88355262D01*
X129055000Y-88422301D01*
X129055000Y-89140633D01*
X129268483Y-89083433D01*
X129268492Y-89083429D01*
X129482578Y-88983600D01*
X129676082Y-88848105D01*
X129843105Y-88681082D01*
X129978600Y-88487578D01*
X130078429Y-88273492D01*
X130078432Y-88273486D01*
X130135636Y-88060000D01*
X129418347Y-88060000D01*
X129351308Y-88040315D01*
X129305553Y-87987511D01*
X129295609Y-87918353D01*
X129299369Y-87901067D01*
X129305000Y-87881888D01*
X129305000Y-87738111D01*
X129299369Y-87718933D01*
X129299370Y-87649064D01*
X129337145Y-87590286D01*
X129400701Y-87561262D01*
X129418347Y-87560000D01*
X130135636Y-87560000D01*
X130135635Y-87559999D01*
X130078432Y-87346513D01*
X130078429Y-87346507D01*
X129978600Y-87132422D01*
X129978599Y-87132420D01*
X129843113Y-86938926D01*
X129843108Y-86938920D01*
X129721053Y-86816865D01*
X129687568Y-86755542D01*
X129692552Y-86685850D01*
X129734424Y-86629917D01*
X129765400Y-86613002D01*
X129897331Y-86563796D01*
X130012546Y-86477546D01*
X130098796Y-86362331D01*
X130149091Y-86227483D01*
X130155500Y-86167873D01*
X130155499Y-84372128D01*
X130149091Y-84312517D01*
X130098796Y-84177669D01*
X130098795Y-84177668D01*
X130098793Y-84177664D01*
X130012547Y-84062455D01*
X130012544Y-84062452D01*
X129897335Y-83976206D01*
X129897328Y-83976202D01*
X129762482Y-83925908D01*
X129762483Y-83925908D01*
X129702883Y-83919501D01*
X129702881Y-83919500D01*
X129702873Y-83919500D01*
X129702864Y-83919500D01*
X127907129Y-83919500D01*
X127907123Y-83919501D01*
X127847516Y-83925908D01*
X127712671Y-83976202D01*
X127712664Y-83976206D01*
X127597455Y-84062452D01*
X127597452Y-84062455D01*
X127511206Y-84177664D01*
X127511202Y-84177671D01*
X127460908Y-84312517D01*
X127454501Y-84372116D01*
X127454501Y-84372123D01*
X127454500Y-84372135D01*
X127454500Y-86167870D01*
X127454501Y-86167876D01*
X127460908Y-86227483D01*
X127511202Y-86362328D01*
X127511206Y-86362335D01*
X127597452Y-86477544D01*
X127597455Y-86477547D01*
X127712664Y-86563793D01*
X127712671Y-86563797D01*
X127712674Y-86563798D01*
X127844598Y-86613002D01*
X127900531Y-86654873D01*
X127924949Y-86720337D01*
X127910098Y-86788610D01*
X127888947Y-86816865D01*
X127766886Y-86938926D01*
X127631400Y-87132420D01*
X127631399Y-87132422D01*
X127531570Y-87346507D01*
X127531567Y-87346513D01*
X127474364Y-87559999D01*
X127474364Y-87560000D01*
X128191653Y-87560000D01*
X128258692Y-87579685D01*
X128304447Y-87632489D01*
X128314391Y-87701647D01*
X128310631Y-87718933D01*
X128305000Y-87738111D01*
X128305000Y-87881888D01*
X128310631Y-87901067D01*
X128310630Y-87970936D01*
X128272855Y-88029714D01*
X128209299Y-88058738D01*
X128191653Y-88060000D01*
X127451353Y-88060000D01*
X127384314Y-88040315D01*
X127363672Y-88023681D01*
X126301218Y-86961227D01*
X126267733Y-86899904D01*
X126264899Y-86873553D01*
X126264899Y-86753785D01*
X126284584Y-86686747D01*
X126296751Y-86670812D01*
X126371930Y-86587320D01*
X126371931Y-86587317D01*
X126371933Y-86587316D01*
X126466579Y-86423384D01*
X126525074Y-86243356D01*
X126544860Y-86055100D01*
X126525074Y-85866844D01*
X126466579Y-85686816D01*
X126371933Y-85522884D01*
X126245271Y-85382212D01*
X126242034Y-85379860D01*
X126092134Y-85270951D01*
X126092129Y-85270948D01*
X125919207Y-85193957D01*
X125919202Y-85193955D01*
X125773401Y-85162965D01*
X125734046Y-85154600D01*
X125544754Y-85154600D01*
X125512297Y-85161498D01*
X125359597Y-85193955D01*
X125359592Y-85193957D01*
X125186670Y-85270948D01*
X125186665Y-85270951D01*
X125033529Y-85382211D01*
X124906866Y-85522885D01*
X124812221Y-85686815D01*
X124812218Y-85686822D01*
X124753727Y-85866840D01*
X124753726Y-85866844D01*
X124733940Y-86055100D01*
X124753726Y-86243356D01*
X124753727Y-86243359D01*
X124812218Y-86423377D01*
X124812221Y-86423384D01*
X124906867Y-86587316D01*
X124950172Y-86635410D01*
X124982050Y-86670815D01*
X125012280Y-86733806D01*
X125013900Y-86753787D01*
X125013900Y-87101255D01*
X125012175Y-87116872D01*
X125012461Y-87116899D01*
X125011726Y-87124665D01*
X125013900Y-87193814D01*
X125013900Y-87223343D01*
X125013901Y-87223360D01*
X125014768Y-87230231D01*
X125015226Y-87236050D01*
X125016690Y-87282624D01*
X125016691Y-87282627D01*
X125022280Y-87301867D01*
X125026224Y-87320911D01*
X125026782Y-87325320D01*
X125028736Y-87340791D01*
X125045890Y-87384119D01*
X125047782Y-87389647D01*
X125060781Y-87434388D01*
X125070980Y-87451634D01*
X125079536Y-87469100D01*
X125086914Y-87487732D01*
X125114298Y-87525423D01*
X125117506Y-87530307D01*
X125141227Y-87570416D01*
X125141233Y-87570424D01*
X125155390Y-87584580D01*
X125168028Y-87599376D01*
X125179805Y-87615586D01*
X125179806Y-87615587D01*
X125215709Y-87645288D01*
X125220020Y-87649210D01*
X131683257Y-94112447D01*
X135191281Y-97620471D01*
X135224766Y-97681794D01*
X135227600Y-97708152D01*
X135227600Y-107293455D01*
X135225875Y-107309072D01*
X135226161Y-107309099D01*
X135225426Y-107316865D01*
X135227600Y-107386014D01*
X135227600Y-107415543D01*
X135227601Y-107415560D01*
X135228468Y-107422431D01*
X135228926Y-107428250D01*
X135230390Y-107474824D01*
X135230391Y-107474827D01*
X135235980Y-107494067D01*
X135239924Y-107513111D01*
X135241873Y-107528535D01*
X135242436Y-107532991D01*
X135259590Y-107576319D01*
X135261482Y-107581847D01*
X135274481Y-107626588D01*
X135284680Y-107643834D01*
X135293238Y-107661303D01*
X135300614Y-107679932D01*
X135327998Y-107717623D01*
X135331206Y-107722507D01*
X135354927Y-107762616D01*
X135354933Y-107762624D01*
X135369090Y-107776780D01*
X135381728Y-107791576D01*
X135393505Y-107807786D01*
X135393506Y-107807787D01*
X135429409Y-107837488D01*
X135433720Y-107841410D01*
X135680186Y-108087876D01*
X135888433Y-108296123D01*
X135921918Y-108357446D01*
X135916934Y-108427138D01*
X135875064Y-108483070D01*
X135822452Y-108522455D01*
X135736206Y-108637664D01*
X135736202Y-108637671D01*
X135685908Y-108772517D01*
X135679501Y-108832116D01*
X135679501Y-108832123D01*
X135679500Y-108832135D01*
X135679500Y-110627870D01*
X135679501Y-110627876D01*
X135685908Y-110687483D01*
X135736202Y-110822328D01*
X135736206Y-110822335D01*
X135822452Y-110937544D01*
X135822455Y-110937547D01*
X135937664Y-111023793D01*
X135937671Y-111023797D01*
X135937674Y-111023798D01*
X136069598Y-111073002D01*
X136125531Y-111114873D01*
X136149949Y-111180337D01*
X136135098Y-111248610D01*
X136113947Y-111276865D01*
X135991886Y-111398926D01*
X135856400Y-111592420D01*
X135856399Y-111592422D01*
X135756570Y-111806507D01*
X135756567Y-111806513D01*
X135699364Y-112019999D01*
X135699364Y-112020000D01*
X136416653Y-112020000D01*
X136483692Y-112039685D01*
X136529447Y-112092489D01*
X136539391Y-112161647D01*
X136535631Y-112178933D01*
X136530000Y-112198111D01*
X136530000Y-112341888D01*
X136535631Y-112361067D01*
X136535630Y-112430936D01*
X136497855Y-112489714D01*
X136434299Y-112518738D01*
X136416653Y-112520000D01*
X135699364Y-112520000D01*
X135756567Y-112733486D01*
X135756570Y-112733492D01*
X135856399Y-112947578D01*
X135991894Y-113141082D01*
X136158917Y-113308105D01*
X136352421Y-113443600D01*
X136566507Y-113543429D01*
X136566516Y-113543433D01*
X136780000Y-113600634D01*
X136780000Y-112882301D01*
X136799685Y-112815262D01*
X136852489Y-112769507D01*
X136921647Y-112759563D01*
X136994237Y-112770000D01*
X136994238Y-112770000D01*
X137065762Y-112770000D01*
X137065763Y-112770000D01*
X137138353Y-112759563D01*
X137207512Y-112769507D01*
X137260315Y-112815262D01*
X137280000Y-112882301D01*
X137280000Y-113600633D01*
X137493483Y-113543433D01*
X137493492Y-113543429D01*
X137707578Y-113443600D01*
X137901082Y-113308105D01*
X138068105Y-113141082D01*
X138203600Y-112947578D01*
X138303429Y-112733492D01*
X138303432Y-112733486D01*
X138360636Y-112520000D01*
X137643347Y-112520000D01*
X137576308Y-112500315D01*
X137530553Y-112447511D01*
X137520609Y-112378353D01*
X137524369Y-112361067D01*
X137530000Y-112341888D01*
X137530000Y-112198111D01*
X137524369Y-112178933D01*
X137524370Y-112109064D01*
X137562145Y-112050286D01*
X137625701Y-112021262D01*
X137643347Y-112020000D01*
X138360636Y-112020000D01*
X138360635Y-112019999D01*
X138303432Y-111806513D01*
X138303429Y-111806507D01*
X138203600Y-111592422D01*
X138203599Y-111592420D01*
X138068113Y-111398926D01*
X138068108Y-111398920D01*
X137946053Y-111276865D01*
X137912568Y-111215542D01*
X137915977Y-111167870D01*
X143679500Y-111167870D01*
X143679501Y-111167876D01*
X143685908Y-111227483D01*
X143736202Y-111362328D01*
X143736206Y-111362335D01*
X143822452Y-111477544D01*
X143822455Y-111477547D01*
X143937664Y-111563793D01*
X143937671Y-111563797D01*
X143937674Y-111563798D01*
X144069598Y-111613002D01*
X144125531Y-111654873D01*
X144149949Y-111720337D01*
X144135098Y-111788610D01*
X144113947Y-111816865D01*
X143991886Y-111938926D01*
X143856400Y-112132420D01*
X143856399Y-112132422D01*
X143756570Y-112346507D01*
X143756567Y-112346513D01*
X143699364Y-112559999D01*
X143699364Y-112560000D01*
X144416653Y-112560000D01*
X144483692Y-112579685D01*
X144529447Y-112632489D01*
X144539391Y-112701647D01*
X144535631Y-112718933D01*
X144530000Y-112738111D01*
X144530000Y-112881888D01*
X144535631Y-112901067D01*
X144535630Y-112970936D01*
X144497855Y-113029714D01*
X144434299Y-113058738D01*
X144416653Y-113060000D01*
X143699364Y-113060000D01*
X143756567Y-113273486D01*
X143756570Y-113273492D01*
X143856399Y-113487578D01*
X143991894Y-113681082D01*
X144158917Y-113848105D01*
X144352421Y-113983600D01*
X144566507Y-114083429D01*
X144566516Y-114083433D01*
X144780000Y-114140634D01*
X144780000Y-113422301D01*
X144799685Y-113355262D01*
X144852489Y-113309507D01*
X144921647Y-113299563D01*
X144994237Y-113310000D01*
X144994238Y-113310000D01*
X145065762Y-113310000D01*
X145065763Y-113310000D01*
X145138353Y-113299563D01*
X145207512Y-113309507D01*
X145260315Y-113355262D01*
X145280000Y-113422301D01*
X145280000Y-114140633D01*
X145493483Y-114083433D01*
X145493492Y-114083429D01*
X145707578Y-113983600D01*
X145901082Y-113848105D01*
X146068105Y-113681082D01*
X146203600Y-113487578D01*
X146303429Y-113273492D01*
X146303432Y-113273486D01*
X146360636Y-113060000D01*
X145643347Y-113060000D01*
X145576308Y-113040315D01*
X145530553Y-112987511D01*
X145520609Y-112918353D01*
X145524369Y-112901067D01*
X145530000Y-112881888D01*
X145530000Y-112738111D01*
X145524369Y-112718933D01*
X145524370Y-112649064D01*
X145562145Y-112590286D01*
X145625701Y-112561262D01*
X145643347Y-112560000D01*
X146360636Y-112560000D01*
X146360635Y-112559999D01*
X146303432Y-112346513D01*
X146303429Y-112346507D01*
X146203600Y-112132422D01*
X146203599Y-112132420D01*
X146068113Y-111938926D01*
X146068108Y-111938920D01*
X145946053Y-111816865D01*
X145912568Y-111755542D01*
X145917552Y-111685850D01*
X145959424Y-111629917D01*
X145990400Y-111613002D01*
X146122331Y-111563796D01*
X146237546Y-111477546D01*
X146323796Y-111362331D01*
X146374091Y-111227483D01*
X146380500Y-111167873D01*
X146380500Y-110627870D01*
X151679500Y-110627870D01*
X151679501Y-110627876D01*
X151685908Y-110687483D01*
X151736202Y-110822328D01*
X151736206Y-110822335D01*
X151822452Y-110937544D01*
X151822455Y-110937547D01*
X151937664Y-111023793D01*
X151937671Y-111023797D01*
X151937674Y-111023798D01*
X152069598Y-111073002D01*
X152125531Y-111114873D01*
X152149949Y-111180337D01*
X152135098Y-111248610D01*
X152113947Y-111276865D01*
X151991886Y-111398926D01*
X151856400Y-111592420D01*
X151856399Y-111592422D01*
X151756570Y-111806507D01*
X151756567Y-111806513D01*
X151699364Y-112019999D01*
X151699364Y-112020000D01*
X152416653Y-112020000D01*
X152483692Y-112039685D01*
X152529447Y-112092489D01*
X152539391Y-112161647D01*
X152535631Y-112178933D01*
X152530000Y-112198111D01*
X152530000Y-112341888D01*
X152535631Y-112361067D01*
X152535630Y-112430936D01*
X152497855Y-112489714D01*
X152434299Y-112518738D01*
X152416653Y-112520000D01*
X151699364Y-112520000D01*
X151756567Y-112733486D01*
X151756570Y-112733492D01*
X151856399Y-112947578D01*
X151991894Y-113141082D01*
X152158917Y-113308105D01*
X152352421Y-113443600D01*
X152566507Y-113543429D01*
X152566516Y-113543433D01*
X152780000Y-113600634D01*
X152780000Y-112882301D01*
X152799685Y-112815262D01*
X152852489Y-112769507D01*
X152921647Y-112759563D01*
X152994237Y-112770000D01*
X152994238Y-112770000D01*
X153065762Y-112770000D01*
X153065763Y-112770000D01*
X153138353Y-112759563D01*
X153207512Y-112769507D01*
X153260315Y-112815262D01*
X153280000Y-112882301D01*
X153280000Y-113600633D01*
X153493483Y-113543433D01*
X153493492Y-113543429D01*
X153707578Y-113443600D01*
X153901082Y-113308105D01*
X154033125Y-113176062D01*
X184646084Y-113176062D01*
X184646211Y-113175944D01*
X184646218Y-113175936D01*
X184646086Y-113176058D01*
X184646084Y-113176062D01*
X154033125Y-113176062D01*
X154068105Y-113141082D01*
X154203600Y-112947578D01*
X154303429Y-112733492D01*
X154303432Y-112733486D01*
X154360636Y-112520000D01*
X153643347Y-112520000D01*
X153576308Y-112500315D01*
X153530553Y-112447511D01*
X153520609Y-112378353D01*
X153524369Y-112361067D01*
X153530000Y-112341888D01*
X153530000Y-112198111D01*
X153524369Y-112178933D01*
X153524370Y-112109064D01*
X153562145Y-112050286D01*
X153625701Y-112021262D01*
X153643347Y-112020000D01*
X154360636Y-112020000D01*
X154360635Y-112019999D01*
X154303432Y-111806513D01*
X154303429Y-111806507D01*
X154203600Y-111592422D01*
X154203599Y-111592420D01*
X154068113Y-111398926D01*
X154068108Y-111398920D01*
X153946053Y-111276865D01*
X153912568Y-111215542D01*
X153917552Y-111145850D01*
X153959424Y-111089917D01*
X153990400Y-111073002D01*
X154122331Y-111023796D01*
X154237546Y-110937546D01*
X154323796Y-110822331D01*
X154374091Y-110687483D01*
X154380500Y-110627873D01*
X154380499Y-108832128D01*
X154374091Y-108772517D01*
X154323796Y-108637669D01*
X154323795Y-108637668D01*
X154323793Y-108637664D01*
X154237547Y-108522455D01*
X154237544Y-108522452D01*
X154122335Y-108436206D01*
X154122328Y-108436202D01*
X153987482Y-108385908D01*
X153987483Y-108385908D01*
X153927883Y-108379501D01*
X153927881Y-108379500D01*
X153927873Y-108379500D01*
X153927864Y-108379500D01*
X152132129Y-108379500D01*
X152132123Y-108379501D01*
X152072516Y-108385908D01*
X151937671Y-108436202D01*
X151937664Y-108436206D01*
X151822455Y-108522452D01*
X151822452Y-108522455D01*
X151736206Y-108637664D01*
X151736202Y-108637671D01*
X151685908Y-108772517D01*
X151679501Y-108832116D01*
X151679501Y-108832123D01*
X151679500Y-108832135D01*
X151679500Y-110627870D01*
X146380500Y-110627870D01*
X146380499Y-109372128D01*
X146374091Y-109312517D01*
X146323796Y-109177669D01*
X146323795Y-109177668D01*
X146323793Y-109177664D01*
X146237547Y-109062455D01*
X146237544Y-109062452D01*
X146122335Y-108976206D01*
X146122328Y-108976202D01*
X145987482Y-108925908D01*
X145987483Y-108925908D01*
X145927883Y-108919501D01*
X145927881Y-108919500D01*
X145927873Y-108919500D01*
X145927864Y-108919500D01*
X144132129Y-108919500D01*
X144132123Y-108919501D01*
X144072516Y-108925908D01*
X143937671Y-108976202D01*
X143937664Y-108976206D01*
X143822455Y-109062452D01*
X143822452Y-109062455D01*
X143736206Y-109177664D01*
X143736202Y-109177671D01*
X143685908Y-109312517D01*
X143679501Y-109372116D01*
X143679501Y-109372123D01*
X143679500Y-109372135D01*
X143679500Y-111167870D01*
X137915977Y-111167870D01*
X137917552Y-111145850D01*
X137959424Y-111089917D01*
X137990400Y-111073002D01*
X138122331Y-111023796D01*
X138237546Y-110937546D01*
X138323796Y-110822331D01*
X138374091Y-110687483D01*
X138380500Y-110627873D01*
X138380499Y-108832128D01*
X138374091Y-108772517D01*
X138323796Y-108637669D01*
X138323795Y-108637668D01*
X138323793Y-108637664D01*
X138237547Y-108522455D01*
X138237544Y-108522452D01*
X138122335Y-108436206D01*
X138122328Y-108436202D01*
X137987482Y-108385908D01*
X137987483Y-108385908D01*
X137927883Y-108379501D01*
X137927881Y-108379500D01*
X137927873Y-108379500D01*
X137927865Y-108379500D01*
X137723301Y-108379500D01*
X137656262Y-108359815D01*
X137612598Y-108309424D01*
X137612592Y-108309428D01*
X137612571Y-108309394D01*
X137610507Y-108307011D01*
X137609497Y-108304741D01*
X137608616Y-108302706D01*
X137598423Y-108285471D01*
X137589861Y-108267994D01*
X137582487Y-108249370D01*
X137582485Y-108249367D01*
X137555079Y-108211645D01*
X137551888Y-108206786D01*
X137528172Y-108166683D01*
X137528165Y-108166674D01*
X137514006Y-108152515D01*
X137501368Y-108137719D01*
X137489594Y-108121513D01*
X137453688Y-108091809D01*
X137449376Y-108087886D01*
X136514919Y-107153428D01*
X136481434Y-107092105D01*
X136478600Y-107065747D01*
X136478600Y-101451475D01*
X136498285Y-101384436D01*
X136551089Y-101338681D01*
X136620247Y-101328737D01*
X136634693Y-101331700D01*
X136780000Y-101370634D01*
X136780000Y-100652301D01*
X136799685Y-100585262D01*
X136852489Y-100539507D01*
X136921647Y-100529563D01*
X136994237Y-100540000D01*
X136994238Y-100540000D01*
X137065762Y-100540000D01*
X137065763Y-100540000D01*
X137138353Y-100529563D01*
X137207512Y-100539507D01*
X137260315Y-100585262D01*
X137280000Y-100652301D01*
X137280000Y-101370633D01*
X137493483Y-101313433D01*
X137493492Y-101313429D01*
X137707578Y-101213600D01*
X137901082Y-101078105D01*
X138068105Y-100911082D01*
X138203600Y-100717578D01*
X138303429Y-100503492D01*
X138303432Y-100503486D01*
X138360636Y-100290000D01*
X137643347Y-100290000D01*
X137576308Y-100270315D01*
X137530553Y-100217511D01*
X137520609Y-100148353D01*
X137524369Y-100131067D01*
X137530000Y-100111888D01*
X137530000Y-99968111D01*
X137524369Y-99948933D01*
X137524370Y-99879064D01*
X137562145Y-99820286D01*
X137625701Y-99791262D01*
X137643347Y-99790000D01*
X138360636Y-99790000D01*
X138360635Y-99789999D01*
X138303432Y-99576513D01*
X138303429Y-99576507D01*
X138203600Y-99362422D01*
X138203599Y-99362420D01*
X138068113Y-99168926D01*
X138068108Y-99168920D01*
X137946053Y-99046865D01*
X137912568Y-98985542D01*
X137917552Y-98915850D01*
X137959424Y-98859917D01*
X137990400Y-98843002D01*
X138122331Y-98793796D01*
X138237546Y-98707546D01*
X138267247Y-98667870D01*
X143679500Y-98667870D01*
X143679501Y-98667876D01*
X143685908Y-98727483D01*
X143736202Y-98862328D01*
X143736206Y-98862335D01*
X143822452Y-98977544D01*
X143822455Y-98977547D01*
X143937664Y-99063793D01*
X143937671Y-99063797D01*
X143937674Y-99063798D01*
X144069598Y-99113002D01*
X144125531Y-99154873D01*
X144149949Y-99220337D01*
X144135098Y-99288610D01*
X144113947Y-99316865D01*
X143991886Y-99438926D01*
X143856400Y-99632420D01*
X143856399Y-99632422D01*
X143756570Y-99846507D01*
X143756567Y-99846513D01*
X143699364Y-100059999D01*
X143699364Y-100060000D01*
X144416653Y-100060000D01*
X144483692Y-100079685D01*
X144529447Y-100132489D01*
X144539391Y-100201647D01*
X144535631Y-100218933D01*
X144530000Y-100238111D01*
X144530000Y-100381888D01*
X144535631Y-100401067D01*
X144535630Y-100470936D01*
X144497855Y-100529714D01*
X144434299Y-100558738D01*
X144416653Y-100560000D01*
X143699364Y-100560000D01*
X143756567Y-100773486D01*
X143756570Y-100773492D01*
X143856399Y-100987578D01*
X143991894Y-101181082D01*
X144158917Y-101348105D01*
X144352421Y-101483600D01*
X144566507Y-101583429D01*
X144566516Y-101583433D01*
X144780000Y-101640634D01*
X144780000Y-100922301D01*
X144799685Y-100855262D01*
X144852489Y-100809507D01*
X144921647Y-100799563D01*
X144994237Y-100810000D01*
X144994238Y-100810000D01*
X145065762Y-100810000D01*
X145065763Y-100810000D01*
X145138353Y-100799563D01*
X145207512Y-100809507D01*
X145260315Y-100855262D01*
X145280000Y-100922301D01*
X145280000Y-101640633D01*
X145493483Y-101583433D01*
X145493492Y-101583429D01*
X145707578Y-101483600D01*
X145901082Y-101348105D01*
X146068105Y-101181082D01*
X146203600Y-100987578D01*
X146303429Y-100773492D01*
X146303432Y-100773486D01*
X146360636Y-100560000D01*
X145643347Y-100560000D01*
X145576308Y-100540315D01*
X145530553Y-100487511D01*
X145520609Y-100418353D01*
X145524369Y-100401067D01*
X145530000Y-100381888D01*
X145530000Y-100238111D01*
X145524369Y-100218933D01*
X145524370Y-100149064D01*
X145562145Y-100090286D01*
X145625701Y-100061262D01*
X145643347Y-100060000D01*
X146360636Y-100060000D01*
X146360635Y-100059999D01*
X146303432Y-99846513D01*
X146303429Y-99846507D01*
X146203600Y-99632422D01*
X146203599Y-99632420D01*
X146068113Y-99438926D01*
X146068108Y-99438920D01*
X145946053Y-99316865D01*
X145912568Y-99255542D01*
X145917552Y-99185850D01*
X145959424Y-99129917D01*
X145990400Y-99113002D01*
X146122331Y-99063796D01*
X146237546Y-98977546D01*
X146323796Y-98862331D01*
X146374091Y-98727483D01*
X146380500Y-98667873D01*
X146380500Y-98397870D01*
X151679500Y-98397870D01*
X151679501Y-98397876D01*
X151685908Y-98457483D01*
X151736202Y-98592328D01*
X151736206Y-98592335D01*
X151822452Y-98707544D01*
X151822455Y-98707547D01*
X151937664Y-98793793D01*
X151937671Y-98793797D01*
X151937674Y-98793798D01*
X152069598Y-98843002D01*
X152125531Y-98884873D01*
X152149949Y-98950337D01*
X152135098Y-99018610D01*
X152113947Y-99046865D01*
X151991886Y-99168926D01*
X151856400Y-99362420D01*
X151856399Y-99362422D01*
X151756570Y-99576507D01*
X151756567Y-99576513D01*
X151699364Y-99789999D01*
X151699364Y-99790000D01*
X152416653Y-99790000D01*
X152483692Y-99809685D01*
X152529447Y-99862489D01*
X152539391Y-99931647D01*
X152535631Y-99948933D01*
X152530000Y-99968111D01*
X152530000Y-100111888D01*
X152535631Y-100131067D01*
X152535630Y-100200936D01*
X152497855Y-100259714D01*
X152434299Y-100288738D01*
X152416653Y-100290000D01*
X151699364Y-100290000D01*
X151756567Y-100503486D01*
X151756570Y-100503492D01*
X151856399Y-100717578D01*
X151991894Y-100911082D01*
X152158917Y-101078105D01*
X152352421Y-101213600D01*
X152566507Y-101313429D01*
X152566516Y-101313433D01*
X152780000Y-101370634D01*
X152780000Y-100652301D01*
X152799685Y-100585262D01*
X152852489Y-100539507D01*
X152921647Y-100529563D01*
X152994237Y-100540000D01*
X152994238Y-100540000D01*
X153065762Y-100540000D01*
X153065763Y-100540000D01*
X153138353Y-100529563D01*
X153207512Y-100539507D01*
X153260315Y-100585262D01*
X153280000Y-100652301D01*
X153280000Y-101370633D01*
X153493483Y-101313433D01*
X153493492Y-101313429D01*
X153707578Y-101213600D01*
X153901082Y-101078105D01*
X154068105Y-100911082D01*
X154203600Y-100717578D01*
X154303429Y-100503492D01*
X154303432Y-100503486D01*
X154360636Y-100290000D01*
X153643347Y-100290000D01*
X153576308Y-100270315D01*
X153530553Y-100217511D01*
X153520609Y-100148353D01*
X153524369Y-100131067D01*
X153530000Y-100111888D01*
X153530000Y-99968111D01*
X153524369Y-99948933D01*
X153524370Y-99879064D01*
X153562145Y-99820286D01*
X153625701Y-99791262D01*
X153643347Y-99790000D01*
X154360636Y-99790000D01*
X154360635Y-99789999D01*
X154303432Y-99576513D01*
X154303429Y-99576507D01*
X154203600Y-99362422D01*
X154203599Y-99362420D01*
X154068113Y-99168926D01*
X154068108Y-99168920D01*
X153946053Y-99046865D01*
X153912568Y-98985542D01*
X153917552Y-98915850D01*
X153959424Y-98859917D01*
X153990400Y-98843002D01*
X154122331Y-98793796D01*
X154237546Y-98707546D01*
X154323796Y-98592331D01*
X154374091Y-98457483D01*
X154380500Y-98397873D01*
X154380499Y-96602128D01*
X154374091Y-96542517D01*
X154323796Y-96407669D01*
X154323795Y-96407668D01*
X154323793Y-96407664D01*
X154237547Y-96292455D01*
X154237544Y-96292452D01*
X154122335Y-96206206D01*
X154122328Y-96206202D01*
X153987482Y-96155908D01*
X153987483Y-96155908D01*
X153927883Y-96149501D01*
X153927881Y-96149500D01*
X153927873Y-96149500D01*
X153927864Y-96149500D01*
X152132129Y-96149500D01*
X152132123Y-96149501D01*
X152072516Y-96155908D01*
X151937671Y-96206202D01*
X151937664Y-96206206D01*
X151822455Y-96292452D01*
X151822452Y-96292455D01*
X151736206Y-96407664D01*
X151736202Y-96407671D01*
X151685908Y-96542517D01*
X151679501Y-96602116D01*
X151679501Y-96602123D01*
X151679500Y-96602135D01*
X151679500Y-98397870D01*
X146380500Y-98397870D01*
X146380499Y-96872128D01*
X146374091Y-96812517D01*
X146353898Y-96758378D01*
X146323797Y-96677671D01*
X146323793Y-96677664D01*
X146237547Y-96562455D01*
X146237544Y-96562452D01*
X146122335Y-96476206D01*
X146122328Y-96476202D01*
X145987482Y-96425908D01*
X145987483Y-96425908D01*
X145927883Y-96419501D01*
X145927881Y-96419500D01*
X145927873Y-96419500D01*
X145927864Y-96419500D01*
X144132129Y-96419500D01*
X144132123Y-96419501D01*
X144072516Y-96425908D01*
X143937671Y-96476202D01*
X143937664Y-96476206D01*
X143822455Y-96562452D01*
X143822452Y-96562455D01*
X143736206Y-96677664D01*
X143736202Y-96677671D01*
X143685908Y-96812517D01*
X143679501Y-96872116D01*
X143679501Y-96872123D01*
X143679500Y-96872135D01*
X143679500Y-98667870D01*
X138267247Y-98667870D01*
X138323796Y-98592331D01*
X138374091Y-98457483D01*
X138380500Y-98397873D01*
X138380499Y-96602128D01*
X138374091Y-96542517D01*
X138323796Y-96407669D01*
X138323795Y-96407668D01*
X138323793Y-96407664D01*
X138237547Y-96292455D01*
X138237544Y-96292452D01*
X138122335Y-96206206D01*
X138122328Y-96206202D01*
X137987482Y-96155908D01*
X137987483Y-96155908D01*
X137927883Y-96149501D01*
X137927881Y-96149500D01*
X137927873Y-96149500D01*
X137927865Y-96149500D01*
X137723301Y-96149500D01*
X137656262Y-96129815D01*
X137612598Y-96079424D01*
X137612592Y-96079428D01*
X137612571Y-96079394D01*
X137610507Y-96077011D01*
X137609497Y-96074741D01*
X137608616Y-96072706D01*
X137598423Y-96055471D01*
X137589861Y-96037994D01*
X137582487Y-96019370D01*
X137582486Y-96019368D01*
X137555079Y-95981645D01*
X137551888Y-95976786D01*
X137528172Y-95936683D01*
X137528165Y-95936674D01*
X137514006Y-95922515D01*
X137501368Y-95907719D01*
X137489594Y-95891513D01*
X137453688Y-95861809D01*
X137449376Y-95857886D01*
X135791619Y-94200128D01*
X135758134Y-94138805D01*
X135755300Y-94112447D01*
X135755300Y-88893850D01*
X135774985Y-88826811D01*
X135827789Y-88781056D01*
X135896947Y-88771112D01*
X135960503Y-88800137D01*
X135966981Y-88806169D01*
X136008917Y-88848105D01*
X136202421Y-88983600D01*
X136416507Y-89083429D01*
X136416516Y-89083433D01*
X136630000Y-89140634D01*
X136630000Y-88422301D01*
X136649685Y-88355262D01*
X136702489Y-88309507D01*
X136771647Y-88299563D01*
X136844237Y-88310000D01*
X136844238Y-88310000D01*
X136915762Y-88310000D01*
X136915763Y-88310000D01*
X136988353Y-88299563D01*
X137057512Y-88309507D01*
X137110315Y-88355262D01*
X137130000Y-88422301D01*
X137130000Y-89140633D01*
X137343483Y-89083433D01*
X137343492Y-89083429D01*
X137557578Y-88983600D01*
X137751082Y-88848105D01*
X137918105Y-88681082D01*
X138053600Y-88487578D01*
X138153429Y-88273492D01*
X138153432Y-88273486D01*
X138210636Y-88060000D01*
X137493347Y-88060000D01*
X137426308Y-88040315D01*
X137380553Y-87987511D01*
X137370609Y-87918353D01*
X137374369Y-87901067D01*
X137380000Y-87881888D01*
X137380000Y-87738111D01*
X137374369Y-87718933D01*
X137374370Y-87649064D01*
X137412145Y-87590286D01*
X137475701Y-87561262D01*
X137493347Y-87560000D01*
X138210636Y-87560000D01*
X138210635Y-87559999D01*
X138153432Y-87346513D01*
X138153429Y-87346507D01*
X138053600Y-87132422D01*
X138053599Y-87132420D01*
X137918113Y-86938926D01*
X137918108Y-86938920D01*
X137796053Y-86816865D01*
X137762568Y-86755542D01*
X137767552Y-86685850D01*
X137809424Y-86629917D01*
X137840400Y-86613002D01*
X137972331Y-86563796D01*
X138087546Y-86477546D01*
X138173796Y-86362331D01*
X138224091Y-86227483D01*
X138230500Y-86167873D01*
X138230500Y-86167870D01*
X143604500Y-86167870D01*
X143604501Y-86167876D01*
X143610908Y-86227483D01*
X143661202Y-86362328D01*
X143661206Y-86362335D01*
X143747452Y-86477544D01*
X143747455Y-86477547D01*
X143862664Y-86563793D01*
X143862671Y-86563797D01*
X143862674Y-86563798D01*
X143994598Y-86613002D01*
X144050531Y-86654873D01*
X144074949Y-86720337D01*
X144060098Y-86788610D01*
X144038947Y-86816865D01*
X143916886Y-86938926D01*
X143781400Y-87132420D01*
X143781399Y-87132422D01*
X143681570Y-87346507D01*
X143681567Y-87346513D01*
X143624364Y-87559999D01*
X143624364Y-87560000D01*
X144341653Y-87560000D01*
X144408692Y-87579685D01*
X144454447Y-87632489D01*
X144464391Y-87701647D01*
X144460631Y-87718933D01*
X144455000Y-87738111D01*
X144455000Y-87881888D01*
X144460631Y-87901067D01*
X144460630Y-87970936D01*
X144422855Y-88029714D01*
X144359299Y-88058738D01*
X144341653Y-88060000D01*
X143624364Y-88060000D01*
X143681567Y-88273486D01*
X143681570Y-88273492D01*
X143781399Y-88487578D01*
X143916894Y-88681082D01*
X144083917Y-88848105D01*
X144277421Y-88983600D01*
X144491507Y-89083429D01*
X144491516Y-89083433D01*
X144705000Y-89140634D01*
X144705000Y-88422301D01*
X144724685Y-88355262D01*
X144777489Y-88309507D01*
X144846647Y-88299563D01*
X144919237Y-88310000D01*
X144919238Y-88310000D01*
X144990762Y-88310000D01*
X144990763Y-88310000D01*
X145063353Y-88299563D01*
X145132512Y-88309507D01*
X145185315Y-88355262D01*
X145205000Y-88422301D01*
X145205000Y-89140633D01*
X145418483Y-89083433D01*
X145418492Y-89083429D01*
X145632578Y-88983600D01*
X145826082Y-88848105D01*
X145993105Y-88681082D01*
X146128600Y-88487578D01*
X146228429Y-88273492D01*
X146228432Y-88273486D01*
X146285636Y-88060000D01*
X145568347Y-88060000D01*
X145501308Y-88040315D01*
X145455553Y-87987511D01*
X145445609Y-87918353D01*
X145449369Y-87901067D01*
X145455000Y-87881888D01*
X145455000Y-87738111D01*
X145449369Y-87718933D01*
X145449370Y-87649064D01*
X145487145Y-87590286D01*
X145550701Y-87561262D01*
X145568347Y-87560000D01*
X146285636Y-87560000D01*
X146285635Y-87559999D01*
X146228432Y-87346513D01*
X146228429Y-87346507D01*
X146128600Y-87132422D01*
X146128599Y-87132420D01*
X145993113Y-86938926D01*
X145993108Y-86938920D01*
X145871053Y-86816865D01*
X145837568Y-86755542D01*
X145842552Y-86685850D01*
X145884424Y-86629917D01*
X145915400Y-86613002D01*
X146047331Y-86563796D01*
X146162546Y-86477546D01*
X146248796Y-86362331D01*
X146299091Y-86227483D01*
X146305500Y-86167873D01*
X146305500Y-86167870D01*
X151679500Y-86167870D01*
X151679501Y-86167876D01*
X151685908Y-86227483D01*
X151736202Y-86362328D01*
X151736206Y-86362335D01*
X151822452Y-86477544D01*
X151822455Y-86477547D01*
X151937664Y-86563793D01*
X151937671Y-86563797D01*
X151937674Y-86563798D01*
X152069598Y-86613002D01*
X152125531Y-86654873D01*
X152149949Y-86720337D01*
X152135098Y-86788610D01*
X152113947Y-86816865D01*
X151991886Y-86938926D01*
X151856400Y-87132420D01*
X151856399Y-87132422D01*
X151756570Y-87346507D01*
X151756567Y-87346513D01*
X151699364Y-87559999D01*
X151699364Y-87560000D01*
X152416653Y-87560000D01*
X152483692Y-87579685D01*
X152529447Y-87632489D01*
X152539391Y-87701647D01*
X152535631Y-87718933D01*
X152530000Y-87738111D01*
X152530000Y-87881888D01*
X152535631Y-87901067D01*
X152535630Y-87970936D01*
X152497855Y-88029714D01*
X152434299Y-88058738D01*
X152416653Y-88060000D01*
X151699364Y-88060000D01*
X151756567Y-88273486D01*
X151756570Y-88273492D01*
X151856399Y-88487578D01*
X151991894Y-88681082D01*
X152158917Y-88848105D01*
X152352421Y-88983600D01*
X152566507Y-89083429D01*
X152566516Y-89083433D01*
X152780000Y-89140634D01*
X152780000Y-88422301D01*
X152799685Y-88355262D01*
X152852489Y-88309507D01*
X152921647Y-88299563D01*
X152994237Y-88310000D01*
X152994238Y-88310000D01*
X153065762Y-88310000D01*
X153065763Y-88310000D01*
X153138353Y-88299563D01*
X153207512Y-88309507D01*
X153260315Y-88355262D01*
X153280000Y-88422301D01*
X153280000Y-89140633D01*
X153493483Y-89083433D01*
X153493492Y-89083429D01*
X153707578Y-88983600D01*
X153901082Y-88848105D01*
X154068105Y-88681082D01*
X154203600Y-88487578D01*
X154303429Y-88273492D01*
X154303432Y-88273486D01*
X154360636Y-88060000D01*
X153643347Y-88060000D01*
X153576308Y-88040315D01*
X153530553Y-87987511D01*
X153520609Y-87918353D01*
X153524369Y-87901067D01*
X153530000Y-87881888D01*
X153530000Y-87738111D01*
X153524369Y-87718933D01*
X153524370Y-87649064D01*
X153562145Y-87590286D01*
X153625701Y-87561262D01*
X153643347Y-87560000D01*
X154360636Y-87560000D01*
X154360635Y-87559999D01*
X154303432Y-87346513D01*
X154303429Y-87346507D01*
X154203600Y-87132422D01*
X154203599Y-87132420D01*
X154068113Y-86938926D01*
X154068108Y-86938920D01*
X153946053Y-86816865D01*
X153912568Y-86755542D01*
X153917552Y-86685850D01*
X153959424Y-86629917D01*
X153990400Y-86613002D01*
X154122331Y-86563796D01*
X154237546Y-86477546D01*
X154323796Y-86362331D01*
X154374091Y-86227483D01*
X154380500Y-86167873D01*
X154380499Y-84372128D01*
X154374091Y-84312517D01*
X154323796Y-84177669D01*
X154323795Y-84177668D01*
X154323793Y-84177664D01*
X154237547Y-84062455D01*
X154237544Y-84062452D01*
X154122335Y-83976206D01*
X154122328Y-83976202D01*
X153987482Y-83925908D01*
X153987483Y-83925908D01*
X153927883Y-83919501D01*
X153927881Y-83919500D01*
X153927873Y-83919500D01*
X153927864Y-83919500D01*
X152132129Y-83919500D01*
X152132123Y-83919501D01*
X152072516Y-83925908D01*
X151937671Y-83976202D01*
X151937664Y-83976206D01*
X151822455Y-84062452D01*
X151822452Y-84062455D01*
X151736206Y-84177664D01*
X151736202Y-84177671D01*
X151685908Y-84312517D01*
X151679501Y-84372116D01*
X151679501Y-84372123D01*
X151679500Y-84372135D01*
X151679500Y-86167870D01*
X146305500Y-86167870D01*
X146305499Y-84372128D01*
X146299091Y-84312517D01*
X146248796Y-84177669D01*
X146248795Y-84177668D01*
X146248793Y-84177664D01*
X146162547Y-84062455D01*
X146162544Y-84062452D01*
X146047335Y-83976206D01*
X146047328Y-83976202D01*
X145912482Y-83925908D01*
X145912483Y-83925908D01*
X145852883Y-83919501D01*
X145852881Y-83919500D01*
X145852873Y-83919500D01*
X145852864Y-83919500D01*
X144057129Y-83919500D01*
X144057123Y-83919501D01*
X143997516Y-83925908D01*
X143862671Y-83976202D01*
X143862664Y-83976206D01*
X143747455Y-84062452D01*
X143747452Y-84062455D01*
X143661206Y-84177664D01*
X143661202Y-84177671D01*
X143610908Y-84312517D01*
X143604501Y-84372116D01*
X143604501Y-84372123D01*
X143604500Y-84372135D01*
X143604500Y-86167870D01*
X138230500Y-86167870D01*
X138230499Y-84372128D01*
X138224091Y-84312517D01*
X138173796Y-84177669D01*
X138173795Y-84177668D01*
X138173793Y-84177664D01*
X138087547Y-84062455D01*
X138087544Y-84062452D01*
X137972335Y-83976206D01*
X137972328Y-83976202D01*
X137837482Y-83925908D01*
X137837483Y-83925908D01*
X137777883Y-83919501D01*
X137777881Y-83919500D01*
X137777873Y-83919500D01*
X137777864Y-83919500D01*
X135982129Y-83919500D01*
X135982123Y-83919501D01*
X135922516Y-83925908D01*
X135787671Y-83976202D01*
X135787664Y-83976206D01*
X135672455Y-84062452D01*
X135672452Y-84062455D01*
X135586206Y-84177664D01*
X135586202Y-84177671D01*
X135535908Y-84312517D01*
X135529501Y-84372116D01*
X135529501Y-84372123D01*
X135529500Y-84372135D01*
X135529500Y-85286147D01*
X135509815Y-85353186D01*
X135457011Y-85398941D01*
X135387853Y-85408885D01*
X135324297Y-85379860D01*
X135317819Y-85373828D01*
X118995161Y-69051170D01*
X128046200Y-69051170D01*
X128046201Y-69051176D01*
X128052608Y-69110783D01*
X128102902Y-69245628D01*
X128102906Y-69245635D01*
X128189152Y-69360844D01*
X128189155Y-69360847D01*
X128304364Y-69447093D01*
X128304371Y-69447097D01*
X128439217Y-69497391D01*
X128439216Y-69497391D01*
X128446144Y-69498135D01*
X128498827Y-69503800D01*
X130601172Y-69503799D01*
X130660783Y-69497391D01*
X130795631Y-69447096D01*
X130910846Y-69360846D01*
X130997096Y-69245631D01*
X131047391Y-69110783D01*
X131053800Y-69051173D01*
X131053799Y-66948828D01*
X131047391Y-66889217D01*
X131042107Y-66875051D01*
X130997097Y-66754371D01*
X130997093Y-66754364D01*
X130910847Y-66639155D01*
X130910844Y-66639152D01*
X130795635Y-66552906D01*
X130795628Y-66552902D01*
X130660782Y-66502608D01*
X130660783Y-66502608D01*
X130601183Y-66496201D01*
X130601181Y-66496200D01*
X130601173Y-66496200D01*
X130601164Y-66496200D01*
X128498829Y-66496200D01*
X128498823Y-66496201D01*
X128439216Y-66502608D01*
X128304371Y-66552902D01*
X128304364Y-66552906D01*
X128189155Y-66639152D01*
X128189152Y-66639155D01*
X128102906Y-66754364D01*
X128102902Y-66754371D01*
X128052608Y-66889217D01*
X128046201Y-66948816D01*
X128046201Y-66948823D01*
X128046200Y-66948835D01*
X128046200Y-69051170D01*
X118995161Y-69051170D01*
X117657560Y-67713569D01*
X117624075Y-67652246D01*
X117621923Y-67638868D01*
X117604274Y-67470944D01*
X117545779Y-67290916D01*
X117451133Y-67126984D01*
X117324471Y-66986312D01*
X117324470Y-66986311D01*
X117171334Y-66875051D01*
X117171329Y-66875048D01*
X116998407Y-66798057D01*
X116998402Y-66798055D01*
X116852600Y-66767065D01*
X116813246Y-66758700D01*
X116623954Y-66758700D01*
X116591497Y-66765598D01*
X116438797Y-66798055D01*
X116438792Y-66798057D01*
X116265870Y-66875048D01*
X116265865Y-66875051D01*
X116112729Y-66986311D01*
X115986066Y-67126985D01*
X115891421Y-67290915D01*
X115891418Y-67290922D01*
X115832927Y-67470940D01*
X115832926Y-67470944D01*
X115813140Y-67659200D01*
X109376260Y-67659200D01*
X109356474Y-67470944D01*
X109297979Y-67290916D01*
X109203333Y-67126984D01*
X109076671Y-66986312D01*
X109076670Y-66986311D01*
X108923534Y-66875051D01*
X108923529Y-66875048D01*
X108750607Y-66798057D01*
X108750602Y-66798055D01*
X108604801Y-66767065D01*
X108565446Y-66758700D01*
X108376154Y-66758700D01*
X108343697Y-66765598D01*
X108190997Y-66798055D01*
X108190992Y-66798057D01*
X108018070Y-66875048D01*
X108018065Y-66875051D01*
X107864929Y-66986311D01*
X107738266Y-67126985D01*
X107643621Y-67290915D01*
X107643618Y-67290922D01*
X107585127Y-67470940D01*
X107585126Y-67470944D01*
X107565340Y-67659200D01*
X107585126Y-67847456D01*
X107585127Y-67847459D01*
X107643618Y-68027477D01*
X107643621Y-68027484D01*
X107738267Y-68191416D01*
X107778388Y-68235974D01*
X107813450Y-68274915D01*
X107843680Y-68337906D01*
X107845300Y-68357887D01*
X107845300Y-105459472D01*
X107825615Y-105526511D01*
X107772811Y-105572266D01*
X107771736Y-105572751D01*
X107601270Y-105648648D01*
X107601265Y-105648651D01*
X107448129Y-105759911D01*
X107321466Y-105900585D01*
X107226821Y-106064515D01*
X107226818Y-106064522D01*
X107168327Y-106244540D01*
X107168326Y-106244544D01*
X107148540Y-106432800D01*
X77000000Y-106432800D01*
X77000000Y-95730005D01*
X87602226Y-95730005D01*
X87621289Y-95960062D01*
X87677960Y-96183854D01*
X87770694Y-96395268D01*
X87823573Y-96476204D01*
X87896960Y-96588531D01*
X88053313Y-96758376D01*
X88053316Y-96758378D01*
X88053319Y-96758381D01*
X88235481Y-96900164D01*
X88235488Y-96900168D01*
X88235490Y-96900170D01*
X88438521Y-97010044D01*
X88656867Y-97085002D01*
X88884573Y-97123000D01*
X88884574Y-97123000D01*
X89115426Y-97123000D01*
X89115427Y-97123000D01*
X89343133Y-97085002D01*
X89561479Y-97010044D01*
X89764510Y-96900170D01*
X89800530Y-96872135D01*
X89825686Y-96852554D01*
X89946687Y-96758376D01*
X90103040Y-96588531D01*
X90229306Y-96395267D01*
X90322039Y-96183856D01*
X90378710Y-95960066D01*
X90397774Y-95730000D01*
X90378710Y-95499934D01*
X90322039Y-95276144D01*
X90229306Y-95064733D01*
X90103040Y-94871469D01*
X89946687Y-94701624D01*
X89946682Y-94701620D01*
X89946680Y-94701618D01*
X89764518Y-94559835D01*
X89764507Y-94559828D01*
X89561485Y-94449959D01*
X89561482Y-94449957D01*
X89561479Y-94449956D01*
X89561476Y-94449955D01*
X89561474Y-94449954D01*
X89343135Y-94374998D01*
X89191329Y-94349666D01*
X89115427Y-94337000D01*
X88884573Y-94337000D01*
X88827646Y-94346499D01*
X88656864Y-94374998D01*
X88438525Y-94449954D01*
X88438514Y-94449959D01*
X88235492Y-94559828D01*
X88235481Y-94559835D01*
X88053319Y-94701618D01*
X88053316Y-94701621D01*
X87896961Y-94871467D01*
X87896958Y-94871471D01*
X87770694Y-95064731D01*
X87677960Y-95276145D01*
X87621289Y-95499937D01*
X87602226Y-95729994D01*
X87602226Y-95730005D01*
X77000000Y-95730005D01*
X77000000Y-66270005D01*
X87602226Y-66270005D01*
X87621289Y-66500062D01*
X87677960Y-66723854D01*
X87770694Y-66935268D01*
X87852565Y-67060580D01*
X87896960Y-67128531D01*
X88053313Y-67298376D01*
X88053316Y-67298378D01*
X88053319Y-67298381D01*
X88235481Y-67440164D01*
X88235488Y-67440168D01*
X88235490Y-67440170D01*
X88438521Y-67550044D01*
X88656867Y-67625002D01*
X88884573Y-67663000D01*
X88884574Y-67663000D01*
X89115426Y-67663000D01*
X89115427Y-67663000D01*
X89343133Y-67625002D01*
X89561479Y-67550044D01*
X89764510Y-67440170D01*
X89794142Y-67417107D01*
X89825686Y-67392554D01*
X89946687Y-67298376D01*
X90103040Y-67128531D01*
X90229306Y-66935267D01*
X90322039Y-66723856D01*
X90378710Y-66500066D01*
X90397774Y-66270000D01*
X90378710Y-66039934D01*
X90342650Y-65897536D01*
X90345274Y-65827716D01*
X90375172Y-65779417D01*
X91042471Y-65112119D01*
X91103795Y-65078634D01*
X91130153Y-65075800D01*
X94942577Y-65075800D01*
X95009616Y-65095485D01*
X95055371Y-65148289D01*
X95065315Y-65217447D01*
X95036290Y-65281003D01*
X95026560Y-65291028D01*
X95026559Y-65291030D01*
X94879930Y-65479419D01*
X94766307Y-65689374D01*
X94766304Y-65689382D01*
X94688793Y-65915162D01*
X94649500Y-66150638D01*
X94649500Y-66389361D01*
X94688793Y-66624837D01*
X94748260Y-66798056D01*
X94766307Y-66850625D01*
X94879929Y-67060579D01*
X95026557Y-67248968D01*
X95181019Y-67391160D01*
X95202196Y-67410655D01*
X95390585Y-67533735D01*
X95402048Y-67541224D01*
X95620667Y-67637119D01*
X95852089Y-67695723D01*
X96030420Y-67710500D01*
X96030422Y-67710500D01*
X96149578Y-67710500D01*
X96149580Y-67710500D01*
X96327911Y-67695723D01*
X96559333Y-67637119D01*
X96777952Y-67541224D01*
X96977806Y-67410653D01*
X97153443Y-67248968D01*
X97300071Y-67060579D01*
X97413693Y-66850625D01*
X97491207Y-66624834D01*
X97530500Y-66389363D01*
X97530500Y-66150637D01*
X97491207Y-65915166D01*
X97461185Y-65827716D01*
X97413695Y-65689382D01*
X97413693Y-65689375D01*
X97300071Y-65479421D01*
X97153443Y-65291032D01*
X97153439Y-65291028D01*
X97149972Y-65287262D01*
X97150747Y-65286548D01*
X97117450Y-65231144D01*
X97119549Y-65161306D01*
X97159073Y-65103689D01*
X97223472Y-65076587D01*
X97237423Y-65075800D01*
X148289848Y-65075800D01*
X148356887Y-65095485D01*
X148377529Y-65112119D01*
X150682516Y-67417107D01*
X150716001Y-67478430D01*
X150715409Y-67533735D01*
X150660122Y-67764022D01*
X150641550Y-68000000D01*
X150660122Y-68235977D01*
X150715378Y-68466136D01*
X150805960Y-68684822D01*
X150929634Y-68886640D01*
X150929635Y-68886641D01*
X150929636Y-68886643D01*
X150929638Y-68886645D01*
X151083365Y-69066635D01*
X151263355Y-69220362D01*
X151263357Y-69220363D01*
X151263358Y-69220364D01*
X151263359Y-69220365D01*
X151465177Y-69344039D01*
X151683862Y-69434620D01*
X151683863Y-69434621D01*
X151914026Y-69489878D01*
X152150000Y-69508450D01*
X152385974Y-69489878D01*
X152616137Y-69434621D01*
X152834822Y-69344039D01*
X153036645Y-69220362D01*
X153216635Y-69066635D01*
X153370362Y-68886645D01*
X153494039Y-68684822D01*
X153584621Y-68466137D01*
X153639878Y-68235974D01*
X153658450Y-68000000D01*
X153639878Y-67764026D01*
X153584621Y-67533863D01*
X153494039Y-67315178D01*
X153494039Y-67315177D01*
X153370365Y-67113359D01*
X153370364Y-67113358D01*
X153370363Y-67113357D01*
X153370362Y-67113355D01*
X153216635Y-66933365D01*
X153036645Y-66779638D01*
X153036643Y-66779636D01*
X153036641Y-66779635D01*
X153036640Y-66779634D01*
X152834822Y-66655960D01*
X152616136Y-66565378D01*
X152385977Y-66510122D01*
X152150000Y-66491550D01*
X151914022Y-66510122D01*
X151683735Y-66565409D01*
X151613952Y-66561918D01*
X151567107Y-66532516D01*
X149101103Y-64066512D01*
X149091280Y-64054250D01*
X149091059Y-64054434D01*
X149086086Y-64048423D01*
X149067459Y-64030931D01*
X149035664Y-64001073D01*
X149025219Y-63990628D01*
X149014775Y-63980183D01*
X149009286Y-63975925D01*
X149004861Y-63972147D01*
X148970882Y-63940238D01*
X148970880Y-63940236D01*
X148970877Y-63940235D01*
X148953329Y-63930588D01*
X148937063Y-63919904D01*
X148921233Y-63907625D01*
X148878468Y-63889118D01*
X148873222Y-63886548D01*
X148832393Y-63864103D01*
X148832392Y-63864102D01*
X148812993Y-63859122D01*
X148794581Y-63852818D01*
X148776198Y-63844862D01*
X148776192Y-63844860D01*
X148730174Y-63837572D01*
X148724452Y-63836387D01*
X148679321Y-63824800D01*
X148679319Y-63824800D01*
X148659284Y-63824800D01*
X148639886Y-63823273D01*
X148632462Y-63822097D01*
X148620105Y-63820140D01*
X148620104Y-63820140D01*
X148573716Y-63824525D01*
X148567878Y-63824800D01*
X90902437Y-63824800D01*
X90886820Y-63823076D01*
X90886793Y-63823362D01*
X90879031Y-63822627D01*
X90809903Y-63824800D01*
X90780350Y-63824800D01*
X90779629Y-63824890D01*
X90773457Y-63825669D01*
X90767645Y-63826126D01*
X90721072Y-63827590D01*
X90721069Y-63827591D01*
X90701826Y-63833181D01*
X90682783Y-63837125D01*
X90662904Y-63839636D01*
X90662903Y-63839637D01*
X90619578Y-63856790D01*
X90614052Y-63858682D01*
X90569308Y-63871683D01*
X90569304Y-63871685D01*
X90552065Y-63881880D01*
X90534598Y-63890437D01*
X90515969Y-63897812D01*
X90515967Y-63897813D01*
X90478264Y-63925206D01*
X90473382Y-63928412D01*
X90433280Y-63952128D01*
X90419108Y-63966300D01*
X90404323Y-63978928D01*
X90388112Y-63990707D01*
X90358409Y-64026610D01*
X90354477Y-64030931D01*
X89492616Y-64892791D01*
X89431293Y-64926276D01*
X89364676Y-64922393D01*
X89343132Y-64914997D01*
X89153423Y-64883340D01*
X89115427Y-64877000D01*
X88884573Y-64877000D01*
X88827646Y-64886499D01*
X88656864Y-64914998D01*
X88438525Y-64989954D01*
X88438514Y-64989959D01*
X88235492Y-65099828D01*
X88235481Y-65099835D01*
X88053319Y-65241618D01*
X88053316Y-65241621D01*
X87896961Y-65411467D01*
X87896958Y-65411471D01*
X87770694Y-65604731D01*
X87677960Y-65816145D01*
X87621289Y-66039937D01*
X87602226Y-66269994D01*
X87602226Y-66270005D01*
X77000000Y-66270005D01*
X77000000Y-63274500D01*
X77019685Y-63207461D01*
X77072489Y-63161706D01*
X77124000Y-63150500D01*
X77218461Y-63150500D01*
X77222693Y-63150645D01*
X77240576Y-63151867D01*
X77250000Y-63152512D01*
X77250003Y-63152511D01*
X77250007Y-63152512D01*
X77277319Y-63150645D01*
X77281552Y-63150500D01*
X77397098Y-63150500D01*
X77511623Y-63134758D01*
X77515757Y-63134333D01*
X77543100Y-63132463D01*
X77569915Y-63126890D01*
X77574006Y-63126184D01*
X77688555Y-63110440D01*
X77799827Y-63079263D01*
X77803933Y-63078262D01*
X77830737Y-63072692D01*
X77830738Y-63072691D01*
X77830741Y-63072691D01*
X77856540Y-63063521D01*
X77860559Y-63062247D01*
X77901072Y-63050895D01*
X77971841Y-63031067D01*
X78077883Y-62985006D01*
X78081750Y-62983481D01*
X78107563Y-62974308D01*
X78131870Y-62961712D01*
X78135637Y-62959920D01*
X78241682Y-62913859D01*
X78340454Y-62853793D01*
X78344082Y-62851753D01*
X78368411Y-62839148D01*
X78390795Y-62823347D01*
X78394267Y-62821069D01*
X78493049Y-62760999D01*
X78582726Y-62688040D01*
X78586048Y-62685523D01*
X78592142Y-62681221D01*
X78608424Y-62669728D01*
X78628453Y-62651022D01*
X78631585Y-62648290D01*
X78721260Y-62575335D01*
X78800173Y-62490839D01*
X78803107Y-62487906D01*
X78823133Y-62469204D01*
X78840428Y-62447945D01*
X78843160Y-62444811D01*
X78922065Y-62360326D01*
X78988719Y-62265897D01*
X78991251Y-62262559D01*
X79008534Y-62241315D01*
X79008534Y-62241313D01*
X79008537Y-62241311D01*
X79022768Y-62217908D01*
X79025061Y-62214413D01*
X79091722Y-62119976D01*
X79144900Y-62017347D01*
X79146943Y-62013712D01*
X79161184Y-61990296D01*
X79172104Y-61965155D01*
X79173889Y-61961400D01*
X79227072Y-61858764D01*
X79265787Y-61749829D01*
X79267323Y-61745937D01*
X79278228Y-61720833D01*
X79281610Y-61708760D01*
X79285617Y-61694458D01*
X79286886Y-61690460D01*
X79325592Y-61581554D01*
X79349111Y-61468370D01*
X79350096Y-61464331D01*
X79357490Y-61437942D01*
X79357490Y-61437940D01*
X79357492Y-61437934D01*
X79361220Y-61410805D01*
X79361932Y-61406675D01*
X79385448Y-61293511D01*
X79393336Y-61178188D01*
X79393761Y-61174046D01*
X79397494Y-61146893D01*
X79397921Y-61121884D01*
X79418747Y-61055190D01*
X79472324Y-61010343D01*
X79521903Y-61000000D01*
X183738927Y-61000000D01*
X183805966Y-61019685D01*
G37*
%TD.AperFunction*%
%TD*%
M02*
