%TF.GenerationSoftware,KiCad,Pcbnew,7.0.7*%
%TF.CreationDate,2023-12-25T13:55:38-06:00*%
%TF.ProjectId,LED Tester,4c454420-5465-4737-9465-722e6b696361,rev?*%
%TF.SameCoordinates,Original*%
%TF.FileFunction,Copper,L1,Top*%
%TF.FilePolarity,Positive*%
%FSLAX46Y46*%
G04 Gerber Fmt 4.6, Leading zero omitted, Abs format (unit mm)*
G04 Created by KiCad (PCBNEW 7.0.7) date 2023-12-25 13:55:38*
%MOMM*%
%LPD*%
G01*
G04 APERTURE LIST*
G04 Aperture macros list*
%AMRoundRect*
0 Rectangle with rounded corners*
0 $1 Rounding radius*
0 $2 $3 $4 $5 $6 $7 $8 $9 X,Y pos of 4 corners*
0 Add a 4 corners polygon primitive as box body*
4,1,4,$2,$3,$4,$5,$6,$7,$8,$9,$2,$3,0*
0 Add four circle primitives for the rounded corners*
1,1,$1+$1,$2,$3*
1,1,$1+$1,$4,$5*
1,1,$1+$1,$6,$7*
1,1,$1+$1,$8,$9*
0 Add four rect primitives between the rounded corners*
20,1,$1+$1,$2,$3,$4,$5,0*
20,1,$1+$1,$4,$5,$6,$7,0*
20,1,$1+$1,$6,$7,$8,$9,0*
20,1,$1+$1,$8,$9,$2,$3,0*%
G04 Aperture macros list end*
%TA.AperFunction,ComponentPad*%
%ADD10R,1.700000X1.700000*%
%TD*%
%TA.AperFunction,ComponentPad*%
%ADD11O,1.700000X1.700000*%
%TD*%
%TA.AperFunction,SMDPad,CuDef*%
%ADD12RoundRect,0.250000X-0.312500X-0.625000X0.312500X-0.625000X0.312500X0.625000X-0.312500X0.625000X0*%
%TD*%
%TA.AperFunction,ComponentPad*%
%ADD13R,2.006600X2.006600*%
%TD*%
%TA.AperFunction,ComponentPad*%
%ADD14C,2.006600*%
%TD*%
%TA.AperFunction,ComponentPad*%
%ADD15C,1.540000*%
%TD*%
%TA.AperFunction,ComponentPad*%
%ADD16C,1.785000*%
%TD*%
%TA.AperFunction,ViaPad*%
%ADD17C,0.800000*%
%TD*%
%TA.AperFunction,Conductor*%
%ADD18C,0.250000*%
%TD*%
G04 APERTURE END LIST*
D10*
%TO.P,J4,1,Pin_1*%
%TO.N,Net-(J4-Pin_1)*%
X153030000Y-85270000D03*
D11*
%TO.P,J4,2,Pin_2*%
%TO.N,GND*%
X153030000Y-87810000D03*
%TD*%
D12*
%TO.P,R30,1*%
%TO.N,Net-(R29-Pad2)*%
X119685000Y-98238300D03*
%TO.P,R30,2*%
%TO.N,Net-(J11-Pin_1)*%
X122610000Y-98238300D03*
%TD*%
%TO.P,R14,1*%
%TO.N,Net-(R13-Pad2)*%
X108465000Y-98108600D03*
%TO.P,R14,2*%
%TO.N,Net-(J4-Pin_1)*%
X111390000Y-98108600D03*
%TD*%
D10*
%TO.P,J10,1,Pin_1*%
%TO.N,Net-(J10-Pin_1)*%
X137030000Y-109730000D03*
D11*
%TO.P,J10,2,Pin_2*%
%TO.N,GND*%
X137030000Y-112270000D03*
%TD*%
D12*
%TO.P,R8,1*%
%TO.N,Net-(R7-Pad2)*%
X102855000Y-111000000D03*
%TO.P,R8,2*%
%TO.N,Net-(R8-Pad2)*%
X105780000Y-111000000D03*
%TD*%
%TO.P,R20,1*%
%TO.N,Net-(R19-Pad2)*%
X114075000Y-85217100D03*
%TO.P,R20,2*%
%TO.N,Net-(R20-Pad2)*%
X117000000Y-85217100D03*
%TD*%
%TO.P,R16,1*%
%TO.N,VCC*%
X108465000Y-111000000D03*
%TO.P,R16,2*%
%TO.N,Net-(J6-Pin_1)*%
X111390000Y-111000000D03*
%TD*%
%TO.P,R25,1*%
%TO.N,VCC*%
X119685000Y-65880000D03*
%TO.P,R25,2*%
%TO.N,Net-(J8-Pin_1)*%
X122610000Y-65880000D03*
%TD*%
%TO.P,R6,1*%
%TO.N,Net-(R5-Pad2)*%
X102855000Y-98108600D03*
%TO.P,R6,2*%
%TO.N,Net-(R6-Pad2)*%
X105780000Y-98108600D03*
%TD*%
D10*
%TO.P,J2,1,Pin_1*%
%TO.N,Net-(J2-Pin_1)*%
X136880000Y-85270000D03*
D11*
%TO.P,J2,2,Pin_2*%
%TO.N,GND*%
X136880000Y-87810000D03*
%TD*%
D12*
%TO.P,R22,1*%
%TO.N,VCC*%
X114075000Y-98108600D03*
%TO.P,R22,2*%
%TO.N,Net-(J8-Pin_1)*%
X117000000Y-98108600D03*
%TD*%
%TO.P,R24,1*%
%TO.N,VCC*%
X114075000Y-111000000D03*
%TO.P,R24,2*%
%TO.N,Net-(J8-Pin_1)*%
X117000000Y-111000000D03*
%TD*%
D10*
%TO.P,J9,1,Pin_1*%
%TO.N,Net-(J9-Pin_1)*%
X129030000Y-109730000D03*
D11*
%TO.P,J9,2,Pin_2*%
%TO.N,GND*%
X129030000Y-112270000D03*
%TD*%
D12*
%TO.P,R4,1*%
%TO.N,Net-(R3-Pad2)*%
X102855000Y-85217100D03*
%TO.P,R4,2*%
%TO.N,Net-(J2-Pin_1)*%
X105780000Y-85217100D03*
%TD*%
%TO.P,R21,1*%
%TO.N,Net-(R20-Pad2)*%
X114075000Y-91662900D03*
%TO.P,R21,2*%
%TO.N,Net-(J7-Pin_1)*%
X117000000Y-91662900D03*
%TD*%
%TO.P,R18,1*%
%TO.N,VCC*%
X114075000Y-72325700D03*
%TO.P,R18,2*%
%TO.N,Net-(R18-Pad2)*%
X117000000Y-72325700D03*
%TD*%
%TO.P,R19,1*%
%TO.N,Net-(R18-Pad2)*%
X114075000Y-78771400D03*
%TO.P,R19,2*%
%TO.N,Net-(R19-Pad2)*%
X117000000Y-78771400D03*
%TD*%
%TO.P,R3,1*%
%TO.N,Net-(R2-Pad2)*%
X102855000Y-78771400D03*
%TO.P,R3,2*%
%TO.N,Net-(R3-Pad2)*%
X105780000Y-78771400D03*
%TD*%
%TO.P,R29,1*%
%TO.N,VCC*%
X119685000Y-91766700D03*
%TO.P,R29,2*%
%TO.N,Net-(R29-Pad2)*%
X122610000Y-91766700D03*
%TD*%
%TO.P,R17,1*%
%TO.N,VCC*%
X114075000Y-65880000D03*
%TO.P,R17,2*%
%TO.N,Net-(J6-Pin_1)*%
X117000000Y-65880000D03*
%TD*%
D10*
%TO.P,J5,1,Pin_1*%
%TO.N,Net-(J5-Pin_1)*%
X129030000Y-97500000D03*
D11*
%TO.P,J5,2,Pin_2*%
%TO.N,GND*%
X129030000Y-100040000D03*
%TD*%
D12*
%TO.P,R12,1*%
%TO.N,Net-(R11-Pad2)*%
X108465000Y-85217100D03*
%TO.P,R12,2*%
%TO.N,Net-(R12-Pad2)*%
X111390000Y-85217100D03*
%TD*%
D10*
%TO.P,J6,1,Pin_1*%
%TO.N,Net-(J6-Pin_1)*%
X137030000Y-97500000D03*
D11*
%TO.P,J6,2,Pin_2*%
%TO.N,GND*%
X137030000Y-100040000D03*
%TD*%
D12*
%TO.P,R11,1*%
%TO.N,VCC*%
X108465000Y-78771400D03*
%TO.P,R11,2*%
%TO.N,Net-(R11-Pad2)*%
X111390000Y-78771400D03*
%TD*%
%TO.P,R7,1*%
%TO.N,Net-(R6-Pad2)*%
X102855000Y-104554300D03*
%TO.P,R7,2*%
%TO.N,Net-(R7-Pad2)*%
X105780000Y-104554300D03*
%TD*%
D10*
%TO.P,J3,1,Pin_1*%
%TO.N,Net-(J3-Pin_1)*%
X144955000Y-85270000D03*
D11*
%TO.P,J3,2,Pin_2*%
%TO.N,GND*%
X144955000Y-87810000D03*
%TD*%
D12*
%TO.P,R27,1*%
%TO.N,VCC*%
X119685000Y-78823300D03*
%TO.P,R27,2*%
%TO.N,Net-(J10-Pin_1)*%
X122610000Y-78823300D03*
%TD*%
%TO.P,R23,1*%
%TO.N,VCC*%
X114075000Y-104554300D03*
%TO.P,R23,2*%
%TO.N,Net-(J8-Pin_1)*%
X117000000Y-104554300D03*
%TD*%
%TO.P,R31,1*%
%TO.N,VCC*%
X119685000Y-104710000D03*
%TO.P,R31,2*%
%TO.N,Net-(J12-Pin_1)*%
X122610000Y-104710000D03*
%TD*%
%TO.P,R2,1*%
%TO.N,VCC*%
X102855000Y-72325700D03*
%TO.P,R2,2*%
%TO.N,Net-(R2-Pad2)*%
X105780000Y-72325700D03*
%TD*%
%TO.P,R26,1*%
%TO.N,VCC*%
X119685000Y-72351700D03*
%TO.P,R26,2*%
%TO.N,Net-(J9-Pin_1)*%
X122610000Y-72351700D03*
%TD*%
%TO.P,R10,1*%
%TO.N,Net-(R10-Pad1)*%
X108465000Y-72325700D03*
%TO.P,R10,2*%
%TO.N,Net-(J3-Pin_1)*%
X111390000Y-72325700D03*
%TD*%
D13*
%TO.P,F1,1,1*%
%TO.N,VCC*%
X129550000Y-68000000D03*
D14*
%TO.P,F1,2,2*%
%TO.N,Net-(BT1-PadP)*%
X152150000Y-68000000D03*
%TD*%
D15*
%TO.P,S1,1,COM_1*%
%TO.N,GND*%
X92500000Y-112250000D03*
%TO.P,S1,2,COM_2*%
X86000000Y-112250000D03*
%TO.P,S1,3,NO_1*%
%TO.N,Net-(S1-NO_1)*%
X92500000Y-107750000D03*
%TO.P,S1,4,NO_2*%
X86000000Y-107750000D03*
%TD*%
D12*
%TO.P,R5,1*%
%TO.N,VCC*%
X102855000Y-91662900D03*
%TO.P,R5,2*%
%TO.N,Net-(R5-Pad2)*%
X105780000Y-91662900D03*
%TD*%
D10*
%TO.P,J8,1,Pin_1*%
%TO.N,Net-(J8-Pin_1)*%
X153030000Y-97500000D03*
D11*
%TO.P,J8,2,Pin_2*%
%TO.N,GND*%
X153030000Y-100040000D03*
%TD*%
D10*
%TO.P,J1,1,Pin_1*%
%TO.N,Net-(J1-Pin_1)*%
X128805000Y-85270000D03*
D11*
%TO.P,J1,2,Pin_2*%
%TO.N,GND*%
X128805000Y-87810000D03*
%TD*%
D12*
%TO.P,R15,1*%
%TO.N,VCC*%
X108465000Y-104554300D03*
%TO.P,R15,2*%
%TO.N,Net-(J5-Pin_1)*%
X111390000Y-104554300D03*
%TD*%
D10*
%TO.P,J12,1,Pin_1*%
%TO.N,Net-(J12-Pin_1)*%
X153030000Y-109730000D03*
D11*
%TO.P,J12,2,Pin_2*%
%TO.N,GND*%
X153030000Y-112270000D03*
%TD*%
D10*
%TO.P,J7,1,Pin_1*%
%TO.N,Net-(J7-Pin_1)*%
X145030000Y-97770000D03*
D11*
%TO.P,J7,2,Pin_2*%
%TO.N,GND*%
X145030000Y-100310000D03*
%TD*%
D12*
%TO.P,R9,1*%
%TO.N,Net-(R8-Pad2)*%
X108465000Y-65880000D03*
%TO.P,R9,2*%
%TO.N,Net-(R10-Pad1)*%
X111390000Y-65880000D03*
%TD*%
%TO.P,R1,1*%
%TO.N,VCC*%
X102855000Y-65880000D03*
%TO.P,R1,2*%
%TO.N,Net-(J1-Pin_1)*%
X105780000Y-65880000D03*
%TD*%
%TO.P,R28,1*%
%TO.N,VCC*%
X119685000Y-85295000D03*
%TO.P,R28,2*%
%TO.N,Net-(J10-Pin_1)*%
X122610000Y-85295000D03*
%TD*%
%TO.P,R13,1*%
%TO.N,Net-(R12-Pad2)*%
X108465000Y-91662900D03*
%TO.P,R13,2*%
%TO.N,Net-(R13-Pad2)*%
X111390000Y-91662900D03*
%TD*%
D10*
%TO.P,J11,1,Pin_1*%
%TO.N,Net-(J11-Pin_1)*%
X145030000Y-110270000D03*
D11*
%TO.P,J11,2,Pin_2*%
%TO.N,GND*%
X145030000Y-112810000D03*
%TD*%
D16*
%TO.P,BT1,N*%
%TO.N,Net-(S1-NO_1)*%
X89000000Y-95730000D03*
%TO.P,BT1,P*%
%TO.N,Net-(BT1-PadP)*%
X89000000Y-66270000D03*
%TD*%
D17*
%TO.N,Net-(J6-Pin_1)*%
X116718600Y-67659200D03*
%TO.N,Net-(J9-Pin_1)*%
X123161000Y-76797900D03*
%TO.N,Net-(J10-Pin_1)*%
X125639400Y-86055100D03*
%TO.N,Net-(R8-Pad2)*%
X108470800Y-67659200D03*
X108054000Y-106432800D03*
%TD*%
D18*
%TO.N,Net-(S1-NO_1)*%
X89000000Y-107750000D02*
X92500000Y-107750000D01*
X89000000Y-95730000D02*
X89000000Y-107750000D01*
X86000000Y-107750000D02*
X89000000Y-107750000D01*
%TO.N,VCC*%
X121805000Y-68000000D02*
X119685000Y-65880000D01*
X110157200Y-106246500D02*
X110157200Y-109307800D01*
X119685000Y-91766700D02*
X114075000Y-97376700D01*
X114075000Y-104554300D02*
X112382800Y-106246500D01*
X106333300Y-71104000D02*
X106703900Y-71474600D01*
X104839500Y-82396900D02*
X104839500Y-90088300D01*
X108465000Y-99339700D02*
X112843900Y-99339700D01*
X119685000Y-78823300D02*
X119685000Y-85295000D01*
X105990900Y-90088300D02*
X107142200Y-91239600D01*
X115283600Y-103345700D02*
X114075000Y-104554300D01*
X112867300Y-64672300D02*
X104062700Y-64672300D01*
X104429600Y-90088300D02*
X102855000Y-91662900D01*
X112843900Y-99339700D02*
X114075000Y-98108600D01*
X119685000Y-72351700D02*
X119685000Y-78823300D01*
X119685000Y-65880000D02*
X118465100Y-64660100D01*
X112382800Y-109307800D02*
X114075000Y-111000000D01*
X108465000Y-104554300D02*
X110157200Y-106246500D01*
X108465000Y-78771400D02*
X104839500Y-82396900D01*
X108465000Y-74000100D02*
X112400600Y-74000100D01*
X104062700Y-64672300D02*
X102855000Y-65880000D01*
X118320700Y-103345700D02*
X115283600Y-103345700D01*
X118429600Y-71096300D02*
X119685000Y-72351700D01*
X114075000Y-97376700D02*
X114075000Y-98108600D01*
X106703900Y-73020900D02*
X107683100Y-74000100D01*
X107142200Y-91239600D02*
X107142200Y-98544100D01*
X102855000Y-65880000D02*
X102855000Y-71104000D01*
X108465000Y-111000000D02*
X110157200Y-109307800D01*
X115304400Y-71096300D02*
X118429600Y-71096300D01*
X114075000Y-72325700D02*
X115304400Y-71096300D01*
X106703900Y-71474600D02*
X106703900Y-73020900D01*
X119685000Y-104710000D02*
X118320700Y-103345700D01*
X104839500Y-90088300D02*
X105990900Y-90088300D01*
X112382800Y-106246500D02*
X110157200Y-106246500D01*
X107142200Y-98544100D02*
X107937800Y-99339700D01*
X108465000Y-104554300D02*
X108465000Y-99339700D01*
X114075000Y-65880000D02*
X112867300Y-64672300D01*
X118465100Y-64660100D02*
X115294900Y-64660100D01*
X108465000Y-74000100D02*
X108465000Y-78771400D01*
X115294900Y-64660100D02*
X114075000Y-65880000D01*
X112400600Y-74000100D02*
X114075000Y-72325700D01*
X102855000Y-71104000D02*
X102855000Y-72325700D01*
X107937800Y-99339700D02*
X108465000Y-99339700D01*
X107683100Y-74000100D02*
X108465000Y-74000100D01*
X110157200Y-109307800D02*
X112382800Y-109307800D01*
X104839500Y-90088300D02*
X104429600Y-90088300D01*
X102855000Y-71104000D02*
X106333300Y-71104000D01*
X129550000Y-68000000D02*
X121805000Y-68000000D01*
%TO.N,Net-(J1-Pin_1)*%
X123082000Y-77533700D02*
X122860000Y-77533700D01*
X128805000Y-85270000D02*
X128805000Y-83256700D01*
X114028100Y-70618000D02*
X113150800Y-71495300D01*
X122860000Y-77533700D02*
X121126500Y-75800200D01*
X119717100Y-70618000D02*
X114028100Y-70618000D01*
X107189300Y-72826800D02*
X107189300Y-67289300D01*
X107895400Y-73532900D02*
X107189300Y-72826800D01*
X121126500Y-72027400D02*
X119717100Y-70618000D01*
X128805000Y-83256700D02*
X123082000Y-77533700D01*
X121126500Y-75800200D02*
X121126500Y-72027400D01*
X107189300Y-67289300D02*
X105780000Y-65880000D01*
X113150800Y-71495300D02*
X113150800Y-72339000D01*
X113150800Y-72339000D02*
X111956900Y-73532900D01*
X111956900Y-73532900D02*
X107895400Y-73532900D01*
%TO.N,Net-(J2-Pin_1)*%
X134526200Y-86446900D02*
X126553600Y-86446900D01*
X112019700Y-83981800D02*
X110857500Y-83981800D01*
X117553000Y-84007200D02*
X116385600Y-84007200D01*
X116385600Y-84007200D02*
X115537500Y-84855300D01*
X110345800Y-85129900D02*
X109055700Y-86420000D01*
X135703100Y-85270000D02*
X134526200Y-86446900D01*
X112732500Y-84694600D02*
X112019700Y-83981800D01*
X115537500Y-85533000D02*
X114650500Y-86420000D01*
X110857500Y-83981800D02*
X110345800Y-84493500D01*
X119360100Y-86826300D02*
X118303600Y-85769800D01*
X114650500Y-86420000D02*
X113488200Y-86420000D01*
X109055700Y-86420000D02*
X106982900Y-86420000D01*
X112732500Y-85664300D02*
X112732500Y-84694600D01*
X113488200Y-86420000D02*
X112732500Y-85664300D01*
X110345800Y-84493500D02*
X110345800Y-85129900D01*
X106982900Y-86420000D02*
X105780000Y-85217100D01*
X136880000Y-85270000D02*
X135703100Y-85270000D01*
X118303600Y-85769800D02*
X118303600Y-84757800D01*
X126174200Y-86826300D02*
X119360100Y-86826300D01*
X115537500Y-84855300D02*
X115537500Y-85533000D01*
X118303600Y-84757800D02*
X117553000Y-84007200D01*
X126553600Y-86446900D02*
X126174200Y-86826300D01*
%TO.N,Net-(J3-Pin_1)*%
X128648300Y-70140200D02*
X113575500Y-70140200D01*
X113575500Y-70140200D02*
X111390000Y-72325700D01*
X143778100Y-85270000D02*
X128648300Y-70140200D01*
X144955000Y-85270000D02*
X143778100Y-85270000D01*
%TO.N,Net-(J4-Pin_1)*%
X115683400Y-91207700D02*
X115683400Y-93815200D01*
X151853100Y-85270000D02*
X147435900Y-89687200D01*
X115683400Y-93815200D02*
X111390000Y-98108600D01*
X153030000Y-85270000D02*
X151853100Y-85270000D01*
X147435900Y-89687200D02*
X117203900Y-89687200D01*
X117203900Y-89687200D02*
X115683400Y-91207700D01*
%TO.N,Net-(J5-Pin_1)*%
X115465900Y-100478400D02*
X123764800Y-100478400D01*
X123764800Y-100478400D02*
X126743200Y-97500000D01*
X111390000Y-104554300D02*
X115465900Y-100478400D01*
X126743200Y-97500000D02*
X129030000Y-97500000D01*
%TO.N,Net-(J6-Pin_1)*%
X121479200Y-104071100D02*
X121479200Y-108335900D01*
X135853100Y-97500000D02*
X134676200Y-98676900D01*
X126873400Y-98676900D02*
X121479200Y-104071100D01*
X116718600Y-66161400D02*
X116718600Y-67659200D01*
X134676200Y-98676900D02*
X126873400Y-98676900D01*
X121479200Y-108335900D02*
X117604600Y-112210500D01*
X117000000Y-65880000D02*
X116718600Y-66161400D01*
X117604600Y-112210500D02*
X112600500Y-112210500D01*
X112600500Y-112210500D02*
X111390000Y-111000000D01*
X137030000Y-97500000D02*
X135853100Y-97500000D01*
%TO.N,Net-(J7-Pin_1)*%
X145030000Y-97770000D02*
X143853100Y-97770000D01*
X136642900Y-90559800D02*
X143853100Y-97770000D01*
X117000000Y-91662900D02*
X118103100Y-90559800D01*
X118103100Y-90559800D02*
X136642900Y-90559800D01*
%TO.N,Net-(J8-Pin_1)*%
X114035500Y-102839200D02*
X112314200Y-104560500D01*
X139847700Y-95853800D02*
X123204700Y-95853800D01*
X111933000Y-105765900D02*
X110846300Y-105765900D01*
X150401900Y-98951200D02*
X142945100Y-98951200D01*
X123204700Y-95853800D02*
X121565800Y-97492700D01*
X154206900Y-95146200D02*
X153030000Y-96323100D01*
X110497400Y-103676700D02*
X116065500Y-98108600D01*
X142945100Y-98951200D02*
X139847700Y-95853800D01*
X153030000Y-97500000D02*
X151853100Y-97500000D01*
X112314200Y-105384700D02*
X111933000Y-105765900D01*
X121565800Y-97492700D02*
X121565800Y-98112100D01*
X120581100Y-103837800D02*
X119582500Y-102839200D01*
X151853100Y-97500000D02*
X150401900Y-98951200D01*
X153030000Y-97500000D02*
X153030000Y-96323100D01*
X110497400Y-105417000D02*
X110497400Y-103676700D01*
X154206900Y-84248500D02*
X154206900Y-95146200D01*
X117000000Y-104554300D02*
X117000000Y-105956800D01*
X117000000Y-105956800D02*
X120228000Y-105956800D01*
X121565800Y-98112100D02*
X120233300Y-99444600D01*
X116065500Y-98108600D02*
X117000000Y-98108600D01*
X120228000Y-105956800D02*
X120581100Y-105603700D01*
X120233300Y-99444600D02*
X118336000Y-99444600D01*
X135838400Y-65880000D02*
X154206900Y-84248500D01*
X112314200Y-104560500D02*
X112314200Y-105384700D01*
X117000000Y-105956800D02*
X117000000Y-111000000D01*
X119582500Y-102839200D02*
X114035500Y-102839200D01*
X110846300Y-105765900D02*
X110497400Y-105417000D01*
X120581100Y-105603700D02*
X120581100Y-103837800D01*
X118336000Y-99444600D02*
X117000000Y-98108600D01*
X122610000Y-65880000D02*
X135838400Y-65880000D01*
%TO.N,Net-(J9-Pin_1)*%
X122610000Y-72351700D02*
X123161000Y-72902700D01*
X123161000Y-72902700D02*
X123161000Y-76797900D01*
%TO.N,Net-(J10-Pin_1)*%
X124879300Y-85295000D02*
X125639400Y-86055100D01*
X122610000Y-85295000D02*
X124879300Y-85295000D01*
X122610000Y-85295000D02*
X122610000Y-78823300D01*
%TO.N,Net-(J11-Pin_1)*%
X154206900Y-110759600D02*
X154026600Y-110939900D01*
X122610000Y-98238300D02*
X124542600Y-96305700D01*
X152044500Y-106580700D02*
X154206900Y-108743100D01*
X139289000Y-96305700D02*
X149564000Y-106580700D01*
X145030000Y-110270000D02*
X146206900Y-110270000D01*
X154206900Y-108743100D02*
X154206900Y-110759600D01*
X124542600Y-96305700D02*
X139289000Y-96305700D01*
X146876800Y-110939900D02*
X146206900Y-110270000D01*
X149564000Y-106580700D02*
X152044500Y-106580700D01*
X154026600Y-110939900D02*
X146876800Y-110939900D01*
%TO.N,Net-(J12-Pin_1)*%
X122610000Y-104710000D02*
X146833100Y-104710000D01*
X146833100Y-104710000D02*
X151853100Y-109730000D01*
X153030000Y-109730000D02*
X151853100Y-109730000D01*
%TO.N,Net-(R2-Pad2)*%
X105780000Y-72325700D02*
X105780000Y-75846400D01*
X105780000Y-75846400D02*
X102855000Y-78771400D01*
%TO.N,Net-(R3-Pad2)*%
X102855000Y-81696400D02*
X102855000Y-85217100D01*
X105780000Y-78771400D02*
X102855000Y-81696400D01*
%TO.N,Net-(R5-Pad2)*%
X105780000Y-95183600D02*
X102855000Y-98108600D01*
X105780000Y-91662900D02*
X105780000Y-95183600D01*
%TO.N,Net-(R6-Pad2)*%
X102855000Y-104554300D02*
X102855000Y-101033600D01*
X102855000Y-101033600D02*
X105780000Y-98108600D01*
%TO.N,Net-(R7-Pad2)*%
X105780000Y-108075000D02*
X102855000Y-111000000D01*
X105780000Y-104554300D02*
X105780000Y-108075000D01*
%TO.N,Net-(R8-Pad2)*%
X108470800Y-65885800D02*
X108470800Y-67659200D01*
X105780000Y-111000000D02*
X108054000Y-108726000D01*
X108465000Y-65880000D02*
X108470800Y-65885800D01*
X108054000Y-108726000D02*
X108054000Y-106432800D01*
%TO.N,Net-(R10-Pad1)*%
X111390000Y-69400700D02*
X108465000Y-72325700D01*
X111390000Y-65880000D02*
X111390000Y-69400700D01*
%TO.N,Net-(R11-Pad2)*%
X111390000Y-78771400D02*
X111390000Y-82292100D01*
X111390000Y-82292100D02*
X108465000Y-85217100D01*
%TO.N,Net-(R12-Pad2)*%
X111390000Y-88737900D02*
X108465000Y-91662900D01*
X111390000Y-85217100D02*
X111390000Y-88737900D01*
%TO.N,Net-(R13-Pad2)*%
X111390000Y-95183600D02*
X108465000Y-98108600D01*
X111390000Y-91662900D02*
X111390000Y-95183600D01*
%TO.N,Net-(R18-Pad2)*%
X114075000Y-78771400D02*
X117000000Y-75846400D01*
X117000000Y-75846400D02*
X117000000Y-72325700D01*
%TO.N,Net-(R19-Pad2)*%
X114075000Y-81696400D02*
X117000000Y-78771400D01*
X114075000Y-85217100D02*
X114075000Y-81696400D01*
%TO.N,Net-(R20-Pad2)*%
X114075000Y-91662900D02*
X114075000Y-88142100D01*
X114075000Y-88142100D02*
X117000000Y-85217100D01*
%TO.N,Net-(R29-Pad2)*%
X119685000Y-94691700D02*
X119685000Y-98238300D01*
X122610000Y-91766700D02*
X119685000Y-94691700D01*
%TD*%
M02*
