M48
; DRILL file {KiCad 7.0.7} date Mon Dec 25 13:55:30 2023
; FORMAT={-:-/ absolute / inch / decimal}
; #@! TF.CreationDate,2023-12-25T13:55:30-06:00
; #@! TF.GenerationSoftware,Kicad,Pcbnew,7.0.7
; #@! TF.FileFunction,Plated,1,2,PTH
FMAT,2
INCH
; #@! TA.AperFunction,Plated,PTH,ViaDrill
T1C0.0157
; #@! TA.AperFunction,Plated,PTH,ComponentDrill
T2C0.0390
; #@! TA.AperFunction,Plated,PTH,ComponentDrill
T3C0.0394
; #@! TA.AperFunction,Plated,PTH,ComponentDrill
T4C0.0469
; #@! TA.AperFunction,Plated,PTH,ComponentDrill
T5C0.0590
%
G90
G05
T1
X4.2541Y-4.1903
X4.2705Y-2.6637
X4.5952Y-2.6637
X4.8489Y-3.0235
X4.9464Y-3.388
T2
X3.3858Y-4.2421
X3.3858Y-4.4193
X3.6417Y-4.2421
X3.6417Y-4.4193
T3
X5.0711Y-3.3571
X5.0711Y-3.4571
X5.0799Y-3.8386
X5.0799Y-3.9386
X5.0799Y-4.3201
X5.0799Y-4.4201
X5.389Y-3.3571
X5.389Y-3.4571
X5.3949Y-3.8386
X5.3949Y-3.9386
X5.3949Y-4.3201
X5.3949Y-4.4201
X5.7069Y-3.3571
X5.7069Y-3.4571
X5.7098Y-3.8492
X5.7098Y-3.9492
X5.7098Y-4.3413
X5.7098Y-4.4413
X6.0248Y-3.3571
X6.0248Y-3.4571
X6.0248Y-3.8386
X6.0248Y-3.9386
X6.0248Y-4.3201
X6.0248Y-4.4201
T4
X3.5039Y-2.6091
X3.5039Y-3.7689
T5
X5.1004Y-2.6772
X5.9902Y-2.6772
T0
M30
